<?xml version="1.0" encoding="utf-8"?>
<!-- Generator: Adobe Illustrator 21.1.0, SVG Export Plug-In . SVG Version: 6.00 Build 0)  -->
<svg version="1.1" id="Layer_1" xmlns="http://www.w3.org/2000/svg" xmlns:xlink="http://www.w3.org/1999/xlink" x="0px" y="0px"
	 viewBox="0 0 400 400" style="enable-background:new 0 0 400 400;" xml:space="preserve">
<style type="text/css">
	.st0{fill:url(#SVGID_1_);}
	.st1{fill:url(#SVGID_2_);}
	.st2{fill:url(#SVGID_3_);}
	.st3{fill:url(#SVGID_4_);}
	.st4{fill:url(#SVGID_5_);}
	.st5{fill:url(#SVGID_6_);}
	.st6{fill:url(#SVGID_7_);}
	.st7{fill:url(#SVGID_8_);}
	.st8{fill:url(#SVGID_9_);}
	.st9{fill:url(#SVGID_10_);}
	.st10{fill:url(#SVGID_11_);}
	.st11{fill:url(#SVGID_12_);}
	.st12{fill:url(#SVGID_13_);}
	.st13{fill:url(#SVGID_14_);}
	.st14{fill:url(#SVGID_15_);}
	.st15{fill:url(#SVGID_16_);}
	.st16{fill:url(#SVGID_17_);}
</style>
<g>
	<g>
		<linearGradient id="SVGID_1_" gradientUnits="userSpaceOnUse" x1="6" y1="200" x2="394" y2="200">
			<stop  offset="0" style="stop-color:#7081F6"/>
			<stop  offset="0.1845" style="stop-color:#7481F6"/>
			<stop  offset="0.3738" style="stop-color:#807FF5"/>
			<stop  offset="0.5654" style="stop-color:#957DF4"/>
			<stop  offset="0.7585" style="stop-color:#B279F3"/>
			<stop  offset="0.9511" style="stop-color:#D675F1"/>
			<stop  offset="1" style="stop-color:#E174F1"/>
		</linearGradient>
		<path class="st0" d="M394,330.6c-51,0-102,0-153,0c17-12.2,34.1-24.3,50.9-36.8c8.2-6.1,16.8-9,27.2-8.1
			c9.8,0.8,19.6,0.2,29.2,0.2c0-52.9,0-104.7,0-157.6c-3.5,2.7-5.8,4.7-8.3,6.4c-29.5,20.4-59,40.9-88.7,61.2
			C200.6,230.6,149.8,265.2,99.2,300c-14.5,9.9-28.6,20.4-42.8,30.6c-16.8,0-33.6,0-50.4,0c0-87.1,0-174.1,0-261.2
			c51.6,0,103.2,0,154.8,0c-0.9,1.3-1.6,3.1-2.8,3.9c-18.4,12.5-36.8,25-55.5,37.1c-3.3,2.2-7.8,3.5-11.7,3.6
			c-13.2,0.4-26.4,0.2-39.5,0.2c0,52.8,0,104.1,0,156.2c2.3-1.2,4-1.8,5.5-2.8c28.2-19.3,56.2-38.8,84.4-57.9
			c48.4-32.7,97.1-65.1,145.5-97.8c20.9-14.1,41.6-28.4,62.5-42.6c14.9,0,29.8,0,44.8,0C394,156.5,394,243.5,394,330.6z"/>
		<linearGradient id="SVGID_2_" gradientUnits="userSpaceOnUse" x1="5" y1="200" x2="395" y2="200">
			<stop  offset="0" style="stop-color:#7081F6"/>
			<stop  offset="0.1845" style="stop-color:#7481F6"/>
			<stop  offset="0.3738" style="stop-color:#807FF5"/>
			<stop  offset="0.5654" style="stop-color:#957DF4"/>
			<stop  offset="0.7585" style="stop-color:#B279F3"/>
			<stop  offset="0.9511" style="stop-color:#D675F1"/>
			<stop  offset="1" style="stop-color:#E174F1"/>
		</linearGradient>
		<path class="st1" d="M394,69.4c0,87.1,0,174.1,0,261.2c-51,0-102,0-153,0c17-12.2,34.1-24.3,50.9-36.8c7.3-5.4,14.9-8.3,23.8-8.3
			c1.1,0,2.3,0,3.5,0.1c3.8,0.3,7.6,0.4,11.4,0.4c6,0,11.9-0.2,17.7-0.2c0-52.9,0-104.7,0-157.6c-3.5,2.7-5.8,4.7-8.3,6.4
			c-29.5,20.4-59,40.9-88.7,61.2C200.6,230.6,149.8,265.2,99.2,300c-14.5,9.9-28.6,20.4-42.8,30.6c-16.8,0-33.6,0-50.4,0
			c0-87.1,0-174.1,0-261.2c51.6,0,103.2,0,154.8,0c-0.9,1.3-1.6,3.1-2.8,3.9c-18.4,12.5-36.8,25-55.5,37.1
			c-3.3,2.2-7.8,3.5-11.7,3.6c-5.9,0.2-11.8,0.3-17.7,0.3c-7.3,0-14.6-0.1-21.9-0.1c0,52.8,0,104.1,0,156.2c2.3-1.2,4-1.8,5.5-2.8
			c28.2-19.3,56.2-38.8,84.4-57.9c48.4-32.7,97.1-65.1,145.5-97.8c20.9-14.1,41.6-28.4,62.5-42.6C364.2,69.4,379.1,69.4,394,69.4
			 M395,68.4h-1h-44.8h-0.3l-0.3,0.2c-6.5,4.4-13,8.9-19.5,13.3c-14.1,9.6-28.6,19.6-43,29.2c-20.8,14-41.9,28.1-62.3,41.8
			c-27.3,18.3-55.5,37.2-83.2,55.9c-18.2,12.3-36.6,25-54.4,37.2c-9.8,6.8-20,13.8-30,20.6c-0.9,0.6-1.9,1.1-3.2,1.6
			c-0.2,0.1-0.5,0.2-0.8,0.4V115.2c3.3,0,6.6,0,9.9,0c3.7,0,7.3,0,11,0c6.9,0,12.6-0.1,17.7-0.3c4.3-0.1,8.8-1.5,12.2-3.8
			c17.5-11.4,35.1-23.3,52.1-34.8l3.3-2.3c1-0.7,1.7-1.8,2.3-2.9c0.3-0.5,0.5-0.9,0.8-1.3l1.1-1.6h-1.9L6,68.4H5v1v261.2v1h1h50.4
			h0.3l0.3-0.2c4.5-3.2,9-6.5,13.4-9.7c9.6-6.9,19.5-14.1,29.4-20.9c28.2-19.4,56.9-39,84.7-58c22.1-15.1,45-30.7,67.4-46.1
			c23.4-16.1,47.1-32.5,70.1-48.4c6.2-4.3,12.4-8.6,18.6-12.9c1.7-1.1,3.3-2.4,5.1-3.9c0.5-0.4,1.1-0.8,1.6-1.3v154.5
			c-2.6,0-5.2,0.1-7.8,0.1c-2.9,0.1-6,0.1-9,0.1c-4.4,0-8-0.1-11.3-0.4c-1.2-0.1-2.4-0.1-3.5-0.1c-8.8,0-16.6,2.7-24.3,8.5
			c-11.9,8.8-24.2,17.6-36,26.1c-5,3.6-9.9,7.1-14.9,10.7l-2.5,1.8h3.1h153h1v-1V69.4V68.4L395,68.4z"/>
	</g>
</g>
</svg>
