<?xml version="1.0" encoding="utf-8"?>
<!-- Generator: Adobe Illustrator 21.1.0, SVG Export Plug-In . SVG Version: 6.00 Build 0)  -->
<svg version="1.1" id="Layer_1" xmlns="http://www.w3.org/2000/svg" xmlns:xlink="http://www.w3.org/1999/xlink" x="0px" y="0px"
	 viewBox="0 0 400 400" style="enable-background:new 0 0 400 400;" xml:space="preserve">
<style type="text/css">
	.st0{fill:url(#SVGID_1_);}
	.st1{fill:url(#SVGID_2_);}
	.st2{fill:url(#SVGID_3_);}
	.st3{fill:url(#SVGID_4_);}
	.st4{fill:url(#SVGID_5_);}
	.st5{fill:url(#SVGID_6_);}
	.st6{fill:url(#SVGID_7_);}
	.st7{fill:url(#SVGID_8_);}
	.st8{fill:url(#SVGID_9_);}
	.st9{fill:url(#SVGID_10_);}
	.st10{fill:#7081F6;}
</style>
<g>
	<g>
		
			<linearGradient id="SVGID_1_" gradientUnits="userSpaceOnUse" x1="79.7" y1="94.2444" x2="320.1827" y2="94.2444" gradientTransform="matrix(1 0 0 -1 0 400)">
			<stop  offset="0" style="stop-color:#7081F6"/>
			<stop  offset="0.1845" style="stop-color:#7481F6"/>
			<stop  offset="0.3738" style="stop-color:#807FF5"/>
			<stop  offset="0.5654" style="stop-color:#957DF4"/>
			<stop  offset="0.7585" style="stop-color:#B279F3"/>
			<stop  offset="0.9511" style="stop-color:#D675F1"/>
			<stop  offset="1" style="stop-color:#E174F1"/>
		</linearGradient>
		<path class="st0" d="M79.7,233.5c4.1-1.3,3.3-7.7,10.8-8c2.3,44.7,32.4,64.4,71,77.3c16.4,5.5,30.9,15.9,39,32.7
			c2,4.2,4.5,7,9.2,3c13.5-11.3,30.7-14,46.8-16.7c27.4-4.7,42.3-21.4,52.4-45c1.6-3.8,0.3-10.8,7.3-9.1c4.6,1.1,4.1,6.6,3.8,10.6
			c-2.4,33.1-17.6,64.2-52.6,76.7c-23.8,8.5-49.3,12.9-70.2,28.6c-5.1,3.8-10.4,3.4-12.4-3.3c-7.1-23-26.9-33.4-46-41.6
			c-25.3-10.8-47.5-23.2-59.1-49.5C79.7,270.7,79.7,252.1,79.7,233.5z"/>
		
			<linearGradient id="SVGID_2_" gradientUnits="userSpaceOnUse" x1="79.4" y1="94.25" x2="321.3532" y2="94.25" gradientTransform="matrix(1 0 0 -1 0 400)">
			<stop  offset="0" style="stop-color:#7081F6"/>
			<stop  offset="0.1845" style="stop-color:#7481F6"/>
			<stop  offset="0.3738" style="stop-color:#807FF5"/>
			<stop  offset="0.5654" style="stop-color:#957DF4"/>
			<stop  offset="0.7585" style="stop-color:#B279F3"/>
			<stop  offset="0.9511" style="stop-color:#D675F1"/>
			<stop  offset="1" style="stop-color:#E174F1"/>
		</linearGradient>
		<path class="st1" d="M90.6,225.5c2.3,44.7,32.4,64.4,71,77.3c16.4,5.5,30.9,15.9,39,32.7c1.3,2.8,2.9,4.9,5.1,4.9
			c1.2,0,2.5-0.6,4.1-1.9c13.5-11.3,30.7-14,46.8-16.7c27.4-4.7,42.3-21.4,52.4-45c1.4-3.4,0.6-9.4,5.4-9.4c0.6,0,1.2,0.1,2,0.3
			c4.6,1.1,4.1,6.6,3.8,10.6c-2.4,33.1-17.6,64.2-52.6,76.7c-23.8,8.5-49.3,12.9-70.2,28.6c-2.1,1.6-4.2,2.4-6.1,2.4
			c-2.8,0-5.1-1.8-6.3-5.7c-7.1-23-26.9-33.4-46-41.6c-25.3-10.8-47.5-23.2-59.1-49.5c0-18.6,0-37.2,0-55.7
			C83.8,232.2,83.1,225.8,90.6,225.5 M91.5,224.5h-1c-5,0.2-6.8,3-8.2,5.2c-0.9,1.4-1.6,2.5-2.9,2.9c0,0,37.1,97.6,59.1,107
			c18.3,7.8,38.3,18,45.5,41c1.3,4.1,3.9,6.4,7.3,6.4c2.1,0,4.4-0.9,6.7-2.6c15.2-11.4,33.1-16.9,50.5-22.2c6.4-2,13-4,19.5-6.3
			c16.7-6,29.8-16.4,39-31.1c8-12.8,12.9-28.9,14.2-46.5V278c0.3-4,0.7-10.1-4.6-11.4c-0.8-0.2-1.5-0.3-2.2-0.3
			c-4.3,0-5,3.8-5.5,6.8c-0.2,1.2-0.4,2.3-0.8,3.2c-11.3,26.6-27.2,40.3-51.6,44.4l-1.4,0.2c-16,2.7-32.6,5.5-45.9,16.7
			c-1.3,1.1-2.5,1.7-3.4,1.7c-1.5,0-2.8-1.3-4.2-4.4c-7.5-15.5-21.2-27-39.6-33.2c-22.1-7.5-37.6-15.9-48.7-26.6
			c-13.5-12.9-20.5-29.2-21.6-49.9L91.5,224.5L91.5,224.5z"/>
	</g>
	<g>
		
			<linearGradient id="SVGID_3_" gradientUnits="userSpaceOnUse" x1="149.3788" y1="366.8929" x2="188.1123" y2="366.8929" gradientTransform="matrix(1 0 0 -1 0 400)">
			<stop  offset="0" style="stop-color:#7081F6"/>
			<stop  offset="0.1845" style="stop-color:#7481F6"/>
			<stop  offset="0.3738" style="stop-color:#807FF5"/>
			<stop  offset="0.5654" style="stop-color:#957DF4"/>
			<stop  offset="0.7585" style="stop-color:#B279F3"/>
			<stop  offset="0.9511" style="stop-color:#D675F1"/>
			<stop  offset="1" style="stop-color:#E174F1"/>
		</linearGradient>
		<path class="st2" d="M180.8,14c3.7,5.8,8.3,11.1,7,18.9c-1.1,6.7,2.5,18.6-2.1,19.1c-9.6,1.1-20.4-2.2-29.6-6.2
			c-7.8-3.4-8-11.5-4.7-20.3c7.2,3.1,12.3,15.2,20.5,6.7c6.3-6.5-2.1-12.4-5-18.2C171.5,14,176.1,14,180.8,14z"/>
		
			<linearGradient id="SVGID_4_" gradientUnits="userSpaceOnUse" x1="148.3846" y1="366.95" x2="189.0813" y2="366.95" gradientTransform="matrix(1 0 0 -1 0 400)">
			<stop  offset="0" style="stop-color:#7081F6"/>
			<stop  offset="0.1845" style="stop-color:#7481F6"/>
			<stop  offset="0.3738" style="stop-color:#807FF5"/>
			<stop  offset="0.5654" style="stop-color:#957DF4"/>
			<stop  offset="0.7585" style="stop-color:#B279F3"/>
			<stop  offset="0.9511" style="stop-color:#D675F1"/>
			<stop  offset="1" style="stop-color:#E174F1"/>
		</linearGradient>
		<path class="st3" d="M180.8,14c3.7,5.8,8.3,11.1,7,18.9c-1.1,6.7,2.5,18.6-2.1,19.1c-1.2,0.1-2.5,0.2-3.7,0.2
			c-8.6,0-17.8-3-25.9-6.4c-7.8-3.4-8-11.5-4.7-20.3c5.4,2.3,9.6,9.7,14.8,9.7c1.7,0,3.6-0.8,5.6-2.9c6.3-6.5-2.1-12.4-5-18.2
			C171.5,14,176.1,14,180.8,14 M181.3,13h-0.5h-13.9h-1.6l0.7,1.4c0.8,1.7,2,3.3,3.2,4.9c3.7,5,5.7,8.3,2,12.2
			c-1.7,1.8-3.3,2.6-4.9,2.6c-2.6,0-5.1-2.3-7.7-4.7c-2.1-1.9-4.3-3.9-6.7-4.9l-1-0.4l-0.4,1c-4,10.7-2.1,18.4,5.3,21.5
			c10,4.3,18.9,6.5,26.3,6.5c1.3,0,2.6-0.1,3.8-0.2c3.8-0.4,3.4-5.8,3-11.4c-0.2-3-0.5-6.2-0.1-8.5c1.2-7.1-2.3-12.3-5.6-17.3
			c-0.5-0.8-1-1.5-1.5-2.3L181.3,13L181.3,13z"/>
	</g>
	<g>
		
			<linearGradient id="SVGID_5_" gradientUnits="userSpaceOnUse" x1="107.8953" y1="169.8837" x2="313.7392" y2="169.8837" gradientTransform="matrix(1 0 0 -1 0 400)">
			<stop  offset="0" style="stop-color:#7081F6"/>
			<stop  offset="0.1845" style="stop-color:#7481F6"/>
			<stop  offset="0.3738" style="stop-color:#807FF5"/>
			<stop  offset="0.5654" style="stop-color:#957DF4"/>
			<stop  offset="0.7585" style="stop-color:#B279F3"/>
			<stop  offset="0.9511" style="stop-color:#D675F1"/>
			<stop  offset="1" style="stop-color:#E174F1"/>
		</linearGradient>
		<path class="st4" d="M306.1,162.3c14.4,24.4,7.8,71.1-14.4,86.4c-23.2,16-47.1,31.1-68.7,49.3c-5.2,4.4-10,6.7-13.9-0.9
			c-12.5-24.5-36.3-34.6-59-45.7c-20.7-10.1-37-22.6-41.5-47.1c-2.8-15.3,3.4-28.3,7.1-42c0.8-2.9,3.6-5.1,6.6-3.7
			c1.3,0.6,2.1,4,1.8,5.9c-4,23.9,8.8,38.1,28.2,47.6c15.5,7.6,34.6,10.5,47,21.3c19.7,17.3,32.6,14.6,53.1,0.2
			C285.4,210.6,287,212.9,306.1,162.3z"/>
		
			<linearGradient id="SVGID_6_" gradientUnits="userSpaceOnUse" x1="106.9004" y1="169.85" x2="314.6246" y2="169.85" gradientTransform="matrix(1 0 0 -1 0 400)">
			<stop  offset="0" style="stop-color:#7081F6"/>
			<stop  offset="0.1845" style="stop-color:#7481F6"/>
			<stop  offset="0.3738" style="stop-color:#807FF5"/>
			<stop  offset="0.5654" style="stop-color:#957DF4"/>
			<stop  offset="0.7585" style="stop-color:#B279F3"/>
			<stop  offset="0.9511" style="stop-color:#D675F1"/>
			<stop  offset="1" style="stop-color:#E174F1"/>
		</linearGradient>
		<path class="st5" d="M120.5,158.2c0.6,0,1.2,0.1,1.9,0.4c1.3,0.6,2.1,4,1.8,5.9c-4,23.9,8.8,38.1,28.2,47.6
			c15.5,7.6,34.6,10.5,47,21.3c9.5,8.3,17.4,12,25.3,12c8.6,0,17.2-4.3,27.8-11.8c32.9-23.1,34.5-20.9,53.6-71.4
			c14.4,24.4,7.8,71.1-14.4,86.4c-23.2,16-47.1,31.1-68.7,49.3c-2.8,2.3-5.4,4.1-7.9,4.1c-2.2,0-4.2-1.4-6-4.9
			c-12.5-24.5-36.3-34.6-59-45.7c-20.7-10.1-37-22.6-41.5-47.1c-2.8-15.3,3.4-28.3,7.1-42C116.4,160.1,118.3,158.2,120.5,158.2
			 M120.5,157.2c-2.6,0-5,2-5.7,4.9c-0.8,3-1.8,6-2.7,8.9c-3.3,10.5-6.7,21.4-4.5,33.5c2.1,11.7,7,21.3,14.9,29.5
			c6.5,6.7,15.1,12.5,27.1,18.3c1.6,0.8,3.1,1.5,4.7,2.3c20.8,10,42.4,20.4,53.9,43c1.9,3.7,4.2,5.5,6.9,5.5c3,0,6-2.2,8.5-4.3
			c16.4-13.8,34.4-26,51.8-37.7c5.5-3.7,11.3-7.6,16.8-11.5c10.7-7.4,18.4-22.1,21.3-40.5c2.8-17.8,0.3-35.5-6.7-47.3l-1.1-1.8
			l-0.7,2c-17.4,46.1-20.1,47.9-45.7,65.7c-2.3,1.6-4.8,3.4-7.6,5.3c-11.7,8.2-19.6,11.6-27.2,11.6c-7.8,0-15.4-3.6-24.6-11.7
			c-8-7-18.8-10.8-29.3-14.4c-6-2.1-12.2-4.3-17.9-7c-10.5-5.1-17.8-11-22.5-18.1c-5.3-8-7-17.4-5.2-28.5c0.4-2.2-0.5-6.2-2.3-7
			C122.1,157.4,121.3,157.2,120.5,157.2L120.5,157.2z"/>
	</g>
	<g>
		
			<linearGradient id="SVGID_7_" gradientUnits="userSpaceOnUse" x1="135.4032" y1="255.2653" x2="282.4735" y2="255.2653" gradientTransform="matrix(1 0 0 -1 0 400)">
			<stop  offset="0" style="stop-color:#7081F6"/>
			<stop  offset="0.1845" style="stop-color:#7481F6"/>
			<stop  offset="0.3738" style="stop-color:#807FF5"/>
			<stop  offset="0.5654" style="stop-color:#957DF4"/>
			<stop  offset="0.7585" style="stop-color:#B279F3"/>
			<stop  offset="0.9511" style="stop-color:#D675F1"/>
			<stop  offset="1" style="stop-color:#E174F1"/>
		</linearGradient>
		<path class="st6" d="M139,113.2c8.9,4.9,11.1,16.3,19.6,22.4c13.3,9.7,30.7,7.4,43.5,14.9c19.3,11.3,27.8,0.7,40.1-10.8
			c16.8-15.7,31.4-31,24.7-58c19.5,16.9,20.9,56.1,3,72.7c-15.4,14.3-29,29.4-38.8,48c-3.4,6.4-7.1,7.5-11.2,1
			c-9.7-15.3-25.5-20.5-41.5-26c-28.4-9.8-44.4-31.9-42.9-58.1C135.7,117.2,135.5,114.7,139,113.2z"/>
		
			<linearGradient id="SVGID_8_" gradientUnits="userSpaceOnUse" x1="134.5906" y1="256.05" x2="283.5061" y2="256.05" gradientTransform="matrix(1 0 0 -1 0 400)">
			<stop  offset="0" style="stop-color:#7081F6"/>
			<stop  offset="0.1845" style="stop-color:#7481F6"/>
			<stop  offset="0.3738" style="stop-color:#807FF5"/>
			<stop  offset="0.5654" style="stop-color:#957DF4"/>
			<stop  offset="0.7585" style="stop-color:#B279F3"/>
			<stop  offset="0.9511" style="stop-color:#D675F1"/>
			<stop  offset="1" style="stop-color:#E174F1"/>
		</linearGradient>
		<path class="st7" d="M266.9,81.7c19.5,16.9,20.9,56.1,3,72.7c-15.4,14.3-29,29.4-38.8,48c-1.8,3.5-3.7,5.4-5.8,5.4
			c-1.7,0-3.5-1.4-5.4-4.4c-9.7-15.3-25.5-20.5-41.5-26c-28.4-9.8-44.4-31.9-42.9-58.1c0.1-2.2-0.1-4.7,3.5-6.2
			c8.9,4.9,11.1,16.3,19.6,22.4c13.3,9.7,30.7,7.4,43.5,14.9c5.8,3.4,10.6,4.8,14.9,4.8c9.9,0,16.6-7.6,25.2-15.6
			C258.9,124.1,273.5,108.7,266.9,81.7 M265.2,78.9L266,82c6.3,25.7-6.7,40.5-24.4,57.1c-1,0.9-1.9,1.8-2.8,2.6
			c-7.2,6.8-13.3,12.7-21.7,12.7c-4.3,0-9-1.5-14.4-4.7c-6-3.5-13-5-19.8-6.4c-8.1-1.7-16.5-3.4-23.6-8.5c-3.8-2.8-6.4-6.8-8.9-10.7
			c-2.9-4.5-5.8-9.1-10.8-11.8l-0.4-0.2l-0.4,0.2c-3.8,1.6-4,4.4-4.1,6.5c0,0.2,0,0.4,0,0.6c-0.8,13.2,2.8,25.6,10.4,35.9
			c7.6,10.4,19.1,18.4,33.1,23.2l1,0.4c15.7,5.4,30.6,10.5,39.9,25.2c2.1,3.3,4.1,4.9,6.3,4.9c2.4,0,4.6-1.9,6.7-5.9
			c8.4-16.2,20.3-30.9,38.5-47.8c8.4-7.8,13.1-20.7,12.9-35.5c-0.2-15.8-6.2-30.3-15.9-38.7L265.2,78.9L265.2,78.9z"/>
	</g>
	<g>
		
			<linearGradient id="SVGID_9_" gradientUnits="userSpaceOnUse" x1="144.1833" y1="319.0375" x2="236.8489" y2="319.0375" gradientTransform="matrix(1 0 0 -1 0 400)">
			<stop  offset="0" style="stop-color:#7081F6"/>
			<stop  offset="0.1845" style="stop-color:#7481F6"/>
			<stop  offset="0.3738" style="stop-color:#807FF5"/>
			<stop  offset="0.5654" style="stop-color:#957DF4"/>
			<stop  offset="0.7585" style="stop-color:#B279F3"/>
			<stop  offset="0.9511" style="stop-color:#D675F1"/>
			<stop  offset="1" style="stop-color:#E174F1"/>
		</linearGradient>
		<path class="st8" d="M144.5,63.7c14.6,25.4,37.4,17.6,56.2,21.8c5,1.1,20.8-29.4,19.8-37.3c-0.5-4.3-3.8-9.9,2.5-11.5
			c4.7-1.2,5.8,4.5,7.9,7.9c6.4,10.5,7.8,21.6,3.4,33.2c-5.3,13.9-12.6,27.1-15.5,42c-1.6,8.3-7.4,5.9-11.6,2.1
			c-9.8-8.9-21.3-12.5-34.2-14.9C152.5,103.2,142.2,88.4,144.5,63.7z"/>
		
			<linearGradient id="SVGID_10_" gradientUnits="userSpaceOnUse" x1="143.1981" y1="318.95" x2="237.7337" y2="318.95" gradientTransform="matrix(1 0 0 -1 0 400)">
			<stop  offset="0" style="stop-color:#7081F6"/>
			<stop  offset="0.1845" style="stop-color:#7481F6"/>
			<stop  offset="0.3738" style="stop-color:#807FF5"/>
			<stop  offset="0.5654" style="stop-color:#957DF4"/>
			<stop  offset="0.7585" style="stop-color:#B279F3"/>
			<stop  offset="0.9511" style="stop-color:#D675F1"/>
			<stop  offset="1" style="stop-color:#E174F1"/>
		</linearGradient>
		<path class="st9" d="M224.2,36.6c3.7,0,4.8,5,6.7,8c6.4,10.5,7.8,21.6,3.4,33.2c-5.3,13.9-12.6,27.1-15.5,42
			c-0.8,4.1-2.6,5.6-4.8,5.6s-4.7-1.6-6.9-3.5c-9.8-8.9-21.3-12.5-34.2-14.9c-20.3-3.8-30.6-18.6-28.3-43.2
			c14.6,25.4,37.4,17.6,56.2,21.8c0.1,0,0.2,0,0.3,0c5.3,0,20.5-29.5,19.5-37.4c-0.5-4.3-3.8-9.9,2.5-11.5
			C223.5,36.6,223.9,36.6,224.2,36.6 M224.2,35.6c-0.5,0-0.9,0.1-1.4,0.2c-5.9,1.5-4.7,6.2-3.9,9.7c0.3,1,0.5,2,0.6,2.9
			c0.7,6.1-9.4,26.9-15.6,34c-1.9,2.1-2.8,2.2-2.9,2.2c0,0,0,0-0.1,0c-5.1-1.2-10.6-1.4-15.9-1.7c-14.4-0.7-29.2-1.5-39.6-19.6
			l-1.6-2.7l-0.3,3.1c-1.1,12.4,0.8,22.5,5.8,30.1c5,7.5,12.8,12.3,23.3,14.2c11.5,2.1,23.5,5.4,33.8,14.7c1.9,1.7,4.7,3.8,7.5,3.8
			c2,0,4.7-1.1,5.7-6.4c2-10.1,6.1-19.6,10.1-28.8c1.8-4.2,3.7-8.6,5.4-13c4.4-11.6,3.3-23.1-3.4-34.1c-0.4-0.7-0.8-1.6-1.3-2.4
			C229.1,38.8,227.6,35.6,224.2,35.6L224.2,35.6z"/>
	</g>
</g>
<path class="st10" d="M79.9,289.2c0,0-15.1-49.6,6.5-63.7"/>
</svg>
