<?xml version="1.0" encoding="utf-8"?>
<!-- Generator: Adobe Illustrator 21.1.0, SVG Export Plug-In . SVG Version: 6.00 Build 0)  -->
<svg version="1.1" id="Layer_1" xmlns="http://www.w3.org/2000/svg" xmlns:xlink="http://www.w3.org/1999/xlink" x="0px" y="0px"
	 viewBox="0 0 400 400" style="enable-background:new 0 0 400 400;" xml:space="preserve">
<style type="text/css">
	.st0{fill:url(#SVGID_1_);}
	.st1{fill:url(#SVGID_2_);}
	.st2{fill:url(#SVGID_3_);}
	.st3{fill:url(#SVGID_4_);}
	.st4{fill:url(#SVGID_5_);}
	.st5{fill:url(#SVGID_6_);}
	.st6{fill:url(#SVGID_7_);}
	.st7{fill:url(#SVGID_8_);}
	.st8{fill:url(#SVGID_9_);}
	.st9{fill:url(#SVGID_10_);}
	.st10{fill:url(#SVGID_11_);}
	.st11{fill:url(#SVGID_12_);}
	.st12{fill:url(#SVGID_13_);}
	.st13{fill:url(#SVGID_14_);}
	.st14{fill:url(#SVGID_15_);}
	.st15{fill:url(#SVGID_16_);}
	.st16{fill:url(#SVGID_17_);}
</style>
<g id="lkxIG7.tif">
	<g>
		<g>
			<linearGradient id="SVGID_1_" gradientUnits="userSpaceOnUse" x1="102.3659" y1="199.6124" x2="297.9921" y2="199.6124">
				<stop  offset="0" style="stop-color:#7081F6"/>
				<stop  offset="0.1845" style="stop-color:#7481F6"/>
				<stop  offset="0.3738" style="stop-color:#807FF5"/>
				<stop  offset="0.5654" style="stop-color:#957DF4"/>
				<stop  offset="0.7585" style="stop-color:#B279F3"/>
				<stop  offset="0.9511" style="stop-color:#D675F1"/>
				<stop  offset="1" style="stop-color:#E174F1"/>
			</linearGradient>
			<path class="st0" d="M298,199.7c0,56.7,0,113.3-0.1,170c0,2.9-0.3,5.9-1.2,8.5c-2.5,7.5-9.6,12.4-17.5,12.5
				c-52.7,0-105.4,0.1-158.1,0c-10.3,0-18.3-8.2-18.8-18.8c0-1.1,0-2.2,0-3.2c0-113.2,0-226.4,0-339.5c0-12.7,7.9-20.6,20.7-20.6
				c51.5,0,103.1,0,154.6,0c12.4,0,20.3,8,20.3,20.4C298,85.8,298,142.8,298,199.7z M289.8,57.2c0-0.9,0.1-1.6,0.1-2.3
				c0-8.9,0-17.7,0-26.6c0-7.2-4.6-11.8-11.9-11.8c-51.9,0-103.8,0-155.8,0c-7.2,0-11.9,4.6-11.9,11.8c0,8.9,0,17.7,0,26.6
				c0,0.7,0.1,1.4,0.1,2.3C170.4,57.2,230,57.2,289.8,57.2z M110.5,342c0,10.5-0.1,20.7,0.1,30.9c0,1.9,1.2,4,2.3,5.6
				c2.4,3.4,6.1,4.3,10.1,4.3c51.4,0,102.7,0,154.1,0c0.7,0,1.3,0,2,0c5.9-0.3,10.7-4.7,10.8-10.4c0.1-9.9,0-19.7,0-29.6
				c0-0.2-0.2-0.4-0.3-0.7C230,342,170.4,342,110.5,342z"/>
		</g>
		<g>
			<linearGradient id="SVGID_2_" gradientUnits="userSpaceOnUse" x1="175.8863" y1="36.8694" x2="224.5383" y2="36.8694">
				<stop  offset="0" style="stop-color:#7081F6"/>
				<stop  offset="0.1845" style="stop-color:#7481F6"/>
				<stop  offset="0.3738" style="stop-color:#807FF5"/>
				<stop  offset="0.5654" style="stop-color:#957DF4"/>
				<stop  offset="0.7585" style="stop-color:#B279F3"/>
				<stop  offset="0.9511" style="stop-color:#D675F1"/>
				<stop  offset="1" style="stop-color:#E174F1"/>
			</linearGradient>
			<path class="st1" d="M200.2,32.9c6.5,0,12.9,0,19.4,0c3.1,0,4.9,1.5,4.9,4c0,2.5-1.8,3.9-5,3.9c-12.9,0-25.9,0-38.8,0
				c-3.2,0-4.9-1.4-4.9-4c0-2.5,1.8-4,4.9-4C187.3,32.9,193.8,32.9,200.2,32.9z"/>
		</g>
		<g>
			<linearGradient id="SVGID_3_" gradientUnits="userSpaceOnUse" x1="188.1155" y1="362.25" x2="212.2811" y2="362.25">
				<stop  offset="0" style="stop-color:#7081F6"/>
				<stop  offset="0.1845" style="stop-color:#7481F6"/>
				<stop  offset="0.3738" style="stop-color:#807FF5"/>
				<stop  offset="0.5654" style="stop-color:#957DF4"/>
				<stop  offset="0.7585" style="stop-color:#B279F3"/>
				<stop  offset="0.9511" style="stop-color:#D675F1"/>
				<stop  offset="1" style="stop-color:#E174F1"/>
			</linearGradient>
			<path class="st2" d="M212.3,362.3c0,6.8-5.3,12.1-12.2,12.1c-6.8,0-12.1-5.4-12-12.2c0.1-6.7,5.4-12,12.1-12
				C206.9,350.1,212.3,355.6,212.3,362.3z"/>
		</g>
	</g>
</g>
</svg>
