<?xml version="1.0" encoding="utf-8"?>
<!-- Generator: Adobe Illustrator 21.1.0, SVG Export Plug-In . SVG Version: 6.00 Build 0)  -->
<svg version="1.1" id="Layer_1" xmlns="http://www.w3.org/2000/svg" xmlns:xlink="http://www.w3.org/1999/xlink" x="0px" y="0px"
	 viewBox="0 0 400 400" style="enable-background:new 0 0 400 400;" xml:space="preserve">
<style type="text/css">
	.st0{fill:url(#SVGID_1_);}
	.st1{fill:url(#SVGID_2_);}
	.st2{fill:url(#SVGID_3_);}
	.st3{fill:url(#SVGID_4_);}
	.st4{fill:url(#SVGID_5_);}
	.st5{fill:url(#SVGID_6_);}
	.st6{fill:url(#SVGID_7_);}
	.st7{fill:url(#SVGID_8_);}
	.st8{fill:url(#SVGID_9_);}
	.st9{fill:url(#SVGID_10_);}
	.st10{fill:url(#SVGID_11_);}
	.st11{fill:url(#SVGID_12_);}
	.st12{fill:url(#SVGID_13_);}
	.st13{fill:url(#SVGID_14_);}
	.st14{fill:url(#SVGID_15_);}
	.st15{fill:url(#SVGID_16_);}
	.st16{fill:url(#SVGID_17_);}
</style>
<g>
	<g>
		<linearGradient id="SVGID_1_" gradientUnits="userSpaceOnUse" x1="6.9919" y1="200" x2="393.0081" y2="200">
			<stop  offset="0" style="stop-color:#7081F6"/>
			<stop  offset="0.1845" style="stop-color:#7481F6"/>
			<stop  offset="0.3738" style="stop-color:#807FF5"/>
			<stop  offset="0.5654" style="stop-color:#957DF4"/>
			<stop  offset="0.7585" style="stop-color:#B279F3"/>
			<stop  offset="0.9511" style="stop-color:#D675F1"/>
			<stop  offset="1" style="stop-color:#E174F1"/>
		</linearGradient>
		<path class="st0" d="M292.3,14.9c5.6,1.6,11.3,3.3,16.9,4.8c45.4,11.9,72.6,44.6,81.5,87.2c4.8,23,1.4,46.3-3.2,69.1
			c-7.3,36.2-21.5,69.5-42.9,99.7c-16.6,23.4-35.4,44.8-58.3,62c-7.8,5.9-17.2,9.6-26.1,13.8c-7.1,3.3-14.5,5.7-22.3,8.7
			c7.1-5.7,13.8-11.4,20.7-16.8c18.9-14.8,33.5-33.4,46.8-53.1c20.7-30.8,34.8-64.6,41-101.2c4.9-28.8,3.6-57.8-9.8-84.3
			c-12.9-25.7-33.8-41.4-63.2-45.6c-31.6-4.5-60.2,4.9-88.3,17.2c-32.7,14.3-61.1,34.7-85,61.2C74.5,166,58.2,198.9,52,236.9
			c-3.9,23.8-4.4,46.9,4.5,69.7c10.2,26,29.4,41.4,56.5,45.4c41,6.2,76.9-7,109.1-32.2c16.2-12.7,28-27.9,31.2-48.6
			c2.4-15-0.4-34.1-21.5-36c-8.4-0.8-18.5,3.5-25.9,8.4c-14.2,9.4-24,22.3-23.9,41c0.1,13.8,10.2,20.7,21,21.2
			c3.2,0.1,6.4,0,9.7,0.8c-15.1,10.9-30.6,20.1-49.8,20.2c-15.8,0.1-31.8-13.7-31.3-31.4c1.3-51.2,0.6-102.5,0.3-153.8
			c0-5.9,1.5-8.4,7.5-9.7c13.8-3,27.5,1,33.8,11.5c1.7,2.8,2.5,6.7,2.5,10.1c0.2,19.1,0.1,38.1,0.1,57.2c0,2.7,0,5.4,0,9.6
			c8-5.5,14.6-10,21.2-14.5c12.9-8.8,27.7-13.7,42.9-14c35.2-0.6,57.1,22.5,50.8,60.7c-4.9,30-19.5,54.7-41.5,74.3
			c-28.5,25.5-61.4,44-99.2,52.4c-14.3,3.2-29.1,6-43.6,5.9c-27.2-0.2-52.4-7.7-71.9-28.2c-16-16.9-23.5-37.6-26.3-60.4
			c-4.4-35.7,2.4-69.7,15.7-102.5C35,167.2,50,142.7,69,120.6c21.6-25.2,46-47.2,74.2-64.7c31-19.2,64-34.1,100.6-39.2
			c0.8-0.1,1.4-1.2,2-1.8C261.3,14.9,276.8,14.9,292.3,14.9z"/>
		<linearGradient id="SVGID_2_" gradientUnits="userSpaceOnUse" x1="5.9874" y1="200" x2="394.0357" y2="200">
			<stop  offset="0" style="stop-color:#7081F6"/>
			<stop  offset="0.1845" style="stop-color:#7481F6"/>
			<stop  offset="0.3738" style="stop-color:#807FF5"/>
			<stop  offset="0.5654" style="stop-color:#957DF4"/>
			<stop  offset="0.7585" style="stop-color:#B279F3"/>
			<stop  offset="0.9511" style="stop-color:#D675F1"/>
			<stop  offset="1" style="stop-color:#E174F1"/>
		</linearGradient>
		<path class="st1" d="M292.3,14.9c5.6,1.6,11.3,3.3,16.9,4.8c45.4,11.9,72.6,44.6,81.5,87.2c4.8,23,1.4,46.3-3.2,69.1
			c-7.3,36.2-21.5,69.5-42.9,99.7c-16.6,23.4-35.4,44.8-58.3,62c-7.8,5.9-17.2,9.6-26.1,13.8c-7.1,3.3-14.5,5.7-22.3,8.7
			c7.1-5.7,13.8-11.4,20.7-16.8c18.9-14.8,33.5-33.4,46.8-53.1c20.7-30.8,34.8-64.6,41-101.2c4.9-28.8,3.6-57.8-9.8-84.3
			c-12.9-25.7-33.8-41.4-63.2-45.6c-5.5-0.8-11-1.2-16.3-1.2c-25.3,0-48.8,8.2-72,18.3c-32.7,14.3-61.1,34.7-85,61.2
			C74.5,166,58.2,198.9,52,236.9c-3.9,23.8-4.4,46.9,4.5,69.7c10.2,26,29.4,41.4,56.5,45.4c6.8,1,13.4,1.5,19.9,1.5
			c32.9,0,62.3-12.6,89.2-33.7c16.2-12.7,28-27.9,31.2-48.6c2.4-15-0.4-34.1-21.5-36c-0.7-0.1-1.3-0.1-2-0.1c-8,0-17.1,4-23.9,8.5
			c-14.2,9.4-24,22.3-23.9,41c0.1,13.8,10.2,20.7,21,21.2c3.2,0.1,6.4,0,9.7,0.8c-15.1,10.9-30.6,20.1-49.8,20.2c-0.1,0-0.1,0-0.2,0
			c-15.8,0-31.6-13.8-31.2-31.4c1.3-51.2,0.6-102.5,0.3-153.8c0-5.9,1.5-8.4,7.5-9.7c3-0.6,5.9-1,8.8-1c10.5,0,20,4.2,25,12.4
			c1.7,2.8,2.5,6.7,2.5,10.1c0.2,19.1,0.1,38.1,0.1,57.2c0,2.7,0,5.4,0,9.6c8-5.5,14.6-10,21.2-14.5c12.9-8.8,27.7-13.7,42.9-14
			c0.4,0,0.9,0,1.3,0c34.4,0,55.8,23,49.6,60.7c-4.9,30-19.5,54.7-41.5,74.3c-28.5,25.5-61.4,44-99.2,52.4
			c-14.1,3.1-28.6,5.9-43,5.9c-0.2,0-0.4,0-0.7,0c-27.2-0.2-52.4-7.7-71.9-28.2c-16-16.9-23.5-37.6-26.3-60.4
			c-4.4-35.7,2.4-69.7,15.7-102.5C35,167.2,50,142.7,69,120.6c21.6-25.2,46-47.2,74.2-64.7c31-19.2,64-34.1,100.6-39.2
			c0.8-0.1,1.4-1.2,2-1.8C261.3,14.9,276.8,14.9,292.3,14.9 M292.4,13.9h-0.1h-46.4h-0.4l-0.3,0.3c-0.3,0.2-0.5,0.5-0.7,0.8
			c-0.2,0.3-0.6,0.7-0.8,0.8c-33.1,4.6-65.2,17.1-101,39.3C115.8,71.7,91.4,93,68.2,120c-19.1,22.3-34.3,47-45.1,73.6
			c-14.7,36.2-19.9,69.9-15.8,103c3.2,25.6,11.9,45.5,26.6,61c9.4,9.9,20.6,17.3,33.4,22c11.5,4.2,24.7,6.4,39.2,6.5l0.7,0
			c15,0,30.2-3.1,43.2-6c36-8,69.5-25.7,99.6-52.6c22.9-20.5,37-45.7,41.8-74.9c3.1-18.5-0.3-34.2-9.8-45.3
			c-9.2-10.8-23.3-16.5-40.8-16.5c-0.4,0-0.9,0-1.3,0c-15.1,0.2-30.1,5.1-43.4,14.2c-4.5,3-9,6.1-13.8,9.4c-1.9,1.3-3.8,2.6-5.8,4
			l0-2l0-5.7c0-4.8,0-9.7,0-14.5c0-14,0-28.5-0.1-42.7c-0.1-4-1-7.8-2.7-10.6c-5-8.2-14.4-12.9-25.8-12.9c-3,0-6,0.3-9,1
			c-6.3,1.3-8.4,4-8.3,10.7c0,10,0.1,19.9,0.2,29.9c0.2,40.6,0.5,82.6-0.5,123.8c-0.2,8.2,3,16.1,9,22.2
			c6.2,6.4,14.8,10.1,23.1,10.1l0.2,0c18.5-0.1,33.5-8.2,50.4-20.4l1.8-1.3l-2.2-0.5c-2.6-0.6-5.2-0.7-7.6-0.7c-0.8,0-1.5,0-2.3-0.1
			c-9.2-0.4-20-6-20.1-20.2c-0.1-16.5,7.6-29.6,23.5-40.2c7.8-5.2,16.6-8.3,23.4-8.3c0.7,0,1.3,0,1.9,0.1c7.1,0.6,12.5,3.3,16.1,7.9
			c6.4,8.2,5.6,20.4,4.6,26.9c-2.9,18.5-12.7,33.7-30.8,48c-28.8,22.6-57.8,33.5-88.6,33.5c-6.5,0-13.1-0.5-19.7-1.5
			c-26.9-4-45.7-19.1-55.7-44.8c-7.7-19.8-9.1-41.1-4.5-69.2c6.1-37.1,22.2-70.3,47.9-98.8c23.7-26.3,52.2-46.9,84.7-61
			c21.7-9.5,45.5-18.2,71.6-18.2c5.4,0,10.8,0.4,16.2,1.2c28.4,4.1,49.4,19.3,62.4,45.1c12,23.9,15.2,51.2,9.7,83.7
			c-6,35.5-19.8,69.5-40.8,100.8c-10.8,16.1-25.9,36.7-46.6,52.9c-4.7,3.7-9.3,7.4-14.1,11.4c-2.2,1.8-4.4,3.6-6.6,5.4l-4.9,4
			l5.9-2.3c2.4-0.9,4.8-1.8,7.2-2.7c5.3-1.9,10.3-3.8,15.2-6.1c1.6-0.7,3.2-1.5,4.8-2.2c7.4-3.4,15.1-6.8,21.5-11.7
			c20.9-15.8,40.1-36.2,58.6-62.3c21.2-29.9,35.6-63.6,43-100.1c5.2-25.8,7.7-47.5,3.2-69.5c-9.5-45.3-38.6-76.5-82.2-88
			c-3.9-1-7.8-2.1-11.6-3.2c-1.8-0.5-3.6-1-5.4-1.5L292.4,13.9L292.4,13.9z"/>
	</g>
</g>
</svg>
