<svg id="Layer_1" data-name="Layer 1" xmlns="http://www.w3.org/2000/svg" xmlns:xlink="http://www.w3.org/1999/xlink" viewBox="0 0 88 90.5">
  <defs>
    <style>
      .cls-1, .cls-2 {
        opacity: 0.46;
      }

      .cls-1 {
        fill: url(#linear-gradient);
      }

      .cls-2 {
        fill: url(#linear-gradient-2);
      }

      .cls-3 {
        fill: #fff;
      }

      .rotater{
        animation:rotater 2.5s ease-in-out infinite;
      }

      .rotater2{
        animation:rotater 2.5s ease-in-out 1.25s infinite;
      }

      @keyframes rotater{
       0%{
        opacity:0.46;
       }
       50%{
        opacity:0;
       }
       100%{
       opacity:0.46;
       }
      }

    
    </style>
    <linearGradient id="linear-gradient" x1="10.16" y1="51.21" x2="90.84" y2="51.21" gradientTransform="matrix(0.71, -0.71, -0.71, -0.71, 50.5, 121.92)" gradientUnits="userSpaceOnUse">
      <stop offset="0" stop-color="#7081f6"/>
      <stop offset="0.18" stop-color="#7481f6"/>
      <stop offset="0.37" stop-color="#807ff5"/>
      <stop offset="0.57" stop-color="#957df4"/>
      <stop offset="0.76" stop-color="#b279f3"/>
      <stop offset="0.95" stop-color="#d675f1"/>
      <stop offset="1" stop-color="#e174f1"/>
    </linearGradient>
    <linearGradient id="linear-gradient-2" x1="9.66" y1="51" x2="90.34" y2="51" gradientTransform="matrix(1, 0, 0, -1, 0, 101)" xlink:href="#linear-gradient"/>
  </defs>
  <title>Untitled-1</title>
  <g>
    <path class="rotater cls-1" d="M84.22,78.15l9.49-35.41a8.59,8.59,0,0,0-2.22-8.3L65.56,8.52a8.59,8.59,0,0,0-8.3-2.22L21.85,15.78a8.59,8.59,0,0,0-6.07,6.07L6.29,57.27a8.59,8.59,0,0,0,2.22,8.3L34.44,91.48a8.59,8.59,0,0,0,8.3,2.22l35.41-9.49A8.59,8.59,0,0,0,84.22,78.15Z" transform="translate(-6 -4.75)"/>
    <path class="rotater2 cls-2" d="M54.29,94.1,86,75.77a8.59,8.59,0,0,0,4.29-7.44V31.67A8.59,8.59,0,0,0,86,24.23L54.29,5.9a8.59,8.59,0,0,0-8.59,0L14,24.23a8.59,8.59,0,0,0-4.29,7.44V68.33A8.59,8.59,0,0,0,14,75.77L45.71,94.1A8.59,8.59,0,0,0,54.29,94.1Z" transform="translate(-6 -4.75)"/>
    <g>
      <path class="cls-3" d="M45.29,58.13c0,3.08-1.84,5.88-5.51,7.4-1.06,4.6-4.55,6.71-5.38,6.71a1,1,0,0,1-1.06-.92,1,1,0,0,1,.64-1,6.93,6.93,0,0,0,3.54-4.09c-.69.14-1.47.28-2.3.37a24,24,0,0,1-2.67.14c-5.88,0-10.8-2.85-10.8-7.22,0-3.45,3.35-6.16,7.67-6.16,6,0,10.43,4.18,10.57,9.88a5.78,5.78,0,0,0,3.26-5.15c0-4.37-3.45-6.07-8.46-7.77-4.14-1.42-8.23-2.85-8.23-7.31,0-3.45,3.13-6.89,9.19-6.89a11.72,11.72,0,0,1,3,.41,7.68,7.68,0,0,1,4.92-1.7,1,1,0,0,1,1.06,1c0,.51-.51.83-1.1.83a5.27,5.27,0,0,0-2.85.83,7.24,7.24,0,0,1,.87.69,5.16,5.16,0,0,1,1.7,4,3.18,3.18,0,0,1-3.08,3.26,3.92,3.92,0,0,1-3.77-4.18,5.87,5.87,0,0,1,.87-3.08A10.13,10.13,0,0,0,35.73,38c-4.73,0-7.08,2.62-7.08,5.06,0,2.8,2.57,4,6.8,5.47C39.86,50.09,45.29,52,45.29,58.13ZM23.78,59.6c0,3,3.86,5.33,8.78,5.33A18.1,18.1,0,0,0,38,64.2c.28-4.92-2.9-8.87-8.59-8.87C26.4,55.33,23.78,57.12,23.78,59.6ZM39.27,38.74a4.44,4.44,0,0,0-.74,2.53,2.1,2.1,0,0,0,1.75,2.3c.69,0,1.06-.64,1.06-1.38A3.84,3.84,0,0,0,39.27,38.74Z" transform="translate(-6 -4.75)"/>
      <path class="cls-3" d="M71.25,39.61c-3,0-6.2,2.62-9,6.11a43.57,43.57,0,0,1,.28,5.06c0,8.46-2.44,16-6.71,16-2,0-3.45-1.56-3.45-4,0-4.55,3.22-12.41,7.72-17.6a21,21,0,0,0-1.15-5.33,11.18,11.18,0,0,1-3.91.78c-4.69,0-8.18-2.34-8.18-5.51,0-2.44,2.16-4.27,5-4.27,3.31,0,6.3,2.16,8.18,6.11a6.33,6.33,0,0,0,2.39-4.83,5.58,5.58,0,0,0-.92-3.08.66.66,0,0,1-.14-.51,1,1,0,0,1,1-1.06c1.24,0,2.11,3,2.11,4.64a8.38,8.38,0,0,1-3.72,6.71,28.85,28.85,0,0,1,1.1,4.37c2.9-3.17,6.16-5.51,9.42-5.51S78,39.7,78,47.65c0,5.7-2.21,12.5-5.79,18.34a1.16,1.16,0,0,1-.87.51,1,1,0,0,1-1-1.06,1.23,1.23,0,0,1,.14-.55c3.4-5.51,5.47-12.18,5.47-17.23C75.94,42.78,74.42,39.61,71.25,39.61ZM55,38.78a10.62,10.62,0,0,0,3.35-.64c-1.75-3.63-4.14-5.38-6.53-5.38-1.7,0-2.9.74-2.9,2.39C49,37.13,51.58,38.78,55,38.78Zm5.38,9.1c-3.54,4.6-5.93,11.26-6,14.94,0,1,.46,2,1.52,2,2.21,0,4.55-5.74,4.55-14.06C60.5,49.91,60.45,48.71,60.41,47.88Z" transform="translate(-6 -4.75)"/>
    </g>
  </g>
</svg>
