<?xml version="1.0" encoding="utf-8"?>
<!-- Generator: Adobe Illustrator 21.1.0, SVG Export Plug-In . SVG Version: 6.00 Build 0)  -->
<svg version="1.1" id="Layer_1" xmlns="http://www.w3.org/2000/svg" xmlns:xlink="http://www.w3.org/1999/xlink" x="0px" y="0px"
	 viewBox="0 0 400 400" style="enable-background:new 0 0 400 400;" xml:space="preserve">
<style type="text/css">
	.st0{fill:url(#SVGID_1_);}
	.st1{fill:url(#SVGID_2_);}
	.st2{fill:url(#SVGID_3_);}
	.st3{fill:url(#SVGID_4_);}
	.st4{fill:#F9FCFD;}
	.st5{fill:#01ACE5;}
	.st6{fill:url(#SVGID_5_);}
	.st7{fill:url(#SVGID_6_);}
	.st8{fill:url(#SVGID_7_);}
	.st9{fill:url(#SVGID_8_);}
	.st10{fill:url(#SVGID_9_);}
	.st11{fill:url(#SVGID_10_);}
	.st12{fill:url(#SVGID_11_);}
	.st13{fill:url(#SVGID_12_);}
	.st14{fill:url(#SVGID_13_);}
	.st15{fill:url(#SVGID_14_);}
</style>
<g id="yEoNsr.tif">
	<g>
		<g>
			<linearGradient id="SVGID_1_" gradientUnits="userSpaceOnUse" x1="46.8465" y1="200" x2="353.1534" y2="200">
				<stop  offset="0" style="stop-color:#7081F6"/>
				<stop  offset="0.1845" style="stop-color:#7481F6"/>
				<stop  offset="0.3738" style="stop-color:#807FF5"/>
				<stop  offset="0.5654" style="stop-color:#957DF4"/>
				<stop  offset="0.7585" style="stop-color:#B279F3"/>
				<stop  offset="0.9511" style="stop-color:#D675F1"/>
				<stop  offset="1" style="stop-color:#E174F1"/>
			</linearGradient>
			<path class="st0" d="M353,199.9c0,13.6-0.3,27.2,0.1,40.8c0.3,8.7-2.7,14.7-10.1,19.5c-44,29-87.8,58.2-131.4,87.7
				c-8.5,5.7-15.3,5.3-23.6-0.3c-43.3-29.2-86.8-58.2-130.4-87c-7.2-4.7-10.8-10.3-10.7-19.2c0.4-27.6,0.4-55.2,0-82.8
				c-0.1-8.9,3.4-14.5,10.6-19.3c43.6-28.8,87.1-57.7,130.4-87c8.9-6,15.9-5.6,24.6,0.3c42.9,29.1,86.1,57.8,129.4,86.3
				c8.1,5.4,11.6,11.8,11.2,21.5C352.5,173.5,353,186.7,353,199.9z M84,153.4c14.5,9.7,26.8,18.6,39.8,26.3
				c3.2,1.9,9.5,1.6,12.7-0.3c15-9.2,29.6-19.2,44.1-29.3c2.7-1.9,6-5.4,6.1-8.2c0.6-18.2,0.3-36.4,0.3-57.1
				C151.7,108.3,118.8,130.2,84,153.4z M316,153.4c-34.5-23-67.7-45.1-103.1-68.7c0,20.6-0.2,38.5,0.2,56.4c0.1,2.7,2.3,6.2,4.6,7.8
				c15.5,10.8,31.2,21.3,47.1,31.4c2.4,1.6,7.4,2,9.7,0.5C288,172.5,301,163.4,316,153.4z M187.1,315.2c0-20.8,0.3-38.7-0.3-56.6
				c-0.1-2.9-3-6.6-5.7-8.5c-14.8-10.3-29.8-20.4-45.1-30c-2.8-1.7-8.2-2.5-10.7-0.9c-13.5,8.3-26.5,17.4-41.4,27.3
				C118.5,269.4,151.4,291.4,187.1,315.2z M316,246.5c-14.9-9.9-27.9-19.1-41.4-27.3c-2.5-1.5-7.9-0.8-10.7,1
				c-15.3,9.6-30.3,19.7-45.1,30c-2.7,1.9-5.5,5.6-5.6,8.5c-0.5,17.9-0.3,35.8-0.3,56.5C248.2,291.6,281.3,269.6,316,246.5z
				 M153.7,199.9c15,10.1,28.1,19.1,41.6,27.6c2.2,1.4,6.6,1.7,8.7,0.4c13.8-8.7,27.2-18,42.3-28.1c-15-10-28.4-19.3-42.2-27.9
				c-2.3-1.4-7.2-0.7-9.7,0.8C181.2,181.1,168.4,190,153.7,199.9z M74.4,178.7c0,15,0,27.7,0,42.5c11.1-7.4,20.6-13.8,31.7-21.2
				C95.1,192.5,85.7,186.2,74.4,178.7z M325.8,178.5c-11.4,7.6-20.9,14-31.9,21.4c11.4,7.5,20.9,13.9,31.9,21.2
				C325.8,206.3,325.8,193.8,325.8,178.5z"/>
			<linearGradient id="SVGID_2_" gradientUnits="userSpaceOnUse" x1="45.8465" y1="200" x2="354.1528" y2="200">
				<stop  offset="0" style="stop-color:#7081F6"/>
				<stop  offset="0.1845" style="stop-color:#7481F6"/>
				<stop  offset="0.3738" style="stop-color:#807FF5"/>
				<stop  offset="0.5654" style="stop-color:#957DF4"/>
				<stop  offset="0.7585" style="stop-color:#B279F3"/>
				<stop  offset="0.9511" style="stop-color:#D675F1"/>
				<stop  offset="1" style="stop-color:#E174F1"/>
			</linearGradient>
			<path class="st1" d="M199.9,48c4.1,0,8.1,1.6,12.6,4.6c42.9,29.1,86.1,57.8,129.4,86.3c8.1,5.4,11.6,11.8,11.2,21.5
				c-0.6,13.1-0.1,26.3-0.1,39.5c0,13.6-0.3,27.2,0.1,40.8c0.3,8.7-2.7,14.7-10.1,19.5c-44,29-87.8,58.2-131.4,87.7
				c-4.1,2.8-7.8,4.1-11.5,4.1c-3.9,0-7.8-1.5-12.1-4.4c-43.3-29.2-86.8-58.2-130.4-87c-7.2-4.7-10.8-10.3-10.7-19.2
				c0.4-27.6,0.4-55.2,0-82.8c-0.1-8.9,3.4-14.5,10.6-19.3c43.6-28.8,87.1-57.7,130.4-87C192.2,49.4,196.1,48,199.9,48 M270.5,181.7
				c1.5,0,3-0.3,3.9-0.9c13.5-8.4,26.6-17.5,41.5-27.4c-34.5-23-67.7-45.1-103.1-68.7c0,20.6-0.2,38.5,0.2,56.4
				c0.1,2.7,2.3,6.2,4.6,7.8c15.5,10.8,31.2,21.3,47.1,31.4C266.2,181.2,268.4,181.7,270.5,181.7 M129.6,181c2.6,0,5.2-0.6,6.9-1.6
				c15-9.2,29.6-19.2,44.1-29.3c2.7-1.9,6-5.4,6.1-8.2c0.6-18.2,0.3-36.4,0.3-57.1c-35.3,23.5-68.2,45.5-103,68.6
				c14.5,9.7,26.8,18.6,39.8,26.3C125.3,180.6,127.5,181,129.6,181 M200.3,228.8c1.4,0,2.7-0.3,3.6-0.8c13.8-8.7,27.2-18,42.3-28.1
				c-15-10-28.4-19.3-42.2-27.9c-0.9-0.5-2.1-0.8-3.5-0.8c-2.2,0-4.7,0.6-6.3,1.6c-13.2,8.3-26,17.1-40.7,27.1
				c15,10.1,28.1,19.1,41.6,27.6C196.5,228.4,198.5,228.8,200.3,228.8 M325.8,221.2c0-14.8,0-27.4,0-42.6
				c-11.4,7.6-20.9,14-31.9,21.4C305.2,207.5,314.7,213.9,325.8,221.2 M74.4,221.2c11.1-7.4,20.6-13.8,31.7-21.2
				c-11.1-7.4-20.4-13.7-31.7-21.3C74.4,193.7,74.4,206.4,74.4,221.2 M212.9,315.2c35.3-23.5,68.5-45.6,103.1-68.7
				c-14.9-9.9-27.9-19.1-41.4-27.3c-0.9-0.6-2.3-0.8-3.7-0.8c-2.4,0-5.2,0.7-7,1.8c-15.3,9.6-30.3,19.7-45.1,30
				c-2.7,1.9-5.5,5.6-5.6,8.5C212.6,276.6,212.9,294.5,212.9,315.2 M187.1,315.2c0-20.8,0.3-38.7-0.3-56.6c-0.1-2.9-3-6.6-5.7-8.5
				c-14.8-10.3-29.8-20.4-45.1-30c-1.7-1.1-4.5-1.8-6.9-1.8c-1.5,0-2.8,0.3-3.8,0.8c-13.5,8.3-26.5,17.4-41.4,27.3
				C118.5,269.4,151.4,291.4,187.1,315.2 M199.9,47L199.9,47c-4.1,0-8,1.4-12.6,4.5c-44.8,30.3-89.1,59.8-130.4,87
				c-7.9,5.2-11.2,11.2-11.1,20.1c0.4,27.5,0.4,55.4,0,82.7c-0.1,8.8,3.2,14.8,11.2,20.1c51.2,33.9,92.7,61.5,130.4,87
				c4.6,3.1,8.6,4.6,12.6,4.6c3.8,0,7.8-1.4,12-4.3c39.2-26.5,82.2-55.2,131.4-87.7c7.6-5,10.9-11.3,10.6-20.4
				c-0.3-9.5-0.2-19.2-0.2-28.6c0-4,0.1-8.1,0.1-12.1c0-4,0-8-0.1-11.9c-0.1-9.1-0.2-18.4,0.2-27.6c0.4-9.9-3.2-16.8-11.7-22.4
				c-46.4-30.5-88.7-58.7-129.4-86.3C208.2,48.5,204,47,199.9,47L199.9,47z M270.5,180.7c-2,0-4-0.5-5.2-1.3
				c-14.7-9.4-30.1-19.6-47-31.4c-2.2-1.5-4.1-4.8-4.2-7c-0.3-13.4-0.3-26.9-0.2-41.3c0-4.3,0-8.7,0-13.2l46.2,30.8l54.1,36.1
				c-3.4,2.3-6.7,4.5-10,6.7c-10.4,7-20.2,13.7-30.3,19.9C273.2,180.5,271.9,180.7,270.5,180.7L270.5,180.7z M85.8,153.4l27.5-18.3
				L186,86.6c0,4.6,0,9,0,13.4c0,14.5,0.1,28.2-0.3,41.8c-0.1,2.3-3,5.6-5.7,7.4c-13.9,9.7-28.7,19.9-44,29.2
				c-1.5,0.9-3.9,1.5-6.4,1.5c-2.1,0-4-0.4-5.3-1.1c-9.4-5.6-18.5-11.8-28.2-18.4C92.8,158.1,89.4,155.8,85.8,153.4L85.8,153.4z
				 M155.5,199.9c3.5-2.3,6.8-4.6,10.1-6.8c10.1-6.8,19.7-13.3,29.4-19.4c1.4-0.9,3.7-1.5,5.7-1.5c1.2,0,2.3,0.2,2.9,0.6
				c10.3,6.4,20.3,13.2,31,20.3c3.2,2.2,6.6,4.4,9.9,6.7c-3.4,2.3-6.6,4.5-9.8,6.6c-10.8,7.3-20.9,14.1-31.2,20.6
				c-0.7,0.4-1.8,0.7-3.1,0.7c-1.7,0-3.5-0.4-4.5-1.1c-10-6.3-19.9-13-30.4-20.1C162.2,204.5,158.9,202.2,155.5,199.9L155.5,199.9z
				 M295.6,200l29.1-19.6v38.9l-23.5-15.6L295.6,200L295.6,200z M75.4,219.3v-38.7l28.9,19.4L75.4,219.3L75.4,219.3z M213.9,313.3
				c0-4.7,0-9.2,0-13.6c0-14.3-0.1-27.7,0.3-41c0.1-2.6,2.8-6,5.2-7.7c16.3-11.4,31.1-21.2,45-30c1.6-1,4.2-1.7,6.4-1.7
				c1.4,0,2.5,0.2,3.2,0.7c10,6.1,19.7,12.7,30,19.6c3.3,2.2,6.7,4.5,10.1,6.8l-65.1,43.4L213.9,313.3L213.9,313.3z M85.8,246.5
				c3.5-2.3,6.8-4.6,10.1-6.8c10.3-7,20-13.5,30-19.6c0.7-0.4,1.9-0.7,3.3-0.7c2.3,0,4.8,0.7,6.4,1.6c13.9,8.7,28.6,18.5,45,30
				c2.5,1.7,5.2,5.1,5.2,7.7c0.4,13.3,0.3,26.8,0.3,41c0,4.4,0,9,0,13.6L85.8,246.5L85.8,246.5z"/>
		</g>
	</g>
</g>
</svg>
