<?xml version="1.0" encoding="utf-8"?>
<!-- Generator: Adobe Illustrator 21.1.0, SVG Export Plug-In . SVG Version: 6.00 Build 0)  -->
<svg version="1.1" id="Layer_1" xmlns="http://www.w3.org/2000/svg" xmlns:xlink="http://www.w3.org/1999/xlink" x="0px" y="0px"
	 viewBox="0 0 400 400" style="enable-background:new 0 0 400 400;" xml:space="preserve">
<style type="text/css">
	.st0{fill:url(#SVGID_1_);}
	.st1{fill:url(#SVGID_2_);}
	.st2{fill:url(#SVGID_3_);}
	.st3{fill:url(#SVGID_4_);}
	.st4{fill:#F9FCFD;}
	.st5{fill:#01ACE5;}
	.st6{fill:url(#SVGID_5_);}
	.st7{fill:url(#SVGID_6_);}
	.st8{fill:url(#SVGID_7_);}
	.st9{fill:url(#SVGID_8_);}
	.st10{fill:url(#SVGID_9_);}
	.st11{fill:url(#SVGID_10_);}
	.st12{fill:url(#SVGID_11_);}
	.st13{fill:url(#SVGID_12_);}
	.st14{fill:url(#SVGID_13_);}
	.st15{fill:url(#SVGID_14_);}
</style>
<g id="MaDzAs.tif">
	<g>
		<g>
			<linearGradient id="SVGID_1_" gradientUnits="userSpaceOnUse" x1="152.6616" y1="248.8289" x2="357" y2="248.8289">
				<stop  offset="0" style="stop-color:#7081F6"/>
				<stop  offset="0.1845" style="stop-color:#7481F6"/>
				<stop  offset="0.3738" style="stop-color:#807FF5"/>
				<stop  offset="0.5654" style="stop-color:#957DF4"/>
				<stop  offset="0.7585" style="stop-color:#B279F3"/>
				<stop  offset="0.9511" style="stop-color:#D675F1"/>
				<stop  offset="1" style="stop-color:#E174F1"/>
			</linearGradient>
			<path class="st0" d="M215.8,175.3c0.9-1.3,1.3-1.9,1.7-2.6c7.7-12.4,18.6-20.9,32.1-26.3c15.4-6.1,31.3-6.4,47.5-3.9
				c11.2,1.8,21.8,5.2,31,12.1c10.1,7.6,16.8,17.6,21.1,29.4c4,11.1,6.1,22.7,6.8,34.5c0.5,8.7,1,17.4,1,26.2
				c0.1,35.9,0,71.8,0,107.7c0,4,0,4-4.1,4c-19.5,0-39-0.1-58.6,0.1c-2.8,0-3.5-0.8-3.5-3.6c0.1-35.8,0.1-71.6,0-107.4
				c0-8.9-0.8-17.8-3.7-26.4c-3.8-11.2-11.3-18.1-23.2-19.8c-7.9-1.1-15.8-0.7-23.3,2.4c-11,4.4-16.5,13.3-19.5,24.1
				c-2.3,8.3-2.7,16.9-2.8,25.4c0,33.7,0,67.4,0,101.1c0,4,0,4.1-4.1,4.1c-19.3,0-38.7-0.1-58,0.1c-2.7,0-3.6-0.7-3.6-3.5
				c0.1-67.8,0.1-135.5,0-203.3c0-2.8,0.8-3.6,3.6-3.6c18.6,0.1,37.2,0.1,55.8,0c2.8,0,3.7,0.8,3.6,3.6c-0.2,7.4-0.1,14.7-0.1,22.1
				C215.6,172.7,215.7,173.6,215.8,175.3z"/>
			<linearGradient id="SVGID_2_" gradientUnits="userSpaceOnUse" x1="151.6616" y1="248.8289" x2="357.9999" y2="248.8289">
				<stop  offset="0" style="stop-color:#7081F6"/>
				<stop  offset="0.1845" style="stop-color:#7481F6"/>
				<stop  offset="0.3738" style="stop-color:#807FF5"/>
				<stop  offset="0.5654" style="stop-color:#957DF4"/>
				<stop  offset="0.7585" style="stop-color:#B279F3"/>
				<stop  offset="0.9511" style="stop-color:#D675F1"/>
				<stop  offset="1" style="stop-color:#E174F1"/>
			</linearGradient>
			<path class="st1" d="M279,141.1c6,0,12,0.6,18.1,1.5c11.2,1.8,21.8,5.2,31,12.1c10.1,7.6,16.8,17.6,21.1,29.4
				c4,11.1,6.1,22.7,6.8,34.5c0.5,8.7,1,17.4,1,26.2c0.1,35.9,0,71.8,0,107.7c0,4,0,4-4.1,4c-0.2,0-0.4,0-0.6,0
				c-9.3,0-18.6,0-27.9,0c-10,0-20,0-30,0.1c0,0-0.1,0-0.1,0c-2.8,0-3.5-0.9-3.5-3.6c0.1-35.8,0.1-71.6,0-107.4
				c0-8.9-0.8-17.8-3.7-26.4c-3.8-11.2-11.3-18.1-23.2-19.8c-2.5-0.4-5.1-0.5-7.6-0.5c-5.3,0-10.6,0.9-15.7,2.9
				c-11,4.4-16.5,13.3-19.5,24.1c-2.3,8.3-2.7,16.9-2.8,25.4c0,33.7,0,67.4,0,101.1c0,4,0,4.1-4.1,4.1c-0.3,0-0.5,0-0.8,0
				c-9.1,0-18.2,0-27.4,0c-10,0-19.9,0-29.9,0.1c0,0-0.1,0-0.1,0c-2.7,0-3.5-0.7-3.5-3.5c0.1-67.8,0.1-135.5,0-203.3
				c0-2.8,0.8-3.6,3.5-3.6c0,0,0.1,0,0.1,0c9.3,0.1,18.6,0.1,27.9,0.1c9.3,0,18.6,0,27.9-0.1c0,0,0.1,0,0.1,0c2.7,0,3.6,0.8,3.5,3.6
				c-0.2,7.4-0.1,14.7-0.1,22.1c0,0.9,0.1,1.8,0.2,3.5c0.9-1.3,1.3-1.9,1.7-2.6c7.7-12.4,18.6-20.9,32.1-26.3
				C259.3,142.6,269.1,141.1,279,141.1 M279,140.1c-10.8,0-20.6,1.8-29.8,5.4c-14,5.6-25,14.6-32.6,26.7c0,0,0,0.1-0.1,0.1
				c0-0.2,0-0.3,0-0.5c0-1.9,0-3.8,0-5.7c0-5.4-0.1-10.9,0.1-16.3c0-1.2-0.1-2.6-1-3.6c-0.9-1-2.4-1.1-3.5-1.1l-0.1,0
				c-9.3,0.1-18.7,0.1-27.9,0.1c-9.3,0-18.7,0-27.9-0.1l-0.1,0c-1.1,0-2.6,0.1-3.5,1.1c-0.9,0.9-1,2.3-1,3.5
				c0.1,69.3,0.1,137.7,0,203.3c0,1.2,0.1,2.6,1,3.5c0.9,0.9,2.3,1,3.5,1l0.1,0c10.9-0.1,21.7-0.1,29.9-0.1c4.6,0,9.1,0,13.7,0
				c4.6,0,9.1,0,13.7,0l0.8,0c4.6,0,5.1-0.5,5.1-5.1c0-9.6,0-19.1,0-28.7c0-23.7,0-48.2,0-72.4c0-7.6,0.3-16.5,2.7-25.2
				c3.3-12.2,9.3-19.7,18.9-23.5c4.7-1.9,9.9-2.8,15.4-2.8c2.4,0,4.9,0.2,7.5,0.5c11.1,1.5,18.6,8,22.4,19.1
				c2.5,7.3,3.6,15.6,3.7,26c0.1,32.4,0.1,67.5,0,107.4c0,1.3,0.1,2.7,1,3.6c0.9,0.9,2.2,1,3.4,1l0.1,0c11-0.1,21.8-0.1,30-0.1
				c4.7,0,9.3,0,14,0c4.7,0,9.3,0,14,0l0.3,0h0.3c4.6,0,5.1-0.5,5.1-5c0-9.4,0-18.7,0-28.1c0-26.1,0-53.1-0.1-79.7
				c0-9-0.6-18.2-1-26.2c-0.7-12.7-3-24.1-6.8-34.8c-4.6-12.8-11.6-22.6-21.4-29.8c-8.5-6.3-18.7-10.3-31.5-12.3
				C290.7,140.6,284.8,140.1,279,140.1L279,140.1z"/>
		</g>
		<g>
			<linearGradient id="SVGID_3_" gradientUnits="userSpaceOnUse" x1="46.6315" y1="251.3568" x2="112.3959" y2="251.3568">
				<stop  offset="0" style="stop-color:#7081F6"/>
				<stop  offset="0.1845" style="stop-color:#7481F6"/>
				<stop  offset="0.3738" style="stop-color:#807FF5"/>
				<stop  offset="0.5654" style="stop-color:#957DF4"/>
				<stop  offset="0.7585" style="stop-color:#B279F3"/>
				<stop  offset="0.9511" style="stop-color:#D675F1"/>
				<stop  offset="1" style="stop-color:#E174F1"/>
			</linearGradient>
			<path class="st2" d="M112.3,251.6c0,33.7,0,67.4,0,101.1c0,3.8,0,3.8-3.8,3.8c-19.5,0-39,0-58.5,0.1c-2.7,0-3.4-0.7-3.4-3.4
				c0.1-67.8,0.1-135.7,0-203.5c0-2.9,0.9-3.5,3.6-3.5c19.5,0.1,39,0.1,58.5,0c2.8,0,3.6,0.8,3.6,3.6
				C112.3,183.7,112.3,217.7,112.3,251.6z"/>
			<linearGradient id="SVGID_4_" gradientUnits="userSpaceOnUse" x1="45.6315" y1="251.3568" x2="113.3959" y2="251.3568">
				<stop  offset="0" style="stop-color:#7081F6"/>
				<stop  offset="0.1845" style="stop-color:#7481F6"/>
				<stop  offset="0.3738" style="stop-color:#807FF5"/>
				<stop  offset="0.5654" style="stop-color:#957DF4"/>
				<stop  offset="0.7585" style="stop-color:#B279F3"/>
				<stop  offset="0.9511" style="stop-color:#D675F1"/>
				<stop  offset="1" style="stop-color:#E174F1"/>
			</linearGradient>
			<path class="st3" d="M108.9,146.1c2.7,0,3.5,0.8,3.5,3.6c-0.1,34-0.1,67.9-0.1,101.9c0,33.7,0,67.4,0,101.1c0,3.8,0,3.8-3.8,3.8
				c-0.6,0-1.1,0-1.7,0c-8.8,0-17.6,0-26.4,0c-10.2,0-20.3,0-30.5,0.1c0,0,0,0-0.1,0c-2.6,0-3.3-0.7-3.3-3.4
				c0.1-67.8,0.1-135.7,0-203.5c0-2.9,0.9-3.5,3.5-3.5c0,0,0.1,0,0.1,0c9.8,0,19.6,0.1,29.4,0.1C89.4,146.2,99.1,146.2,108.9,146.1
				C108.8,146.1,108.8,146.1,108.9,146.1 M108.9,145.1L108.9,145.1c-9.7,0.1-19.5,0.1-29.2,0.1c-9.6,0-19.5,0-29.4-0.1l-0.1,0
				c-1.3,0-2.6,0.1-3.5,1c-0.9,0.9-1,2.3-1,3.5c0.1,65,0.1,133.5,0,203.5c0,1.2,0.1,2.5,1,3.4c0.9,0.9,2.2,1,3.3,1l0.1,0
				c11.1-0.1,22.1-0.1,30.5-0.1c4.4,0,8.8,0,13.2,0c4.4,0,8.8,0,13.2,0l1.7,0c4.3,0,4.8-0.4,4.8-4.8c0-25.7,0-51.3,0-77l0-24.1
				l0-20.9c0-26.5,0-54,0.1-81c0-1.2-0.1-2.6-1-3.6C111.4,145.3,110,145.1,108.9,145.1L108.9,145.1z"/>
		</g>
		<g>
			<linearGradient id="SVGID_5_" gradientUnits="userSpaceOnUse" x1="41.5678" y1="80.2111" x2="117.992" y2="80.2111">
				<stop  offset="0" style="stop-color:#7081F6"/>
				<stop  offset="0.1845" style="stop-color:#7481F6"/>
				<stop  offset="0.3738" style="stop-color:#807FF5"/>
				<stop  offset="0.5654" style="stop-color:#957DF4"/>
				<stop  offset="0.7585" style="stop-color:#B279F3"/>
				<stop  offset="0.9511" style="stop-color:#D675F1"/>
				<stop  offset="1" style="stop-color:#E174F1"/>
			</linearGradient>
			<path class="st6" d="M79.9,42c20.9,0.2,37.9,16.7,38.1,38.2c0.2,21.1-17.5,38.4-38.6,38.2c-20.7-0.2-38.6-17.5-37.8-40
				C42.3,58.5,59.5,41.8,79.9,42z"/>
			<linearGradient id="SVGID_6_" gradientUnits="userSpaceOnUse" x1="40.5679" y1="80.2111" x2="118.9921" y2="80.2111">
				<stop  offset="0" style="stop-color:#7081F6"/>
				<stop  offset="0.1845" style="stop-color:#7481F6"/>
				<stop  offset="0.3738" style="stop-color:#807FF5"/>
				<stop  offset="0.5654" style="stop-color:#957DF4"/>
				<stop  offset="0.7585" style="stop-color:#B279F3"/>
				<stop  offset="0.9511" style="stop-color:#D675F1"/>
				<stop  offset="1" style="stop-color:#E174F1"/>
			</linearGradient>
			<path class="st7" d="M79.5,42c0.1,0,0.2,0,0.4,0c20.9,0.2,37.9,16.7,38.1,38.2c0.2,21-17.4,38.2-38.3,38.2c-0.1,0-0.2,0-0.3,0
				c-20.7-0.2-38.6-17.5-37.8-40C42.3,58.7,59.3,42,79.5,42 M79.5,41L79.5,41c-10,0-19.6,3.9-27,11.1C45.2,59.2,41,68.5,40.6,78.4
				c-0.4,10.9,3.5,21.2,10.9,28.9c7.3,7.6,17.5,12,27.9,12.1l0.3,0c10.4,0,20.7-4.3,28.1-11.8c7.4-7.4,11.4-17.2,11.3-27.5
				c-0.2-21.8-17.4-39-39.1-39.2L79.5,41L79.5,41z"/>
		</g>
	</g>
</g>
</svg>
