<?xml version="1.0" encoding="utf-8"?>
<!-- Generator: Adobe Illustrator 21.1.0, SVG Export Plug-In . SVG Version: 6.00 Build 0)  -->
<svg version="1.1" id="Layer_1" xmlns="http://www.w3.org/2000/svg" xmlns:xlink="http://www.w3.org/1999/xlink" x="0px" y="0px"
	 viewBox="0 0 400 400" style="enable-background:new 0 0 400 400;" xml:space="preserve">
<style type="text/css">
	.st0{fill:url(#SVGID_1_);}
	.st1{fill:url(#SVGID_2_);}
	.st2{fill:url(#SVGID_3_);}
	.st3{fill:url(#SVGID_4_);}
	.st4{fill:#F9FCFD;}
	.st5{fill:#01ACE5;}
	.st6{fill:url(#SVGID_5_);}
	.st7{fill:url(#SVGID_6_);}
	.st8{fill:url(#SVGID_7_);}
	.st9{fill:url(#SVGID_8_);}
	.st10{fill:url(#SVGID_9_);}
	.st11{fill:url(#SVGID_10_);}
	.st12{fill:url(#SVGID_11_);}
	.st13{fill:url(#SVGID_12_);}
	.st14{fill:url(#SVGID_13_);}
	.st15{fill:url(#SVGID_14_);}
</style>
<g id="yJ26Z7.tif">
	<g>
		<g>
			<linearGradient id="SVGID_1_" gradientUnits="userSpaceOnUse" x1="126.1975" y1="200" x2="273.8025" y2="200">
				<stop  offset="0" style="stop-color:#7081F6"/>
				<stop  offset="0.1845" style="stop-color:#7481F6"/>
				<stop  offset="0.3738" style="stop-color:#807FF5"/>
				<stop  offset="0.5654" style="stop-color:#957DF4"/>
				<stop  offset="0.7585" style="stop-color:#B279F3"/>
				<stop  offset="0.9511" style="stop-color:#D675F1"/>
				<stop  offset="1" style="stop-color:#E174F1"/>
			</linearGradient>
			<path class="st0" d="M273.7,42c-0.1,1-0.2,2-0.2,3c0,16.2,0,32.5,0,48.7c0,2.3-0.7,2.8-2.9,2.8c-8.8-0.1-17.7-0.1-26.5,0.1
				c-3,0.1-6,0.5-9,1.1c-5.6,1-9.6,5.6-9.9,11.8c-0.4,11.4-0.4,22.9-0.6,34.3c0,2.1,1.4,1.7,2.6,1.7c14.4,0,28.8,0,43.1,0
				c1,0,2,0,3.3,0c-1.9,18.4-3.8,36.3-5.7,54.4c-14.4,0-28.6,0-43.2,0c0,1.3,0,2.3,0,3.4c0,50.5,0,101.1-0.1,151.6c0,1-0.1,2-0.1,3
				c-19.7,0-39.4,0-59.1,0c0-4.7,0.1-9.4,0.1-14.1c0-46.6,0-93.2,0-139.8c0-1.2,0-2.5,0-4c-13.2,0-26.2,0-39.4,0
				c-0.1-1.1-0.1-1.9-0.1-2.7c0-16.3,0-32.6-0.1-49c0-2.3,0.7-2.8,2.9-2.8c11.3,0.1,22.5,0,33.8,0.1c2.4,0,2.9-0.8,2.9-3
				c0.1-14.6,0-29.3,0.5-43.9c0.4-10.6,2.6-21,7.5-30.6c5.4-10.6,13.8-17.7,25-21.3c6.2-2,12.8-2.8,19.2-4.2
				c0.9-0.2,1.8-0.4,2.7-0.6C238.4,42,256.1,42,273.7,42z"/>
			<linearGradient id="SVGID_2_" gradientUnits="userSpaceOnUse" x1="125.1974" y1="200" x2="274.9135" y2="200">
				<stop  offset="0" style="stop-color:#7081F6"/>
				<stop  offset="0.1845" style="stop-color:#7481F6"/>
				<stop  offset="0.3738" style="stop-color:#807FF5"/>
				<stop  offset="0.5654" style="stop-color:#957DF4"/>
				<stop  offset="0.7585" style="stop-color:#B279F3"/>
				<stop  offset="0.9511" style="stop-color:#D675F1"/>
				<stop  offset="1" style="stop-color:#E174F1"/>
			</linearGradient>
			<path class="st1" d="M273.7,42c-0.1,1-0.2,2-0.2,3c0,16.2,0,32.5,0,48.7c0,2.2-0.6,2.8-2.7,2.8c0,0-0.1,0-0.1,0
				c-3.5,0-7.1-0.1-10.7-0.1c-5.3,0-10.6,0-15.8,0.1c-3,0.1-6,0.5-9,1.1c-5.6,1-9.6,5.6-9.9,11.8c-0.4,11.4-0.4,22.9-0.6,34.3
				c0,1.6,0.7,1.8,1.6,1.8c0.3,0,0.6,0,0.9,0c0,0,0,0,0,0c8.2,0,16.4,0,24.6,0c6.2,0,12.4,0,18.6,0c1,0,2,0,3.3,0
				c-1.9,18.4-3.8,36.3-5.7,54.4c-14.4,0-28.6,0-43.2,0c0,1.3,0,2.3,0,3.4c0,50.5,0,101.1-0.1,151.6c0,1-0.1,2-0.1,3
				c-19.7,0-39.4,0-59.1,0c0-4.7,0.1-9.4,0.1-14.1c0-46.6,0-93.2,0-139.8c0-1.2,0-2.5,0-4c-13.2,0-26.2,0-39.4,0
				c-0.1-1.1-0.1-1.9-0.1-2.7c0-16.3,0-32.6-0.1-49c0-2.2,0.6-2.8,2.8-2.8c0,0,0.1,0,0.1,0c3.8,0,7.5,0,11.3,0c3.2,0,6.5,0,9.7,0
				c4.3,0,8.5,0,12.8,0.1c0,0,0.1,0,0.1,0c2.3,0,2.8-0.8,2.8-3c0.1-14.6,0-29.3,0.5-43.9c0.4-10.6,2.6-21,7.5-30.6
				c5.4-10.6,13.8-17.7,25-21.3c6.2-2,12.8-2.8,19.2-4.2c0.9-0.2,1.8-0.4,2.7-0.6C238.4,42,256.1,42,273.7,42 M274.8,41h-1.1h-53
				h-0.1l-0.1,0l-0.8,0.2c-0.6,0.1-1.2,0.3-1.8,0.4c-2,0.4-4,0.8-6,1.2c-4.4,0.8-8.9,1.7-13.3,3c-11.4,3.6-20.1,11-25.6,21.8
				c-4.7,9.1-7.2,19.5-7.7,31c-0.4,12-0.5,24.1-0.5,35.9c0,2.7,0,5.4,0,8c0,1.8-0.2,2-1.8,2l-0.1,0c-4.6,0-9-0.1-12.8-0.1l-4.9,0
				l-4.9,0c-3.1,0-7.2,0-11.3,0l-0.1,0c-1,0-2.1,0.1-2.9,0.9c-0.8,0.8-0.9,1.9-0.9,2.9c0.1,11.8,0.1,23.8,0.1,35.4c0,4.5,0,9,0,13.5
				c0,0.6,0,1.1,0.1,1.8c0,0.3,0,0.7,0.1,1l0.1,0.9h0.9h38.4v3l0,31.7c0,36,0,72.1,0,108.1c0,3.2,0,6.4,0,9.6l0,4.5l0,1h1h59.1h1
				l0-1c0-0.3,0-0.6,0-1c0-0.7,0.1-1.4,0.1-2.1c0-46.2,0-92.4,0.1-138.7l0-13l0-2.2l0-0.2h42.2h0.9l0.1-0.9l4.1-38.8l1.6-15.6
				l0.1-1.1h-1.1h-3.3l-9,0l-9.6,0c-8.2,0-16.4,0-24.6,0c-0.2,0-0.3,0-0.5,0c-0.1,0-0.3,0-0.4,0c-0.5,0-0.5-0.1-0.5-0.1
				c0,0-0.1-0.1-0.1-0.7c0.1-4,0.1-8,0.2-11.9c0.1-7.3,0.2-14.9,0.4-22.4c0.2-5.6,3.8-9.9,9-10.9c2.6-0.5,5.7-1,8.8-1.1
				c5.1-0.1,10.4-0.1,15.8-0.1c3.4,0,7,0,10.6,0.1l0.1,0c1,0,2.1-0.1,2.9-0.9c0.8-0.8,0.9-1.9,0.9-2.9c-0.1-13.2-0.1-26.7-0.1-39.7
				l0-9c0-0.6,0-1.3,0.1-2c0-0.3,0-0.6,0.1-1L274.8,41L274.8,41z"/>
		</g>
	</g>
</g>
</svg>
