<?xml version="1.0" encoding="utf-8"?>
<!-- Generator: Adobe Illustrator 21.1.0, SVG Export Plug-In . SVG Version: 6.00 Build 0)  -->
<svg version="1.1" id="Layer_1" xmlns="http://www.w3.org/2000/svg" xmlns:xlink="http://www.w3.org/1999/xlink" x="0px" y="0px"
	 viewBox="0 0 400 400" style="enable-background:new 0 0 400 400;" xml:space="preserve">
<style type="text/css">
	.st0{fill:url(#SVGID_1_);}
	.st1{fill:url(#SVGID_2_);}
	.st2{fill:url(#SVGID_3_);}
	.st3{fill:url(#SVGID_4_);}
	.st4{fill:#F9FCFD;}
	.st5{fill:#01ACE5;}
	.st6{fill:url(#SVGID_5_);}
	.st7{fill:url(#SVGID_6_);}
	.st8{fill:url(#SVGID_7_);}
	.st9{fill:url(#SVGID_8_);}
	.st10{fill:url(#SVGID_9_);}
	.st11{fill:url(#SVGID_10_);}
	.st12{fill:url(#SVGID_11_);}
	.st13{fill:url(#SVGID_12_);}
	.st14{fill:url(#SVGID_13_);}
	.st15{fill:url(#SVGID_14_);}
</style>
<g id="gxJpnV.tif">
	<g>
		<g>
			<linearGradient id="SVGID_1_" gradientUnits="userSpaceOnUse" x1="3" y1="200" x2="397" y2="200">
				<stop  offset="0" style="stop-color:#7081F6"/>
				<stop  offset="0.1845" style="stop-color:#7481F6"/>
				<stop  offset="0.3738" style="stop-color:#807FF5"/>
				<stop  offset="0.5654" style="stop-color:#957DF4"/>
				<stop  offset="0.7585" style="stop-color:#B279F3"/>
				<stop  offset="0.9511" style="stop-color:#D675F1"/>
				<stop  offset="1" style="stop-color:#E174F1"/>
			</linearGradient>
			<path class="st0" d="M192.6,61.9c53.1,0.3,98.1,0.9,142.9,3.8c10,0.6,19.8,2,28.8,6.8c13,6.9,20.5,18,24.8,31.7
				c4.5,14.2,5.8,28.8,6.4,43.4c1.8,41.4,2.5,82.9-1.6,124.2c-1.1,11.1-3.6,21.8-8,32.1c-7.2,16.5-20.1,26.2-37.5,28.5
				c-16.8,2.2-33.7,2.9-50.6,3.6c-47.3,2-94.6,2.5-141.9,1.4c-27.8-0.7-55.6-1.7-83.4-2.9c-7.4-0.3-14.9-1.4-22.2-2.8
				c-20.1-3.8-33-15.7-39-35.3c-3-9.9-4.7-20-5.6-30.3c-3.5-39.9-3.1-79.8-1-119.7c0.8-14.4,2.2-28.8,6.5-42.8
				C18.4,80.2,35.8,68,57.3,66.6c23.9-1.6,47.8-2.8,71.7-3.5C152.9,62.2,176.9,62.2,192.6,61.9z M160.4,254.5
				c35.2-18.3,69.8-36.3,105.1-54.7c-35.4-18.4-70-36.5-105.1-54.8C160.4,181.8,160.4,217.7,160.4,254.5z"/>
			<linearGradient id="SVGID_2_" gradientUnits="userSpaceOnUse" x1="1.9961" y1="200" x2="397.9938" y2="200">
				<stop  offset="0" style="stop-color:#7081F6"/>
				<stop  offset="0.1845" style="stop-color:#7481F6"/>
				<stop  offset="0.3738" style="stop-color:#807FF5"/>
				<stop  offset="0.5654" style="stop-color:#957DF4"/>
				<stop  offset="0.7585" style="stop-color:#B279F3"/>
				<stop  offset="0.9511" style="stop-color:#D675F1"/>
				<stop  offset="1" style="stop-color:#E174F1"/>
			</linearGradient>
			<path class="st1" d="M192.6,61.9c53.1,0.3,98.1,0.9,142.9,3.8c10,0.6,19.8,2,28.8,6.8c13,6.9,20.5,18,24.8,31.7
				c4.5,14.2,5.8,28.8,6.4,43.4c1.8,41.4,2.5,82.9-1.6,124.2c-1.1,11.1-3.6,21.8-8,32.1c-7.2,16.5-20.1,26.2-37.5,28.5
				c-16.8,2.2-33.7,2.9-50.6,3.6c-31,1.3-61.9,2-92.9,2c-16.3,0-32.7-0.2-49-0.6c-27.8-0.7-55.6-1.7-83.4-2.9
				c-7.4-0.3-14.9-1.4-22.2-2.8c-20.1-3.8-33-15.7-39-35.3c-3-9.9-4.7-20-5.6-30.3c-3.5-39.9-3.1-79.8-1-119.7
				c0.8-14.4,2.2-28.8,6.5-42.8C18.4,80.2,35.8,68,57.3,66.6c23.9-1.6,47.8-2.8,71.7-3.5C152.9,62.2,176.9,62.2,192.6,61.9
				 M160.4,254.5c35.2-18.3,69.8-36.3,105.1-54.7c-35.4-18.4-70-36.5-105.1-54.8C160.4,181.8,160.4,217.7,160.4,254.5 M192.6,60.9
				L192.6,60.9c-4.4,0.1-9.5,0.1-14.8,0.2c-14.1,0.2-31.5,0.4-48.8,0.9c-25.9,0.8-49.3,2-71.8,3.5C46,66.3,36.3,69.9,28.3,76.1
				c-8.4,6.5-14.5,15.7-18.1,27.3c-4.6,14.9-5.9,30.1-6.6,43c-2.4,46.1-2.1,84.2,1,119.8c1,11.3,2.8,21.3,5.7,30.6
				c6.1,20,19.5,32.1,39.8,36c8.6,1.6,15.7,2.5,22.4,2.8c33.4,1.4,59.1,2.3,83.4,2.9c16.1,0.4,32.6,0.6,49.1,0.6
				c30.2,0,61.5-0.7,92.9-2c15.7-0.7,33.5-1.4,50.7-3.6c17.8-2.3,31-12.4,38.3-29.1c4.3-9.8,6.9-20.4,8.1-32.4
				c4.3-43.4,3.2-87.2,1.6-124.4c-0.6-14-1.8-29-6.5-43.7c-4.8-15.3-13.1-25.8-25.3-32.3c-9.4-5-19.6-6.3-29.2-6.9
				C292.9,62,250.8,61.2,192.6,60.9L192.6,60.9L192.6,60.9z M161.4,252.8V146.6l101.9,53.1l-66.1,34.4L161.4,252.8L161.4,252.8z"/>
		</g>
	</g>
</g>
</svg>
