<?xml version="1.0" encoding="utf-8"?>
<!-- Generator: Adobe Illustrator 21.1.0, SVG Export Plug-In . SVG Version: 6.00 Build 0)  -->
<svg version="1.1" id="Layer_1" xmlns="http://www.w3.org/2000/svg" xmlns:xlink="http://www.w3.org/1999/xlink" x="0px" y="0px"
	 viewBox="0 0 400 400" style="enable-background:new 0 0 400 400;" xml:space="preserve">
<style type="text/css">
	.st0{fill:url(#SVGID_1_);}
	.st1{fill:url(#SVGID_2_);}
	.st2{fill:url(#SVGID_3_);}
	.st3{fill:url(#SVGID_4_);}
	.st4{fill:#F9FCFD;}
	.st5{fill:#01ACE5;}
	.st6{fill:url(#SVGID_5_);}
	.st7{fill:url(#SVGID_6_);}
	.st8{fill:url(#SVGID_7_);}
	.st9{fill:url(#SVGID_8_);}
	.st10{fill:url(#SVGID_9_);}
	.st11{fill:url(#SVGID_10_);}
	.st12{fill:url(#SVGID_11_);}
	.st13{fill:url(#SVGID_12_);}
	.st14{fill:url(#SVGID_13_);}
	.st15{fill:url(#SVGID_14_);}
</style>
<g id="_x30_YrcVS.tif">
	<g>
		<g>
			<linearGradient id="SVGID_1_" gradientUnits="userSpaceOnUse" x1="5.6986" y1="200" x2="394.3014" y2="200">
				<stop  offset="0" style="stop-color:#7081F6"/>
				<stop  offset="0.1845" style="stop-color:#7481F6"/>
				<stop  offset="0.3738" style="stop-color:#807FF5"/>
				<stop  offset="0.5654" style="stop-color:#957DF4"/>
				<stop  offset="0.7585" style="stop-color:#B279F3"/>
				<stop  offset="0.9511" style="stop-color:#D675F1"/>
				<stop  offset="1" style="stop-color:#E174F1"/>
			</linearGradient>
			<path class="st0" d="M261.2,42c8.2,0,16.4,0,24.6,0c1.3,3,4,1.7,6.2,1.8c13.5,3.9,26.6,8.8,36.9,18.7c4.6,4.4,9,5,14.7,3.5
				c13.2-3.5,25.6-9,38-14.5c0.8,0.6,1.5,1.1,2.3,1.7c-4.4,13.9-14.2,23.9-24.2,33.8c-1.8,1.1-3.5,2.3-5.3,3.4
				c1.8,1.4,3.7,0.9,5.6,0.3c11.1-0.5,21.1-6.1,34.3-7.9c-5.7,9.1-10.6,16.5-17.6,21c-17.1,11-20.1,26.7-21.3,45.7
				c-6,97.6-78.4,181.2-173.5,202.8c-7.8,1.8-16.1,1.4-23.3,5.7c-21.9,0-43.8,0-65.7,0c-1.7-4-5.7-3.2-8.8-3.8
				c-15.9-3-31.2-7.5-46-13.8c-10.4-4.4-20.9-8.9-32.4-17.6c43.7,2.9,81-6.8,116-32.6c-36.3-4.7-60.9-21.6-73.8-55
				c11-0.7,21.2,1.7,31.9-2.1c-42.5-19.9-62.4-46.1-59.8-78.4c10.4,3.6,20.4,8.9,33.3,7.9c-3.6-3.2-6.1-5.4-8.5-7.7
				c-24.5-23.3-31.7-59.5-18.1-89.5c2.7-6.1,4.2-8.2,9.8-1.9c40,44.7,90.4,69.6,149.9,76.4c7.7,0.9,10.3,0,9.5-9.2
				c-3.8-40.6,19.1-73.1,58.6-85.2C256.8,44.9,260.1,45.3,261.2,42z"/>
			<linearGradient id="SVGID_2_" gradientUnits="userSpaceOnUse" x1="2.4186" y1="200" x2="396.2883" y2="200">
				<stop  offset="0" style="stop-color:#7081F6"/>
				<stop  offset="0.1845" style="stop-color:#7481F6"/>
				<stop  offset="0.3738" style="stop-color:#807FF5"/>
				<stop  offset="0.5654" style="stop-color:#957DF4"/>
				<stop  offset="0.7585" style="stop-color:#B279F3"/>
				<stop  offset="0.9511" style="stop-color:#D675F1"/>
				<stop  offset="1" style="stop-color:#E174F1"/>
			</linearGradient>
			<path class="st1" d="M285.8,42c0.8,1.7,1.9,2,3.2,2c0.9,0,1.8-0.2,2.7-0.2c0.1,0,0.2,0,0.3,0c13.5,3.9,26.6,8.8,36.9,18.7
				c3.1,3,6.1,4.2,9.6,4.2c1.6,0,3.3-0.3,5.1-0.8c13.2-3.5,25.6-9,38-14.5c0.8,0.6,1.5,1.1,2.3,1.7c-4.4,13.9-14.2,23.9-24.2,33.8
				c-1.8,1.1-3.5,2.3-5.3,3.4c0.8,0.7,1.7,0.9,2.6,0.9c1,0,2-0.3,3-0.6c11.1-0.5,21.1-6.1,34.3-7.9c-5.7,9.1-10.6,16.5-17.6,21
				c-17.1,11-20.1,26.7-21.3,45.7c-6,97.6-78.4,181.2-173.5,202.8c-7.8,1.8-16.1,1.4-23.3,5.7c-21.9,0-43.8,0-65.7,0
				c-1.7-4-5.7-3.2-8.8-3.8c-15.9-3-31.2-7.5-46-13.8c-10.4-4.4-20.9-8.9-32.4-17.6c5,0.3,9.8,0.5,14.6,0.5
				c37.5,0,70.3-10.2,101.4-33.1c-36.3-4.7-60.9-21.6-73.8-55c1.7-0.1,3.3-0.2,5-0.2c4,0,8,0.2,11.9,0.2c5,0,10-0.4,15.1-2.2
				c-42.5-19.9-62.4-46.1-59.8-78.4c9.6,3.3,18.8,8,30.3,8c1,0,2,0,3-0.1c-3.6-3.2-6.1-5.4-8.5-7.7c-24.5-23.3-31.7-59.5-18.1-89.5
				c1.6-3.5,2.7-5.7,4.5-5.7c1.3,0,2.9,1.2,5.3,3.8c40,44.7,90.4,69.6,149.9,76.4c1.4,0.2,2.7,0.3,3.8,0.3c4.8,0,6.4-2,5.7-9.4
				c-3.8-40.6,19.1-73.1,58.6-85.2c2.4-0.7,5.7-0.3,6.8-3.7C269.4,42,277.6,42,285.8,42 M286.5,41h-0.6h-24.6h-0.7l-0.2,0.7
				c-0.6,1.9-2,2.2-4.2,2.6c-0.6,0.1-1.3,0.2-2,0.4c-40.3,12.3-63,45.4-59.3,86.2c0.4,3.9,0.1,6.1-0.9,7.2c-0.7,0.8-1.9,1.1-3.8,1.1
				c-1,0-2.1-0.1-3.7-0.3c-29.8-3.4-57.3-11.5-81.9-23.9c-25-12.7-47.7-30.2-67.3-52.2c-2.6-2.9-4.4-4.2-6-4.2
				c-2.4,0-3.7,2.5-5.4,6.3c-13.8,30.7-6.4,67.1,18.4,90.7c1.6,1.5,3.3,3,5.2,4.7c0.5,0.4,1,0.9,1.5,1.3c-0.2,0-0.3,0-0.5,0
				c-8.7,0-16.1-2.8-23.4-5.6c-2.1-0.8-4.3-1.7-6.5-2.4l-1.2-0.4l-0.1,1.3c-2.6,32,16.9,58.4,58,78.3c-4.5,1.2-8.7,1.4-12.3,1.4
				c-1.9,0-3.9-0.1-5.8-0.1c-2-0.1-4-0.1-6-0.1c-1.8,0-3.5,0.1-5,0.2l-1.4,0.1l0.5,1.3c6.4,16.8,15.8,29.5,28.4,38.7
				c11.7,8.6,26,14,43.7,16.6c-14.8,10.6-29.9,18.3-46,23.5c-16.5,5.3-33.8,7.9-52.8,7.9c-4.7,0-9.6-0.2-14.6-0.5l-3.3-0.2l2.7,2
				c11.6,8.7,22.3,13.3,32.6,17.7l0.1,0c14.7,6.2,30.2,10.9,46.2,13.9c0.7,0.1,1.5,0.2,2.3,0.3c2.5,0.2,4.7,0.4,5.8,2.9l0.3,0.6H93
				h65.7h0.3l0.2-0.1c4.7-2.8,9.9-3.5,15.4-4.3c2.5-0.3,5.1-0.7,7.6-1.3c23.5-5.3,45.9-14.5,66.7-27.2c20.3-12.4,38.4-27.9,54-46
				c15.6-18.2,28.1-38.5,37.2-60.3c9.4-22.5,14.9-46.1,16.4-70.1c1.1-17.3,3.5-33.7,20.8-44.9c7-4.5,11.8-11.7,17.9-21.3l1.1-1.8
				l-2.1,0.3c-6.2,0.8-11.7,2.5-17,4.1c-5.9,1.8-11.4,3.5-17.2,3.7l-0.1,0l-0.1,0c-0.9,0.3-1.8,0.6-2.7,0.6c-0.2,0-0.4,0-0.6,0
				l3.8-2.5l0.1-0.1l0.1-0.1c11.3-11.1,20.2-20.6,24.5-34.2l0.2-0.7l-0.6-0.4l-1.1-0.8l-1.1-0.8l-0.5-0.3l-0.5,0.2l-2.1,0.9
				c-11.5,5-23.4,10.2-35.8,13.5c-1.8,0.5-3.4,0.7-4.9,0.7c-3.3,0-6-1.2-8.9-3.9c-10.5-10.2-24.2-15.1-37.3-19l-0.1,0l-0.1,0
				c-0.1,0-0.2,0-0.3,0c-0.5,0-1,0-1.5,0.1c-0.4,0-0.9,0.1-1.3,0.1c-1,0-1.7-0.2-2.3-1.4L286.5,41L286.5,41z"/>
		</g>
		<path class="st4" d="M292,42c0,0.6,0,1.2,0,1.8c-2.2-0.1-4.8,1.1-6.2-1.8C287.9,42,289.9,42,292,42z"/>
		<path class="st4" d="M359.7,87c0.1,1.3,0.2,2.5,0.3,3.8c-1.9,0.6-3.8,1.1-5.6-0.3C356.2,89.3,357.9,88.2,359.7,87z"/>
		<path class="st5" d="M381.6,51.6c0.7-0.3,1.4-0.5,2.1-0.8c0.1,0.8,0.1,1.6,0.2,2.5C383.1,52.7,382.4,52.1,381.6,51.6z"/>
	</g>
</g>
</svg>
