<?xml version="1.0" encoding="utf-8"?>
<!-- Generator: Adobe Illustrator 21.1.0, SVG Export Plug-In . SVG Version: 6.00 Build 0)  -->
<svg version="1.1" id="Layer_1" xmlns="http://www.w3.org/2000/svg" xmlns:xlink="http://www.w3.org/1999/xlink" x="0px" y="0px"
	 viewBox="0 0 874 400" style="enable-background:new 0 0 874 400;" xml:space="preserve">
<style type="text/css">
	.st0{fill:url(#SVGID_1_);}
	.st1{fill:url(#SVGID_2_);}
	.st2{fill:url(#SVGID_3_);}
	.st3{fill:url(#SVGID_4_);}
	.st4{fill:url(#SVGID_5_);}
	.st5{fill:url(#SVGID_6_);}
	.st6{fill:url(#SVGID_7_);}
	.st7{fill:url(#SVGID_8_);}
	.st8{fill:url(#SVGID_9_);}
	.st9{fill:#FFFFFF;
	animation: mover 1s ease forwards .4s;
	}
	@keyframes mover{
		0%{
		transform:translateX(0px);
		}
		100%{
		transform:translateX(900px);
		}
	}
</style>
<g>
	<g>
		<linearGradient id="SVGID_1_" gradientUnits="userSpaceOnUse" x1="9.126" y1="186.1257" x2="133.8442" y2="186.1257">
			<stop  offset="0" style="stop-color:#7081F6"/>
			<stop  offset="0.1845" style="stop-color:#7481F6"/>
			<stop  offset="0.3738" style="stop-color:#807FF5"/>
			<stop  offset="0.5654" style="stop-color:#957DF4"/>
			<stop  offset="0.7585" style="stop-color:#B279F3"/>
			<stop  offset="0.9511" style="stop-color:#D675F1"/>
			<stop  offset="1" style="stop-color:#E174F1"/>
		</linearGradient>
		<path class="st0" d="M71.8,138.6c0-2.1,0.2-4.2,0.5-6.1c-32.8,6.1-52.9,37-52.9,70c0,33.5,19.7,60.4,55.2,60.4
			c20.8,0,37-7.7,46.1-21.1c0.9-1.4,2.8-2.3,4.4-2.3c2.6,0,4.9,2.3,4.9,5.4c0,3.7-16.1,28.1-55.5,28.1c-41.4,0-65.5-30.4-65.5-70.4
			c0-40.9,26.7-76.3,66-80.3c6.1-14.7,19.4-22.9,33.9-22.9c4.9,0,13.3,0.5,13.3,6.3c0,3-2.3,4.7-5.1,4.7c-1.2,0-6.8-0.9-8.2-0.9
			c-8.4,0-16.8,3.3-22,12.6c30,1.6,46.8,21.3,46.8,41.4c0,13.1-8.4,24.3-24.3,24.3c-8.2,0-16.6-4-23.4-10.8
			C76.8,167.9,71.8,153.8,71.8,138.6z M123.1,163.4c0-15.9-14.5-31.1-40-31.8c-0.5,2.1-0.7,4.4-0.7,7c0,25.5,16.1,39.1,27.1,39.1
			C121.9,177.7,123.1,167.6,123.1,163.4z"/>
	</g>
	<g>
		<linearGradient id="SVGID_2_" gradientUnits="userSpaceOnUse" x1="149.9932" y1="230.1162" x2="215.5112" y2="230.1162">
			<stop  offset="0" style="stop-color:#7081F6"/>
			<stop  offset="0.1845" style="stop-color:#7481F6"/>
			<stop  offset="0.3738" style="stop-color:#807FF5"/>
			<stop  offset="0.5654" style="stop-color:#957DF4"/>
			<stop  offset="0.7585" style="stop-color:#B279F3"/>
			<stop  offset="0.9511" style="stop-color:#D675F1"/>
			<stop  offset="1" style="stop-color:#E174F1"/>
		</linearGradient>
		<path class="st1" d="M215.5,220.1c0,25-14.7,51.9-38.6,51.9c-16.1,0-26.9-14.3-26.9-36c0-6.6,0.9-12.6,3.3-19
			c0.7-2.1,2.8-3.7,4.9-3.7c2.8,0,4.9,2.6,4.9,5.1c0,0.9-0.2,1.6-0.5,2.3c-1.4,3.5-2.1,10.1-2.1,15c0,12.2,4.9,26.4,16.8,26.4
			c16.8,0,27.6-22.2,27.6-42.1c0-9.4-3.7-22-15-22c-8.9,0-11.9,7.5-11.9,13.1c0,9.4,7,9.4,11,9.4c3,0,5.4,2.3,5.4,5.1
			c0,1.4-0.5,5.1-6.3,5.1c-13.6,0-20.6-8.9-20.6-19.7c0-11.2,8-22.9,22.9-22.9C205.9,188.2,215.5,201.3,215.5,220.1z"/>
	</g>
	<g>
		<linearGradient id="SVGID_3_" gradientUnits="userSpaceOnUse" x1="228.3799" y1="230.1162" x2="292.2603" y2="230.1162">
			<stop  offset="0" style="stop-color:#7081F6"/>
			<stop  offset="0.1845" style="stop-color:#7481F6"/>
			<stop  offset="0.3738" style="stop-color:#807FF5"/>
			<stop  offset="0.5654" style="stop-color:#957DF4"/>
			<stop  offset="0.7585" style="stop-color:#B279F3"/>
			<stop  offset="0.9511" style="stop-color:#D675F1"/>
			<stop  offset="1" style="stop-color:#E174F1"/>
		</linearGradient>
		<path class="st2" d="M292.3,222.6c0,16.4-3.7,34.9-5.4,42.8c-0.7,4.7-4.4,4.7-5.1,4.7c-3,0-5.4-2.3-5.4-5.4c0-0.2,0-0.5,0.2-0.9
			c1.9-8.2,5.1-26,5.1-41.2c0-12.4-2.3-21.3-8.4-21.3c-12.6,0-27.6,26.4-35.1,65c-0.5,2.3-2.3,4-4.9,4c-3,0-4.9-2.3-4.9-5.4
			c0-2.8,4.2-19.9,5.1-23.6c2.6-10.5,4.7-20.8,4.9-28.8c-0.2-7-1.2-11-4.2-14c-0.7-1.2-1.2-2.3-1.2-3.7c0-2.6,2.3-4.9,5.1-4.9
			c4.7,0,11,8.7,10.1,22.7c6.3-14.5,15.4-22,26-22C279.6,190.6,292.3,193.8,292.3,222.6z"/>
	</g>
	<g>
		<linearGradient id="SVGID_4_" gradientUnits="userSpaceOnUse" x1="307.4702" y1="215.3745" x2="355.439" y2="215.3745">
			<stop  offset="0" style="stop-color:#7081F6"/>
			<stop  offset="0.1845" style="stop-color:#7481F6"/>
			<stop  offset="0.3738" style="stop-color:#807FF5"/>
			<stop  offset="0.5654" style="stop-color:#957DF4"/>
			<stop  offset="0.7585" style="stop-color:#B279F3"/>
			<stop  offset="0.9511" style="stop-color:#D675F1"/>
			<stop  offset="1" style="stop-color:#E174F1"/>
		</linearGradient>
		<path class="st3" d="M336.5,272c-0.2,0-1.4-0.2-1.6-0.2c-11.7-1.9-17.3-11.5-17.3-29.5c0-11.2,1.4-24.3,5.9-42.1
			c-6.8,0-9.4,1.2-12.6,1.2c-1.6,0-3.3-1.4-3.3-4c0-6.6,9.8-6.8,18.3-7c1.9-7.7,4.7-18.5,7.3-27.8c0.7-2.1,2.6-3.5,4.7-3.7
			c3,0,5.4,1.9,5.4,4.7c0,0.9-0.2,2.1-0.5,2.6c-2.3,7-5.4,19.4-6.6,24.6c3.3,0,8,0.2,14.3,0.5c2.6,0.5,5.1,2.3,5.1,4.9
			c0,2.8-1.9,4.7-4.4,4.7c-4.4,0-12.4-0.5-16.8-0.7c-4.2,15-6.3,29.7-6.3,41.7c0,18.5,6.8,19.7,9.1,20.1c2.6,0,4.7,2.3,4.7,4.9
			C341.6,269.4,339.3,271.8,336.5,272z"/>
	</g>
	<g>
		<linearGradient id="SVGID_5_" gradientUnits="userSpaceOnUse" x1="359.416" y1="230.1162" x2="423.5303" y2="230.1162">
			<stop  offset="0" style="stop-color:#7081F6"/>
			<stop  offset="0.1845" style="stop-color:#7481F6"/>
			<stop  offset="0.3738" style="stop-color:#807FF5"/>
			<stop  offset="0.5654" style="stop-color:#957DF4"/>
			<stop  offset="0.7585" style="stop-color:#B279F3"/>
			<stop  offset="0.9511" style="stop-color:#D675F1"/>
			<stop  offset="1" style="stop-color:#E174F1"/>
		</linearGradient>
		<path class="st4" d="M423.5,213.5c0,8.9-1.4,19.2-3,28.1c-0.9,6.1-2.3,14-2.3,18.7c0,1.4,0.2,2.3,0.5,3c0.5,0.9,0.9,1.6,0.9,2.8
			c0,2.6-2.6,4.9-5.4,4.9c-5.1,0-6.6-6.6-6.6-11.2c0-4.9,1.4-11.5,2.6-19.9c1.4-8.7,3-17.8,3-26c0-11.2-6.1-15.4-12.2-15.4
			c-17.8,0-31.1,27.1-31.1,48.4c0,8.7,4,14.7,10.1,14.7c6.3,0,11-5.6,13.3-11.9c0.7-1.9,2.6-3,4.4-3c3,0,4.9,2.3,4.9,5.1
			c0,4-7.5,19.7-24.3,19.7c-9.4,0-19-7-19-24.6c0-24.3,16.8-58.3,42.6-58.3C415.3,188.7,423.5,197.4,423.5,213.5z"/>
	</g>
	<g>
		<linearGradient id="SVGID_6_" gradientUnits="userSpaceOnUse" x1="441.3145" y1="230.8181" x2="497.4727" y2="230.8181">
			<stop  offset="0" style="stop-color:#7081F6"/>
			<stop  offset="0.1845" style="stop-color:#7481F6"/>
			<stop  offset="0.3738" style="stop-color:#807FF5"/>
			<stop  offset="0.5654" style="stop-color:#957DF4"/>
			<stop  offset="0.7585" style="stop-color:#B279F3"/>
			<stop  offset="0.9511" style="stop-color:#D675F1"/>
			<stop  offset="1" style="stop-color:#E174F1"/>
		</linearGradient>
		<path class="st5" d="M497.5,201.6c0,2.8-1.9,5.1-4.9,5.1c-1.6,0-3.3-0.9-4.4-2.6c-1.6-2.3-4-4.4-8.2-4.4
			c-18.3,0-28.1,24.6-28.1,41.9c0,18.7,10.5,21.1,15.7,21.1c6.3,0,14.5-3.3,19.2-11.7c0.9-1.6,2.3-3,4.4-3c2.8,0,4.4,2.3,4.4,5.4
			c0,4.4-11,18.7-28.8,18.7c-14.5,0-25.5-9.4-25.5-30.4c0-25.5,16.1-51.9,39.3-51.9c9.6,0,14.3,4,16.1,8.7
			C497.2,199.2,497.5,200.6,497.5,201.6z"/>
	</g>
	<g>
		<linearGradient id="SVGID_7_" gradientUnits="userSpaceOnUse" x1="507.7676" y1="215.3745" x2="555.7363" y2="215.3745">
			<stop  offset="0" style="stop-color:#7081F6"/>
			<stop  offset="0.1845" style="stop-color:#7481F6"/>
			<stop  offset="0.3738" style="stop-color:#807FF5"/>
			<stop  offset="0.5654" style="stop-color:#957DF4"/>
			<stop  offset="0.7585" style="stop-color:#B279F3"/>
			<stop  offset="0.9511" style="stop-color:#D675F1"/>
			<stop  offset="1" style="stop-color:#E174F1"/>
		</linearGradient>
		<path class="st6" d="M536.8,272c-0.2,0-1.4-0.2-1.6-0.2c-11.7-1.9-17.3-11.5-17.3-29.5c0-11.2,1.4-24.3,5.8-42.1
			c-6.8,0-9.4,1.2-12.6,1.2c-1.6,0-3.3-1.4-3.3-4c0-6.6,9.8-6.8,18.3-7c1.9-7.7,4.7-18.5,7.3-27.8c0.7-2.1,2.6-3.5,4.7-3.7
			c3,0,5.4,1.9,5.4,4.7c0,0.9-0.2,2.1-0.5,2.6c-2.3,7-5.4,19.4-6.6,24.6c3.3,0,8,0.2,14.3,0.5c2.6,0.5,5.1,2.3,5.1,4.9
			c0,2.8-1.9,4.7-4.4,4.7c-4.4,0-12.4-0.5-16.8-0.7c-4.2,15-6.3,29.7-6.3,41.7c0,18.5,6.8,19.7,9.1,20.1c2.6,0,4.7,2.3,4.7,4.9
			C541.9,269.4,539.6,271.8,536.8,272z"/>
	</g>
	<g>
		<linearGradient id="SVGID_8_" gradientUnits="userSpaceOnUse" x1="596.2178" y1="187.7637" x2="792.5381" y2="187.7637">
			<stop  offset="0" style="stop-color:#7081F6"/>
			<stop  offset="0.1845" style="stop-color:#7481F6"/>
			<stop  offset="0.3738" style="stop-color:#807FF5"/>
			<stop  offset="0.5654" style="stop-color:#957DF4"/>
			<stop  offset="0.7585" style="stop-color:#B279F3"/>
			<stop  offset="0.9511" style="stop-color:#D675F1"/>
			<stop  offset="1" style="stop-color:#E174F1"/>
		</linearGradient>
		<path class="st7" d="M618.7,102.6c16.6,2.8,26,15.7,31.4,31.8c9.1-6.8,19.2-11.2,30.2-11.2c24.3,0,33.9,20.6,36,28.5
			c10.5-12.9,24.6-24.3,40-24.3c8.4,0,15.9,2.8,21.8,8.9c11.7,12.2,14.5,31.4,14.5,48.4c0,31.1-9.1,66-21.5,84
			c-0.9,1.4-2.8,2.1-4.4,2.1c-2.8,0-4.9-2.1-4.9-5.1c0-1.2,0.2-2.1,0.7-3c11.2-15.9,19.7-48.9,19.7-77.9c0-21.1-5.4-47.7-26.2-47.7
			c-16.6,0-32.3,21.8-35.8,26.7c2.3,7.5,3.7,18.5,3.7,30.4c0,37.2-11,77.9-32.1,77.9c-3.7,0-7-1.4-9.6-3.5c-3.7-4-5.6-10.5-5.6-20.6
			c0-23.9,13.3-61.1,32.3-86.3c-1.9-8.4-5.4-15.2-10.3-20.6c-4.9-4.9-11.2-8-19-8c-9.4,0-18.5,4.7-26.7,12.4
			c2.8,11.9,3.7,27.8,3.7,41.4c0,44.2-15,86.1-39.1,86.1c-11.9,0-21.3-10.1-21.3-30.4c0-28.5,18.5-76.5,45.2-100.4
			c-4.7-17.5-12.9-27.1-24.8-29.5c-2.3-0.5-4.4-2.3-4.4-4.9c0-3,2.6-5.1,5.4-5.1H618.7z M644,152.7c-21.3,24.8-37.4,63.9-37.4,89.9
			c0,3,0.2,20.8,11.2,20.8c15.2,0,28.3-36.3,28.3-76.5C646.1,173.7,645.1,162.7,644,152.7z M711.8,174c-15,25.3-25,54.8-25,73.9
			c0,3.3,0.5,14.7,5.1,14.7c9.8,0,20.8-29,21.3-66.2C713.2,188.7,713,181.7,711.8,174z"/>
	</g>
	<g>
		<linearGradient id="SVGID_9_" gradientUnits="userSpaceOnUse" x1="809.1553" y1="231.0522" x2="867.8877" y2="231.0522">
			<stop  offset="0" style="stop-color:#7081F6"/>
			<stop  offset="0.1845" style="stop-color:#7481F6"/>
			<stop  offset="0.3738" style="stop-color:#807FF5"/>
			<stop  offset="0.5654" style="stop-color:#957DF4"/>
			<stop  offset="0.7585" style="stop-color:#B279F3"/>
			<stop  offset="0.9511" style="stop-color:#D675F1"/>
			<stop  offset="1" style="stop-color:#E174F1"/>
		</linearGradient>
		<path class="st8" d="M857.4,208.1c0-4.7-3.3-8-9.4-8c-11.7,0-28.3,15-28.3,40c0,8,2.6,22.2,19.4,22.2c6.1,0,12.4-2.8,16.4-7.7
			c0.9-1.2,2.1-1.9,3.7-1.9c2.8,0,4.7,2.3,4.7,5.4c0,4.4-11.2,13.8-25.5,13.8c-17.8,0-29.2-11.9-29.2-31.8
			c0-29.5,20.6-50.1,39.1-50.1c14,0,19.7,8.7,19.7,18c0,18.5-19.4,27.6-33.2,27.6c-2.8,0-5.1-1.9-5.1-4.9c0-2.6,2.1-4.9,5.1-5.1
			C845.7,225.4,857.4,218.7,857.4,208.1z"/>
	</g>
</g>
<rect x="0" y="74" class="st9 path" width="874" height="257"/>
</svg>
