<?xml version="1.0" encoding="utf-8"?>
<!-- Generator: Adobe Illustrator 21.1.0, SVG Export Plug-In . SVG Version: 6.00 Build 0)  -->
<svg version="1.1" id="Layer_1" xmlns="http://www.w3.org/2000/svg" xmlns:xlink="http://www.w3.org/1999/xlink" x="0px" y="0px"
	 viewBox="0 0 1912 400" style="enable-background:new 0 0 1912 400;" xml:space="preserve">
<style type="text/css">
	.st0{fill:url(#SVGID_1_);}
	.st1{fill:url(#SVGID_2_);}
	.st2{fill:url(#SVGID_3_);}
	.st3{fill:url(#SVGID_4_);}
	.st4{fill:url(#SVGID_5_);}
	.st5{fill:url(#SVGID_6_);}
	.st6{fill:url(#SVGID_7_);}
	.st7{fill:url(#SVGID_8_);}
	.st8{fill:url(#SVGID_9_);}
	.st9{fill:url(#SVGID_10_);}
	.st10{fill:url(#SVGID_11_);}
	.st11{fill:url(#SVGID_12_);}
	.st12{fill:url(#SVGID_13_);}
	.st13{fill:url(#SVGID_14_);}
	.st14{fill:url(#SVGID_15_);}
	.st15{fill:url(#SVGID_16_);}
	.st16{fill:url(#SVGID_17_);}
	.st17{fill:url(#SVGID_18_);}
	.st18{fill:url(#SVGID_19_);}
	.st19{fill:url(#SVGID_20_);}
	.st20{fill:url(#SVGID_21_);}
	.st21{fill:url(#SVGID_22_);}
	.st22{fill:url(#SVGID_23_);}
	.st23{fill:url(#SVGID_24_);}
	.st24{fill:url(#SVGID_25_);}
	.st25{fill:url(#SVGID_26_);}
	.st26{fill:url(#SVGID_27_);}
	.st27{fill:url(#SVGID_28_);}
	.st28{fill:url(#SVGID_29_);}
	.st29{fill:url(#SVGID_30_);}
	.st30{fill:url(#SVGID_31_);}
	.st31{fill:url(#SVGID_32_);}
	.st32{fill:url(#SVGID_33_);}
	.st33{fill:url(#SVGID_34_);}
	.st34{fill:url(#SVGID_35_);}
	.st35{fill:url(#SVGID_36_);}
	.st36{fill:url(#SVGID_37_);}
	.st37{fill:url(#SVGID_38_);}
	.st38{fill:url(#SVGID_39_);}
	.st39{fill:url(#SVGID_40_);}
	.st40{fill:url(#SVGID_41_);}
	.st41{fill:url(#SVGID_42_);}
	.st42{fill:url(#SVGID_43_);}
	.st43{fill:url(#SVGID_44_);}
	.st44{fill:url(#SVGID_45_);}
	.st45{fill:url(#SVGID_46_);}
	.st46{fill:url(#SVGID_47_);}
	.st47{fill:url(#SVGID_48_);}
	.st48{fill:url(#SVGID_49_);}
	.st49{fill:url(#SVGID_50_);}
	.st50{fill:url(#SVGID_51_);}
	.st51{fill:url(#SVGID_52_);}
	.st52{fill:url(#SVGID_53_);}
	.st53{fill:url(#SVGID_54_);}
	.st54{fill:url(#SVGID_55_);}
	.st55{fill:url(#SVGID_56_);}
	.st56{fill:url(#SVGID_57_);}
	.st57{fill:url(#SVGID_58_);}
	.st58{fill:url(#SVGID_59_);}
	.st59{fill:#FFFFFF;
	animation: mover 1s ease forwards .4s;
	}
	@keyframes mover{
		0%{
		transform:translateX(0px);
		}
		100%{
		transform:translateX(1900px);
		}
	}
</style>
<g>
	<g>
		<linearGradient id="SVGID_1_" gradientUnits="userSpaceOnUse" x1="12.6587" y1="197.166" x2="109.7838" y2="197.166">
			<stop  offset="0" style="stop-color:#7081F6"/>
			<stop  offset="0.1845" style="stop-color:#7481F6"/>
			<stop  offset="0.3738" style="stop-color:#807FF5"/>
			<stop  offset="0.5654" style="stop-color:#957DF4"/>
			<stop  offset="0.7585" style="stop-color:#B279F3"/>
			<stop  offset="0.9511" style="stop-color:#D675F1"/>
			<stop  offset="1" style="stop-color:#E174F1"/>
		</linearGradient>
		<path class="st0" d="M104.6,117.6c-2.6,0-4.9,2.1-5.1,4.7c-1.2,11.5-10.5,17.8-21.8,20.6c-4.4-17.1-17.1-23.6-29.7-23.6
			c-12.9,0-23.2,7.3-23.2,17.1c0,10.1,8.7,19.7,30.9,19.7c4.7,0,9.1-0.5,13.1-1.2c0.7,14-4,26.4-9.4,40.7
			c-4.2,12.2-10.1,28.5-10.1,40.7c-30,8-36.7,30.7-36.7,35.3c0,2.8,1.9,5.1,4.9,5.1c2.3,0,4.4-1.6,4.9-4.2
			c2.1-12.4,14.5-22.7,27.1-26.2c1.9,16.4,14.3,27.4,31.6,27.4c17.8,0,27.6-8.2,27.6-19.2c0-11.5-11-22.2-36.3-22.2
			c-4,0-8.4,0.7-12.4,1.4c0.7-10.5,5.6-24.1,9.4-34.4c5.1-14.7,10.8-29.2,9.6-46.6c24.3-5.8,30-20.1,30.7-29.2
			C110,120.4,107.9,117.6,104.6,117.6L104.6,117.6z M55.7,146.4c-11.5,0-20.4-3.7-20.4-10.1c0-4.7,5.4-7.5,12.6-7.5
			c13.1,0,17.5,8.9,19.4,16.6C63,146.2,58.8,146.4,55.7,146.4L55.7,146.4z M81.5,264.1c-12.4,0-20.4-8.7-21.3-20.6
			c4.2-0.9,9.6-1.9,13.3-1.9c13.3,0,24.8,5.1,24.8,12.6C98.3,261,90.6,264.1,81.5,264.1L81.5,264.1z"/>
	</g>
	<g>
		<linearGradient id="SVGID_2_" gradientUnits="userSpaceOnUse" x1="123.8071" y1="228.2871" x2="187.6875" y2="228.2871">
			<stop  offset="0" style="stop-color:#7081F6"/>
			<stop  offset="0.1845" style="stop-color:#7481F6"/>
			<stop  offset="0.3738" style="stop-color:#807FF5"/>
			<stop  offset="0.5654" style="stop-color:#957DF4"/>
			<stop  offset="0.7585" style="stop-color:#B279F3"/>
			<stop  offset="0.9511" style="stop-color:#D675F1"/>
			<stop  offset="1" style="stop-color:#E174F1"/>
		</linearGradient>
		<path class="st1" d="M133.6,188c-2.8,0-5.1,2.3-5.1,4.9c0,1.4,0.5,2.6,1.2,3.7c3,3,4,7,4.2,14c-0.2,8-2.3,18.3-4.9,28.8
			c-0.9,3.7-5.1,20.8-5.1,23.6c0,3,1.9,5.4,4.9,5.4c2.6,0,4.4-1.6,4.9-4c7.5-38.6,22.5-65,35.1-65c6.1,0,8.4,8.9,8.4,21.3
			c0,15.2-3.3,33-5.1,41.2c-0.2,0.5-0.2,0.7-0.2,0.9c0,3,2.3,5.4,5.4,5.4c0.7,0,4.4,0,5.1-4.7c1.6-8,5.4-26.4,5.4-42.8
			c0-28.8-12.6-32.1-18-32.1c-10.5,0-19.7,7.5-26,22C144.6,196.7,138.3,188,133.6,188L133.6,188z"/>
	</g>
	<g>
		<linearGradient id="SVGID_3_" gradientUnits="userSpaceOnUse" x1="202.6636" y1="229.4575" x2="256.9497" y2="229.4575">
			<stop  offset="0" style="stop-color:#7081F6"/>
			<stop  offset="0.1845" style="stop-color:#7481F6"/>
			<stop  offset="0.3738" style="stop-color:#807FF5"/>
			<stop  offset="0.5654" style="stop-color:#957DF4"/>
			<stop  offset="0.7585" style="stop-color:#B279F3"/>
			<stop  offset="0.9511" style="stop-color:#D675F1"/>
			<stop  offset="1" style="stop-color:#E174F1"/>
		</linearGradient>
		<path class="st2" d="M220.3,244L220.3,244C220.3,244,220.3,244,220.3,244 M237.5,187.8c-14.5,0-22.2,10.1-22.2,19.7
			c0,11.7,9.6,18,17.1,22c10.5,5.6,13.3,12.2,13.3,17.8c0,10.5-8.9,15.4-17.3,15.4c-8.4,0-15.2-5.6-15.2-11.2c0-3.3,1.2-6.8,5.6-6.8
			c1.6,0,2.3,0.5,3.7,0.7c0.2,0,0.3,0,0.5,0c1.6,0,4.2-0.9,4.2-4.5c0-4.7-4.2-6.1-8.4-6.1c-8.9,0-16.1,7-16.1,16.8
			c0,11.7,12.2,19.4,25.5,19.4c17.8,0,28.1-10.8,28.1-25.3c0-11.9-7.7-18.7-19.2-25.5c-9.4-5.6-11.5-8.4-11.5-12.9
			c0-6.1,4.2-10.8,11.7-10.8c6.1,0,9.4,5.1,10.1,7.5c0.5,1.9,2.8,3,4.2,3c3,0,5.4-2.3,5.4-5.4C256.9,197.9,251.6,187.8,237.5,187.8
			L237.5,187.8z"/>
	</g>
	<g>
		<linearGradient id="SVGID_4_" gradientUnits="userSpaceOnUse" x1="269.585" y1="213.5454" x2="317.5537" y2="213.5454">
			<stop  offset="0" style="stop-color:#7081F6"/>
			<stop  offset="0.1845" style="stop-color:#7481F6"/>
			<stop  offset="0.3738" style="stop-color:#807FF5"/>
			<stop  offset="0.5654" style="stop-color:#957DF4"/>
			<stop  offset="0.7585" style="stop-color:#B279F3"/>
			<stop  offset="0.9511" style="stop-color:#D675F1"/>
			<stop  offset="1" style="stop-color:#E174F1"/>
		</linearGradient>
		<path class="st3" d="M299.8,156.9c-2.1,0.2-4,1.6-4.7,3.7c-2.6,9.4-5.4,20.1-7.3,27.8c-8.4,0.2-18.3,0.5-18.3,7c0,2.6,1.6,4,3.3,4
			c3.3,0,5.8-1.2,12.6-1.2c-4.4,17.8-5.9,30.9-5.9,42.1c0,18,5.6,27.6,17.3,29.5c0.2,0,1.4,0.2,1.6,0.2c2.8-0.2,5.1-2.6,5.1-5.4
			c0-2.6-2.1-4.9-4.7-4.9c-2.3-0.5-9.1-1.6-9.1-20.1c0-11.9,2.1-26.7,6.3-41.7c4.4,0.2,12.4,0.7,16.8,0.7c2.6,0,4.4-1.9,4.4-4.7
			c0-2.6-2.6-4.4-5.1-4.9c-6.3-0.2-11-0.5-14.3-0.5c1.2-5.1,4.2-17.5,6.6-24.6c0.2-0.5,0.5-1.6,0.5-2.6
			C305.2,158.8,302.8,156.9,299.8,156.9L299.8,156.9z"/>
	</g>
	<g>
		<linearGradient id="SVGID_5_" gradientUnits="userSpaceOnUse" x1="327.6123" y1="212.2588" x2="364.1152" y2="212.2588">
			<stop  offset="0" style="stop-color:#7081F6"/>
			<stop  offset="0.1845" style="stop-color:#7481F6"/>
			<stop  offset="0.3738" style="stop-color:#807FF5"/>
			<stop  offset="0.5654" style="stop-color:#957DF4"/>
			<stop  offset="0.7585" style="stop-color:#B279F3"/>
			<stop  offset="0.9511" style="stop-color:#D675F1"/>
			<stop  offset="1" style="stop-color:#E174F1"/>
		</linearGradient>
		<path class="st4" d="M339.1,153.6l1.2,10.8l-11.5,6.6l11.7,0.9l-0.2,13.6l6.6-12.9l17.3,2.8l-14.3-9.1l9.4-6.6l-13.1,1.6
			L339.1,153.6L339.1,153.6z M343.1,190c-2.4,0-4.6,1.5-5,3.9c-7,27.8-10.5,68.6-10.5,71.6s2.3,5.4,5.4,5.4c2.8,0,4.9-2.1,5.1-4.9
			c1.4-22.2,5.8-52.6,10.1-69.5c0.2-0.5,0.2-0.9,0.2-1.2c0-2.3-1.6-4.4-4-5.1C344,190,343.6,190,343.1,190L343.1,190z"/>
	</g>
	<g>
		<linearGradient id="SVGID_6_" gradientUnits="userSpaceOnUse" x1="364.3481" y1="213.5454" x2="412.3169" y2="213.5454">
			<stop  offset="0" style="stop-color:#7081F6"/>
			<stop  offset="0.1845" style="stop-color:#7481F6"/>
			<stop  offset="0.3738" style="stop-color:#807FF5"/>
			<stop  offset="0.5654" style="stop-color:#957DF4"/>
			<stop  offset="0.7585" style="stop-color:#B279F3"/>
			<stop  offset="0.9511" style="stop-color:#D675F1"/>
			<stop  offset="1" style="stop-color:#E174F1"/>
		</linearGradient>
		<path class="st5" d="M394.5,156.9c-2.1,0.2-4,1.6-4.7,3.7c-2.6,9.4-5.4,20.1-7.3,27.8c-8.4,0.2-18.3,0.5-18.3,7c0,2.6,1.6,4,3.3,4
			c3.3,0,5.8-1.2,12.6-1.2c-4.4,17.8-5.9,30.9-5.9,42.1c0,18,5.6,27.6,17.3,29.5c0.2,0,1.4,0.2,1.6,0.2c2.8-0.2,5.1-2.6,5.1-5.4
			c0-2.6-2.1-4.9-4.7-4.9c-2.3-0.5-9.1-1.6-9.1-20.1c0-11.9,2.1-26.7,6.3-41.7c4.4,0.2,12.4,0.7,16.8,0.7c2.6,0,4.4-1.9,4.4-4.7
			c0-2.6-2.6-4.4-5.1-4.9c-6.3-0.2-11-0.5-14.3-0.5c1.2-5.1,4.2-17.5,6.6-24.6c0.2-0.5,0.5-1.6,0.5-2.6
			C399.9,158.8,397.6,156.9,394.5,156.9L394.5,156.9z"/>
	</g>
	<g>
		<linearGradient id="SVGID_7_" gradientUnits="userSpaceOnUse" x1="416.7622" y1="229.2231" x2="480.4805" y2="229.2231">
			<stop  offset="0" style="stop-color:#7081F6"/>
			<stop  offset="0.1845" style="stop-color:#7481F6"/>
			<stop  offset="0.3738" style="stop-color:#807FF5"/>
			<stop  offset="0.5654" style="stop-color:#957DF4"/>
			<stop  offset="0.7585" style="stop-color:#B279F3"/>
			<stop  offset="0.9511" style="stop-color:#D675F1"/>
			<stop  offset="1" style="stop-color:#E174F1"/>
		</linearGradient>
		<path class="st6" d="M476.7,188.3c-3.5,0-5.6,1.6-6.1,4.4c-5.1,37-18.7,67.4-33.7,67.4c-7.7,0-9.8-11.2-9.8-22
			c0-14.5,3.3-30.7,5.6-40.9V196c0-2.8-2.3-5.4-5.4-5.4c-4.2,0-4.9,3.7-5.4,5.8c-1.6,8.4-5.1,26-5.1,41.7
			c0,26.7,11.7,32.1,20.1,32.1c10.3,0,20.4-8.9,26.4-23.4c-0.2,13.1,5.6,22.9,10.5,22.9c2.8,0,5.1-2.3,5.1-5.1
			c0-1.2-0.2-2.3-1.2-3.5c-3.3-3.5-4.7-8.7-4.7-16.1c0-8.2,1.9-19,4-31.6c1.6-8,3-16.8,3.3-19.2C480.9,191.3,479,188.3,476.7,188.3
			L476.7,188.3z"/>
	</g>
	<g>
		<linearGradient id="SVGID_8_" gradientUnits="userSpaceOnUse" x1="495.1519" y1="229.2231" x2="553.8843" y2="229.2231">
			<stop  offset="0" style="stop-color:#7081F6"/>
			<stop  offset="0.1845" style="stop-color:#7481F6"/>
			<stop  offset="0.3738" style="stop-color:#807FF5"/>
			<stop  offset="0.5654" style="stop-color:#957DF4"/>
			<stop  offset="0.7585" style="stop-color:#B279F3"/>
			<stop  offset="0.9511" style="stop-color:#D675F1"/>
			<stop  offset="1" style="stop-color:#E174F1"/>
		</linearGradient>
		<path class="st7" d="M534.2,188.3c-18.5,0-39.1,20.6-39.1,50.1c0,19.9,11.5,31.8,29.2,31.8c14.3,0,25.5-9.4,25.5-13.8
			c0-3-1.9-5.4-4.7-5.4c-1.6,0-2.8,0.7-3.7,1.9c-4,4.9-10.3,7.7-16.4,7.7c-16.8,0-19.4-14.3-19.4-22.2c0-25,16.6-40,28.3-40
			c6.1,0,9.4,3.3,9.4,8c0,10.5-11.7,17.3-22.7,17.5c-3,0.2-5.1,2.6-5.1,5.1c0,3,2.3,4.9,5.1,4.9c13.8,0,33.2-9.1,33.2-27.6
			C553.9,196.9,548.3,188.3,534.2,188.3L534.2,188.3z"/>
	</g>
	<g>
		<linearGradient id="SVGID_9_" gradientUnits="userSpaceOnUse" x1="605.8311" y1="228.2871" x2="671.3491" y2="228.2871">
			<stop  offset="0" style="stop-color:#7081F6"/>
			<stop  offset="0.1845" style="stop-color:#7481F6"/>
			<stop  offset="0.3738" style="stop-color:#807FF5"/>
			<stop  offset="0.5654" style="stop-color:#957DF4"/>
			<stop  offset="0.7585" style="stop-color:#B279F3"/>
			<stop  offset="0.9511" style="stop-color:#D675F1"/>
			<stop  offset="1" style="stop-color:#E174F1"/>
		</linearGradient>
		<path class="st8" d="M644.3,220L644.3,220C644.3,220,644.3,220,644.3,220 M646.3,186.4c-15,0-22.9,11.7-22.9,22.9
			c0,10.8,7,19.7,20.6,19.7c5.8,0,6.3-3.7,6.3-5.1c0-2.8-2.3-5.1-5.4-5.1c-4,0-11,0-11-9.4c0-5.6,3-13.1,11.9-13.1
			c11.2,0,15,12.6,15,22c0,19.9-10.8,42.1-27.6,42.1c-11.9,0-16.8-14.3-16.8-26.4c0-4.9,0.7-11.5,2.1-15c0.2-0.7,0.5-1.4,0.5-2.3
			c0-2.6-2.1-5.1-4.9-5.1c-2.1,0-4.2,1.6-4.9,3.7c-2.3,6.3-3.3,12.4-3.3,19c0,21.8,10.8,36,26.9,36c23.9,0,38.6-26.9,38.6-51.9
			C671.3,199.5,661.8,186.4,646.3,186.4L646.3,186.4z"/>
	</g>
	<g>
		<linearGradient id="SVGID_10_" gradientUnits="userSpaceOnUse" x1="669.0083" y1="222.2036" x2="772.1997" y2="222.2036">
			<stop  offset="0" style="stop-color:#7081F6"/>
			<stop  offset="0.1845" style="stop-color:#7481F6"/>
			<stop  offset="0.3738" style="stop-color:#807FF5"/>
			<stop  offset="0.5654" style="stop-color:#957DF4"/>
			<stop  offset="0.7585" style="stop-color:#B279F3"/>
			<stop  offset="0.9511" style="stop-color:#D675F1"/>
			<stop  offset="1" style="stop-color:#E174F1"/>
		</linearGradient>
		<path class="st9" d="M753,119.5c-12.9,0-23.2,9.1-28.8,22.5c-6.3,15.2-7.7,25.3-9.8,55.9c-33,22.5-45.4,71.1-45.4,99
			c0,18.7,8.4,28.1,18.3,28.1c15.2,0,22-13.3,27.6-35.6c5.4-21.5,7.7-50.8,10.1-85.6c7.3-3.7,15.2-4.2,19.4-4.2
			c1.2,0,3.5,0.2,5.6,0.2c2.3,0,4.7-1.6,4.7-4.4c0-4.2-3-5.6-9.6-5.6c-8.4,0-14,1.2-19.9,3.5c1.4-18.5,2.8-35.3,8.7-47.7
			c4.9-10.5,10.5-16.4,18-16.4c6.6,0,9.8,4.4,9.8,8.4c0,3.5-1.2,5.6-2.1,6.3c-2.3,1.6-2.8,4.7-2.8,6.1c0,1.6,1.6,3.7,4.9,3.7
			c3.7,0,10.5-6.6,10.5-15.9C772.2,127.4,766.1,119.5,753,119.5L753,119.5z M713.7,210.5c-1.6,24.8-3.5,52.4-8.7,75.1
			c-4.4,19.7-8.7,29.2-17.1,29.2c-4.7,0-8.4-7-8.4-18C679.5,273.7,688.7,233,713.7,210.5L713.7,210.5z"/>
	</g>
	<g>
		<linearGradient id="SVGID_11_" gradientUnits="userSpaceOnUse" x1="795.8325" y1="184.2964" x2="920.5513" y2="184.2964">
			<stop  offset="0" style="stop-color:#7081F6"/>
			<stop  offset="0.1845" style="stop-color:#7481F6"/>
			<stop  offset="0.3738" style="stop-color:#807FF5"/>
			<stop  offset="0.5654" style="stop-color:#957DF4"/>
			<stop  offset="0.7585" style="stop-color:#B279F3"/>
			<stop  offset="0.9511" style="stop-color:#D675F1"/>
			<stop  offset="1" style="stop-color:#E174F1"/>
		</linearGradient>
		<path class="st10" d="M895.7,97.5c-14.5,0-27.8,8.2-33.9,22.9c-39.3,4-66,39.3-66,80.3c0,40,24.1,70.4,65.5,70.4
			c39.3,0,55.5-24.3,55.5-28.1c0-3-2.3-5.4-4.9-5.4c-1.6,0-3.5,0.9-4.4,2.3c-9.1,13.3-25.3,21.1-46.1,21.1
			c-35.6,0-55.2-26.9-55.2-60.4c0-33,20.1-63.9,52.9-70c-0.2,1.9-0.5,4-0.5,6.1c0,15.2,4.9,29.2,14.3,38.4
			c6.8,6.8,15.2,10.8,23.4,10.8c15.9,0,24.3-11.2,24.3-24.3c0-20.1-16.8-39.8-46.8-41.4c5.1-9.4,13.6-12.6,22-12.6
			c1.4,0,7,0.9,8.2,0.9c2.8,0,5.1-1.6,5.1-4.7C909.1,98,900.7,97.5,895.7,97.5L895.7,97.5z M896.2,175.9c-11,0-27.1-13.6-27.1-39.1
			c0-2.6,0.2-4.9,0.7-7c25.5,0.7,40,15.9,40,31.8C909.8,165.8,908.6,175.9,896.2,175.9L896.2,175.9z"/>
	</g>
	<g>
		<linearGradient id="SVGID_12_" gradientUnits="userSpaceOnUse" x1="936.6997" y1="228.2871" x2="1002.2178" y2="228.2871">
			<stop  offset="0" style="stop-color:#7081F6"/>
			<stop  offset="0.1845" style="stop-color:#7481F6"/>
			<stop  offset="0.3738" style="stop-color:#807FF5"/>
			<stop  offset="0.5654" style="stop-color:#957DF4"/>
			<stop  offset="0.7585" style="stop-color:#B279F3"/>
			<stop  offset="0.9511" style="stop-color:#D675F1"/>
			<stop  offset="1" style="stop-color:#E174F1"/>
		</linearGradient>
		<path class="st11" d="M975.2,220L975.2,220C975.2,220,975.2,220,975.2,220 M977.2,186.4c-15,0-22.9,11.7-22.9,22.9
			c0,10.8,7,19.7,20.6,19.7c5.8,0,6.3-3.7,6.3-5.1c0-2.8-2.3-5.1-5.4-5.1c-4,0-11,0-11-9.4c0-5.6,3-13.1,11.9-13.1
			c11.2,0,15,12.6,15,22c0,19.9-10.8,42.1-27.6,42.1c-11.9,0-16.8-14.3-16.8-26.4c0-4.9,0.7-11.5,2.1-15c0.2-0.7,0.5-1.4,0.5-2.3
			c0-2.6-2.1-5.1-4.9-5.1c-2.1,0-4.2,1.6-4.9,3.7c-2.3,6.3-3.3,12.4-3.3,19c0,21.8,10.8,36,26.9,36c23.9,0,38.6-26.9,38.6-51.9
			C1002.2,199.5,992.6,186.4,977.2,186.4L977.2,186.4z"/>
	</g>
	<g>
		<linearGradient id="SVGID_13_" gradientUnits="userSpaceOnUse" x1="1014.8525" y1="228.2871" x2="1126" y2="228.2871">
			<stop  offset="0" style="stop-color:#7081F6"/>
			<stop  offset="0.1845" style="stop-color:#7481F6"/>
			<stop  offset="0.3738" style="stop-color:#807FF5"/>
			<stop  offset="0.5654" style="stop-color:#957DF4"/>
			<stop  offset="0.7585" style="stop-color:#B279F3"/>
			<stop  offset="0.9511" style="stop-color:#D675F1"/>
			<stop  offset="1" style="stop-color:#E174F1"/>
		</linearGradient>
		<path class="st12" d="M1024.9,186.2c-3,0-5.4,2.3-5.4,5.1c0,1.4,0.5,2.6,1.2,3.7c3.5,3.5,3.5,11.7,3.5,14.3
			c0,12.4-3.5,28.3-6.3,40.2c-1.4,6.3-3,12.6-3,15c0,3,1.9,5.4,4.9,5.4c2.6,0,4.4-1.6,4.9-4.2c7.7-40.5,21.5-67.6,33.7-67.6
			c10.1,0,10.3,17.5,10.3,22.7c0,9.1-1.4,19-3,29.2c-0.9,4.9-2.1,11.9-2.1,12.9c0,2.8,2.1,5.4,5.1,5.4c4.2,0,4.4-1.9,7-17.8
			c4.4-27.4,16.6-52.6,29.7-52.6c8,0,10.3,12.2,10.3,25c0,15.2-4,32.8-6.3,40.7c-0.2,0.5-0.2,0.9-0.2,1.4c0,2.8,2.3,5.4,5.4,5.4
			c2.3,0,4.2-1.6,5.1-3.7c2.1-8.4,6.3-27.4,6.3-44.2c0-25.3-8.9-34.9-19.4-35.1c-12.6,0-22,9.4-28.1,27.4
			c-0.9-21.1-10.8-26.9-19-26.9c-9.4,0-18.7,5.8-26,23.4C1035.4,196.2,1029.8,186.2,1024.9,186.2L1024.9,186.2z"/>
	</g>
	<g>
		<linearGradient id="SVGID_14_" gradientUnits="userSpaceOnUse" x1="1119.917" y1="265.4922" x2="1210.7061" y2="265.4922">
			<stop  offset="0" style="stop-color:#7081F6"/>
			<stop  offset="0.1845" style="stop-color:#7481F6"/>
			<stop  offset="0.3738" style="stop-color:#807FF5"/>
			<stop  offset="0.5654" style="stop-color:#957DF4"/>
			<stop  offset="0.7585" style="stop-color:#B279F3"/>
			<stop  offset="0.9511" style="stop-color:#D675F1"/>
			<stop  offset="1" style="stop-color:#E174F1"/>
		</linearGradient>
		<path class="st13" d="M1186.1,188c-26.4,0-46.8,38.4-47.3,93.4c-12.9,3.3-19,13.1-19,18.5c0,2.6,1.4,4.7,4.2,4.7
			c2.1,0,4.2-1.2,4.4-2.6c0.7-3.7,4.9-8.9,10.3-10.5c0.2,28.8,11,51.5,29.5,51.5c11.7,0,19.7-7.5,19.7-23.4
			c0-19.7-14.7-39.8-38.8-39.8c0.9-46.6,18.3-81.7,37-81.7c11.2,0,14,16.8,14,24.3c0,24.6-8.7,37.9-19.4,37.9
			c-6.1,0-8.4-4.4-10.1-7.7c-0.9-1.6-2.8-2.6-4.7-2.6c-2.8,0-5.1,2.1-5.1,5.1c0,3.3,5.8,15,19.9,15c15.9,0,30-16.4,30-47.7
			C1210.7,202.5,1202.3,188,1186.1,188L1186.1,188z M1168.1,333.6c-8.7,0-18.7-15-19-44c0.3,0,0.5,0,0.8,0
			c17.3,0,27.5,15.7,27.5,30.2C1177.5,328.4,1174.9,333.6,1168.1,333.6L1168.1,333.6z"/>
	</g>
	<g>
		<linearGradient id="SVGID_15_" gradientUnits="userSpaceOnUse" x1="1223.8086" y1="229.2231" x2="1282.541" y2="229.2231">
			<stop  offset="0" style="stop-color:#7081F6"/>
			<stop  offset="0.1845" style="stop-color:#7481F6"/>
			<stop  offset="0.3738" style="stop-color:#807FF5"/>
			<stop  offset="0.5654" style="stop-color:#957DF4"/>
			<stop  offset="0.7585" style="stop-color:#B279F3"/>
			<stop  offset="0.9511" style="stop-color:#D675F1"/>
			<stop  offset="1" style="stop-color:#E174F1"/>
		</linearGradient>
		<path class="st14" d="M1262.9,188.3c-18.5,0-39.1,20.6-39.1,50.1c0,19.9,11.5,31.8,29.2,31.8c14.3,0,25.5-9.4,25.5-13.8
			c0-3-1.9-5.4-4.7-5.4c-1.6,0-2.8,0.7-3.7,1.9c-4,4.9-10.3,7.7-16.4,7.7c-16.8,0-19.4-14.3-19.4-22.2c0-25,16.6-40,28.3-40
			c6.1,0,9.4,3.3,9.4,8c0,10.5-11.7,17.3-22.7,17.5c-3,0.2-5.1,2.6-5.1,5.1c0,3,2.3,4.9,5.1,4.9c13.8,0,33.2-9.1,33.2-27.6
			C1282.5,196.9,1276.9,188.3,1262.9,188.3L1262.9,188.3z"/>
	</g>
	<g>
		<linearGradient id="SVGID_16_" gradientUnits="userSpaceOnUse" x1="1290.4961" y1="213.5454" x2="1338.4648" y2="213.5454">
			<stop  offset="0" style="stop-color:#7081F6"/>
			<stop  offset="0.1845" style="stop-color:#7481F6"/>
			<stop  offset="0.3738" style="stop-color:#807FF5"/>
			<stop  offset="0.5654" style="stop-color:#957DF4"/>
			<stop  offset="0.7585" style="stop-color:#B279F3"/>
			<stop  offset="0.9511" style="stop-color:#D675F1"/>
			<stop  offset="1" style="stop-color:#E174F1"/>
		</linearGradient>
		<path class="st15" d="M1320.7,156.9c-2.1,0.2-4,1.6-4.7,3.7c-2.6,9.4-5.4,20.1-7.3,27.8c-8.4,0.2-18.3,0.5-18.3,7
			c0,2.6,1.6,4,3.3,4c3.3,0,5.8-1.2,12.6-1.2c-4.4,17.8-5.8,30.9-5.8,42.1c0,18,5.6,27.6,17.3,29.5c0.2,0,1.4,0.2,1.6,0.2
			c2.8-0.2,5.1-2.6,5.1-5.4c0-2.6-2.1-4.9-4.7-4.9c-2.3-0.5-9.1-1.6-9.1-20.1c0-11.9,2.1-26.7,6.3-41.7c4.4,0.2,12.4,0.7,16.8,0.7
			c2.6,0,4.4-1.9,4.4-4.7c0-2.6-2.6-4.4-5.1-4.9c-6.3-0.2-11-0.5-14.3-0.5c1.2-5.1,4.2-17.5,6.6-24.6c0.2-0.5,0.5-1.6,0.5-2.6
			C1326.1,158.8,1323.7,156.9,1320.7,156.9L1320.7,156.9z"/>
	</g>
	<g>
		<linearGradient id="SVGID_17_" gradientUnits="userSpaceOnUse" x1="1348.5225" y1="212.2588" x2="1385.0254" y2="212.2588">
			<stop  offset="0" style="stop-color:#7081F6"/>
			<stop  offset="0.1845" style="stop-color:#7481F6"/>
			<stop  offset="0.3738" style="stop-color:#807FF5"/>
			<stop  offset="0.5654" style="stop-color:#957DF4"/>
			<stop  offset="0.7585" style="stop-color:#B279F3"/>
			<stop  offset="0.9511" style="stop-color:#D675F1"/>
			<stop  offset="1" style="stop-color:#E174F1"/>
		</linearGradient>
		<path class="st16" d="M1360,153.6l1.2,10.8l-11.5,6.6l11.7,0.9l-0.2,13.6l6.6-12.9l17.3,2.8l-14.3-9.1l9.4-6.6l-13.1,1.6
			L1360,153.6L1360,153.6z M1364,190c-2.4,0-4.6,1.5-5,3.9c-7,27.8-10.5,68.6-10.5,71.6s2.3,5.4,5.4,5.4c2.8,0,4.9-2.1,5.1-4.9
			c1.4-22.2,5.8-52.6,10.1-69.5c0.2-0.5,0.2-0.9,0.2-1.2c0-2.3-1.6-4.4-4-5.1C1364.9,190,1364.5,190,1364,190L1364,190z"/>
	</g>
	<g>
		<linearGradient id="SVGID_18_" gradientUnits="userSpaceOnUse" x1="1385.2588" y1="213.5454" x2="1433.2275" y2="213.5454">
			<stop  offset="0" style="stop-color:#7081F6"/>
			<stop  offset="0.1845" style="stop-color:#7481F6"/>
			<stop  offset="0.3738" style="stop-color:#807FF5"/>
			<stop  offset="0.5654" style="stop-color:#957DF4"/>
			<stop  offset="0.7585" style="stop-color:#B279F3"/>
			<stop  offset="0.9511" style="stop-color:#D675F1"/>
			<stop  offset="1" style="stop-color:#E174F1"/>
		</linearGradient>
		<path class="st17" d="M1415.4,156.9c-2.1,0.2-4,1.6-4.7,3.7c-2.6,9.4-5.4,20.1-7.3,27.8c-8.4,0.2-18.3,0.5-18.3,7
			c0,2.6,1.6,4,3.3,4c3.3,0,5.8-1.2,12.6-1.2c-4.4,17.8-5.8,30.9-5.8,42.1c0,18,5.6,27.6,17.3,29.5c0.2,0,1.4,0.2,1.6,0.2
			c2.8-0.2,5.1-2.6,5.1-5.4c0-2.6-2.1-4.9-4.7-4.9c-2.3-0.5-9.1-1.6-9.1-20.1c0-11.9,2.1-26.7,6.3-41.7c4.4,0.2,12.4,0.7,16.8,0.7
			c2.6,0,4.4-1.9,4.4-4.7c0-2.6-2.6-4.4-5.1-4.9c-6.3-0.2-11-0.5-14.3-0.5c1.2-5.1,4.2-17.5,6.6-24.6c0.2-0.5,0.5-1.6,0.5-2.6
			C1420.8,158.8,1418.5,156.9,1415.4,156.9L1415.4,156.9z"/>
	</g>
	<g>
		<linearGradient id="SVGID_19_" gradientUnits="userSpaceOnUse" x1="1443.2852" y1="212.2588" x2="1479.7881" y2="212.2588">
			<stop  offset="0" style="stop-color:#7081F6"/>
			<stop  offset="0.1845" style="stop-color:#7481F6"/>
			<stop  offset="0.3738" style="stop-color:#807FF5"/>
			<stop  offset="0.5654" style="stop-color:#957DF4"/>
			<stop  offset="0.7585" style="stop-color:#B279F3"/>
			<stop  offset="0.9511" style="stop-color:#D675F1"/>
			<stop  offset="1" style="stop-color:#E174F1"/>
		</linearGradient>
		<path class="st18" d="M1454.8,153.6l1.2,10.8l-11.5,6.6l11.7,0.9l-0.2,13.6l6.6-12.9l17.3,2.8l-14.3-9.1l9.4-6.6l-13.1,1.6
			L1454.8,153.6L1454.8,153.6z M1458.8,190c-2.4,0-4.6,1.5-5,3.9c-7,27.8-10.5,68.6-10.5,71.6s2.3,5.4,5.4,5.4
			c2.8,0,4.9-2.1,5.1-4.9c1.4-22.2,5.8-52.6,10.1-69.5c0.2-0.5,0.2-0.9,0.2-1.2c0-2.3-1.6-4.4-4-5.1
			C1459.7,190,1459.3,190,1458.8,190L1458.8,190z"/>
	</g>
	<g>
		<linearGradient id="SVGID_20_" gradientUnits="userSpaceOnUse" x1="1481.1914" y1="228.2546" x2="1540.8594" y2="228.2546">
			<stop  offset="0" style="stop-color:#7081F6"/>
			<stop  offset="0.1845" style="stop-color:#7481F6"/>
			<stop  offset="0.3738" style="stop-color:#807FF5"/>
			<stop  offset="0.5654" style="stop-color:#957DF4"/>
			<stop  offset="0.7585" style="stop-color:#B279F3"/>
			<stop  offset="0.9511" style="stop-color:#D675F1"/>
			<stop  offset="1" style="stop-color:#E174F1"/>
		</linearGradient>
		<path class="st19" d="M1535.4,187.3c-2.5,0-4.6,2-5.1,4.7c-3.7,33.7-26.2,67.4-33.2,67.4c-2.6,0-5.4-8.7-5.4-26.2
			c0-11.7,1.6-28.1,2.6-33l0.5-2.3c0.5-2.6-2.3-4.9-5.4-4.9c-2.1,0-4.4,1.6-4.9,4c-1.4,7.3-3.3,24.8-3.3,36.3c0,16.4,2.8,36,15.4,36
			c17.1,0,40.7-44.5,44.2-76.3v-0.5c0-2.6-2.1-4.9-4.7-5.1C1535.9,187.3,1535.7,187.3,1535.4,187.3L1535.4,187.3z"/>
	</g>
	<g>
		<linearGradient id="SVGID_21_" gradientUnits="userSpaceOnUse" x1="1550.2178" y1="229.2231" x2="1608.9502" y2="229.2231">
			<stop  offset="0" style="stop-color:#7081F6"/>
			<stop  offset="0.1845" style="stop-color:#7481F6"/>
			<stop  offset="0.3738" style="stop-color:#807FF5"/>
			<stop  offset="0.5654" style="stop-color:#957DF4"/>
			<stop  offset="0.7585" style="stop-color:#B279F3"/>
			<stop  offset="0.9511" style="stop-color:#D675F1"/>
			<stop  offset="1" style="stop-color:#E174F1"/>
		</linearGradient>
		<path class="st20" d="M1589.3,188.3c-18.5,0-39.1,20.6-39.1,50.1c0,19.9,11.5,31.8,29.2,31.8c14.3,0,25.5-9.4,25.5-13.8
			c0-3-1.9-5.4-4.7-5.4c-1.6,0-2.8,0.7-3.7,1.9c-4,4.9-10.3,7.7-16.4,7.7c-16.8,0-19.4-14.3-19.4-22.2c0-25,16.6-40,28.3-40
			c6.1,0,9.4,3.3,9.4,8c0,10.5-11.7,17.3-22.7,17.5c-3,0.2-5.1,2.6-5.1,5.1c0,3,2.3,4.9,5.1,4.9c13.8,0,33.2-9.1,33.2-27.6
			C1609,196.9,1603.3,188.3,1589.3,188.3L1589.3,188.3z"/>
	</g>
	<g>
		<linearGradient id="SVGID_22_" gradientUnits="userSpaceOnUse" x1="1619.7139" y1="228.2871" x2="1683.5938" y2="228.2871">
			<stop  offset="0" style="stop-color:#7081F6"/>
			<stop  offset="0.1845" style="stop-color:#7481F6"/>
			<stop  offset="0.3738" style="stop-color:#807FF5"/>
			<stop  offset="0.5654" style="stop-color:#957DF4"/>
			<stop  offset="0.7585" style="stop-color:#B279F3"/>
			<stop  offset="0.9511" style="stop-color:#D675F1"/>
			<stop  offset="1" style="stop-color:#E174F1"/>
		</linearGradient>
		<path class="st21" d="M1629.5,188c-2.8,0-5.1,2.3-5.1,4.9c0,1.4,0.5,2.6,1.2,3.7c3,3,4,7,4.2,14c-0.2,8-2.3,18.3-4.9,28.8
			c-0.9,3.7-5.1,20.8-5.1,23.6c0,3,1.9,5.4,4.9,5.4c2.6,0,4.4-1.6,4.9-4c7.5-38.6,22.5-65,35.1-65c6.1,0,8.4,8.9,8.4,21.3
			c0,15.2-3.3,33-5.1,41.2c-0.2,0.5-0.2,0.7-0.2,0.9c0,3,2.3,5.4,5.4,5.4c0.7,0,4.4,0,5.1-4.7c1.6-8,5.4-26.4,5.4-42.8
			c0-28.8-12.6-32.1-18-32.1c-10.5,0-19.7,7.5-26,22C1640.5,196.7,1634.2,188,1629.5,188L1629.5,188z"/>
	</g>
	<g>
		<linearGradient id="SVGID_23_" gradientUnits="userSpaceOnUse" x1="1701.8447" y1="229.2231" x2="1760.5771" y2="229.2231">
			<stop  offset="0" style="stop-color:#7081F6"/>
			<stop  offset="0.1845" style="stop-color:#7481F6"/>
			<stop  offset="0.3738" style="stop-color:#807FF5"/>
			<stop  offset="0.5654" style="stop-color:#957DF4"/>
			<stop  offset="0.7585" style="stop-color:#B279F3"/>
			<stop  offset="0.9511" style="stop-color:#D675F1"/>
			<stop  offset="1" style="stop-color:#E174F1"/>
		</linearGradient>
		<path class="st22" d="M1740.9,188.3c-18.5,0-39.1,20.6-39.1,50.1c0,19.9,11.5,31.8,29.2,31.8c14.3,0,25.5-9.4,25.5-13.8
			c0-3-1.9-5.4-4.7-5.4c-1.6,0-2.8,0.7-3.7,1.9c-4,4.9-10.3,7.7-16.4,7.7c-16.8,0-19.4-14.3-19.4-22.2c0-25,16.6-40,28.3-40
			c6.1,0,9.4,3.3,9.4,8c0,10.5-11.7,17.3-22.7,17.5c-3,0.2-5.1,2.6-5.1,5.1c0,3,2.3,4.9,5.1,4.9c13.8,0,33.2-9.1,33.2-27.6
			C1760.6,196.9,1755,188.3,1740.9,188.3L1740.9,188.3z"/>
	</g>
	<g>
		<linearGradient id="SVGID_24_" gradientUnits="userSpaceOnUse" x1="1768.2988" y1="229.4575" x2="1822.585" y2="229.4575">
			<stop  offset="0" style="stop-color:#7081F6"/>
			<stop  offset="0.1845" style="stop-color:#7481F6"/>
			<stop  offset="0.3738" style="stop-color:#807FF5"/>
			<stop  offset="0.5654" style="stop-color:#957DF4"/>
			<stop  offset="0.7585" style="stop-color:#B279F3"/>
			<stop  offset="0.9511" style="stop-color:#D675F1"/>
			<stop  offset="1" style="stop-color:#E174F1"/>
		</linearGradient>
		<path class="st23" d="M1785.9,244L1785.9,244L1785.9,244 M1803.2,187.8c-14.5,0-22.2,10.1-22.2,19.7c0,11.7,9.6,18,17.1,22
			c10.5,5.6,13.3,12.2,13.3,17.8c0,10.5-8.9,15.4-17.3,15.4s-15.2-5.6-15.2-11.2c0-3.3,1.2-6.8,5.6-6.8c1.6,0,2.3,0.5,3.7,0.7
			c0.2,0,0.3,0,0.5,0c1.6,0,4.2-0.9,4.2-4.5c0-4.7-4.2-6.1-8.4-6.1c-8.9,0-16.1,7-16.1,16.8c0,11.7,12.2,19.4,25.5,19.4
			c17.8,0,28.1-10.8,28.1-25.3c0-11.9-7.7-18.7-19.2-25.5c-9.4-5.6-11.5-8.4-11.5-12.9c0-6.1,4.2-10.8,11.7-10.8
			c6.1,0,9.4,5.1,10.1,7.5c0.5,1.9,2.8,3,4.2,3c3,0,5.4-2.3,5.4-5.4C1822.6,197.9,1817.2,187.8,1803.2,187.8L1803.2,187.8z"/>
	</g>
	<g>
		<linearGradient id="SVGID_25_" gradientUnits="userSpaceOnUse" x1="1834.9863" y1="229.4575" x2="1889.2725" y2="229.4575">
			<stop  offset="0" style="stop-color:#7081F6"/>
			<stop  offset="0.1845" style="stop-color:#7481F6"/>
			<stop  offset="0.3738" style="stop-color:#807FF5"/>
			<stop  offset="0.5654" style="stop-color:#957DF4"/>
			<stop  offset="0.7585" style="stop-color:#B279F3"/>
			<stop  offset="0.9511" style="stop-color:#D675F1"/>
			<stop  offset="1" style="stop-color:#E174F1"/>
		</linearGradient>
		<path class="st24" d="M1852.6,244L1852.6,244L1852.6,244 M1869.9,187.8c-14.5,0-22.2,10.1-22.2,19.7c0,11.7,9.6,18,17.1,22
			c10.5,5.6,13.3,12.2,13.3,17.8c0,10.5-8.9,15.4-17.3,15.4s-15.2-5.6-15.2-11.2c0-3.3,1.2-6.8,5.6-6.8c1.6,0,2.3,0.5,3.7,0.7
			c0.2,0,0.3,0,0.5,0c1.6,0,4.2-0.9,4.2-4.5c0-4.7-4.2-6.1-8.4-6.1c-8.9,0-16.1,7-16.1,16.8c0,11.7,12.2,19.4,25.5,19.4
			c17.8,0,28.1-10.8,28.1-25.3c0-11.9-7.7-18.7-19.2-25.5c-9.4-5.6-11.5-8.4-11.5-12.9c0-6.1,4.2-10.8,11.7-10.8
			c6.1,0,9.4,5.1,10.1,7.5c0.5,1.9,2.8,3,4.2,3c3,0,5.4-2.3,5.4-5.4C1889.3,197.9,1883.9,187.8,1869.9,187.8L1869.9,187.8z"/>
	</g>
</g>
<rect x="0.4" y="67" class="st59 path" width="1911.6" height="293"/>
</svg>
