<?xml version="1.0" encoding="utf-8"?>
<!-- Generator: Adobe Illustrator 21.1.0, SVG Export Plug-In . SVG Version: 6.00 Build 0)  -->
<svg version="1.1" id="Layer_1" xmlns="http://www.w3.org/2000/svg" xmlns:xlink="http://www.w3.org/1999/xlink" x="0px" y="0px"
	 viewBox="0 0 882 400" style="enable-background:new 0 0 882 400;" xml:space="preserve">
<style type="text/css">
	.st0{fill:url(#SVGID_1_);}
	.st1{fill:url(#SVGID_2_);}
	.st2{fill:url(#SVGID_3_);}
	.st3{fill:url(#SVGID_4_);}
	.st4{fill:url(#SVGID_5_);}
	.st5{fill:url(#SVGID_6_);}
	.st6{fill:url(#SVGID_7_);}
	.st7{fill:url(#SVGID_8_);}
	.st8{fill:url(#SVGID_9_);}
	.st9{fill:url(#SVGID_10_);}
	.st10{fill:url(#SVGID_11_);}
	.st11{fill:url(#SVGID_12_);}
	.st12{fill:url(#SVGID_13_);}
	.st13{fill:url(#SVGID_14_);}
	.st14{fill:url(#SVGID_15_);}
	.st15{fill:url(#SVGID_16_);}
	.st16{fill:url(#SVGID_17_);}
	.st17{fill:url(#SVGID_18_);}
	.st18{fill:url(#SVGID_19_);}
	.st19{fill:url(#SVGID_20_);}
	.st20{fill:url(#SVGID_21_);}
	.st21{fill:url(#SVGID_22_);}
	.st22{fill:url(#SVGID_23_);}
	.st23{fill:url(#SVGID_24_);}
	.st24{fill:url(#SVGID_25_);}
	.st25{fill:url(#SVGID_26_);}
	.st26{fill:url(#SVGID_27_);}
	.st27{fill:url(#SVGID_28_);}
	.st28{fill:url(#SVGID_29_);}
	.st29{fill:url(#SVGID_30_);}
	.st30{fill:url(#SVGID_31_);}
	.st31{fill:url(#SVGID_32_);}
	.st32{fill:url(#SVGID_33_);}
	.st33{fill:url(#SVGID_34_);}
	.st34{fill:url(#SVGID_35_);}
	.st35{fill:url(#SVGID_36_);}
	.st36{fill:url(#SVGID_37_);}
	.st37{fill:url(#SVGID_38_);}
	.st38{fill:url(#SVGID_39_);}
	.st39{fill:url(#SVGID_40_);}
	.st40{fill:url(#SVGID_41_);}
	.st41{fill:url(#SVGID_42_);}
	.st42{fill:url(#SVGID_43_);}
	.st43{fill:url(#SVGID_44_);}
	.st44{fill:url(#SVGID_45_);}
	.st45{fill:url(#SVGID_46_);}
	.st46{fill:url(#SVGID_47_);}
	.st47{fill:url(#SVGID_48_);}
	.st48{fill:url(#SVGID_49_);}
	.st49{fill:url(#SVGID_50_);}
	.st50{fill:url(#SVGID_51_);}
	.st51{fill:url(#SVGID_52_);}
	.st52{fill:url(#SVGID_53_);}
	.st53{fill:url(#SVGID_54_);}
	.st54{fill:url(#SVGID_55_);}
	.st55{fill:url(#SVGID_56_);}
	.st56{fill:url(#SVGID_57_);}
	.st57{fill:url(#SVGID_58_);}
	.st58{fill:url(#SVGID_59_);}
	.st59{fill:#FFFFFF;
	animation: mover 1s ease forwards .4s;
	}
	@keyframes mover{
		0%{
		transform:translateX(0px);
		}
		100%{
		transform:translateX(900px);
		}
	}
</style>
<g>
	<g>
		<linearGradient id="SVGID_1_" gradientUnits="userSpaceOnUse" x1="10.7959" y1="199.8828" x2="166.6357" y2="199.8828">
			<stop  offset="0" style="stop-color:#7081F6"/>
			<stop  offset="0.1845" style="stop-color:#7481F6"/>
			<stop  offset="0.3738" style="stop-color:#807FF5"/>
			<stop  offset="0.5654" style="stop-color:#957DF4"/>
			<stop  offset="0.7585" style="stop-color:#B279F3"/>
			<stop  offset="0.9511" style="stop-color:#D675F1"/>
			<stop  offset="1" style="stop-color:#E174F1"/>
		</linearGradient>
		<path class="st0" d="M60.9,109.2c-2.8,0-5.1,2.1-5.1,5.1c0,2.3,1.6,4.4,4,5.1c8.4,2.1,16.8,11.2,16.8,23.4c0,6.6-1.2,14-4.4,19.7
			c-4-7.5-15.4-22.9-37.2-22.9c-14.3,0-24.1,8.9-24.1,21.5c0,13.8,14.3,26,33,26c9.4,0,18.3-2.3,24.8-7.3
			c6.6,15.9,6.6,37.2,6.6,53.1c0,25.3,0,57.6,23.9,57.6c34.6,0,67.6-84.2,67.6-110.4c0-21.3-11.9-36.7-35.1-36.7
			c-2.8,0-5.1,2.3-5.1,5.4c0,2.8,2.3,4.7,5.1,4.7c20.8,0,24.6,15.2,24.6,26.7c0,26.9-32.5,100.9-56.4,100.9
			c-11.9,0-14.3-18-14.3-48.2c0-17.1,0-42.4-8.7-59.9c7-8.4,10.5-18.7,10.5-30C87.3,119.7,66.5,109.2,60.9,109.2L60.9,109.2z
			 M43.8,177.3c-12.9,0-22.7-8.7-22.7-16.1c0-7.3,6.1-11.9,13.8-11.9c16.6,0,26,13.1,30.2,21.5C60.2,174.5,52.4,177.3,43.8,177.3
			L43.8,177.3z"/>
	</g>
	<g>
		<linearGradient id="SVGID_2_" gradientUnits="userSpaceOnUse" x1="176.2334" y1="232.1743" x2="212.7363" y2="232.1743">
			<stop  offset="0" style="stop-color:#7081F6"/>
			<stop  offset="0.1845" style="stop-color:#7481F6"/>
			<stop  offset="0.3738" style="stop-color:#807FF5"/>
			<stop  offset="0.5654" style="stop-color:#957DF4"/>
			<stop  offset="0.7585" style="stop-color:#B279F3"/>
			<stop  offset="0.9511" style="stop-color:#D675F1"/>
			<stop  offset="1" style="stop-color:#E174F1"/>
		</linearGradient>
		<path class="st1" d="M187.7,173.6l1.2,10.8l-11.5,6.6l11.7,0.9l-0.2,13.6l6.6-12.9l17.3,2.8l-14.3-9.1l9.4-6.6l-13.1,1.6
			L187.7,173.6L187.7,173.6z M191.8,209.9c-2.4,0-4.6,1.5-5,3.9c-7,27.8-10.5,68.6-10.5,71.6s2.3,5.4,5.4,5.4c2.8,0,4.9-2.1,5.1-4.9
			c1.4-22.2,5.8-52.6,10.1-69.5c0.2-0.5,0.2-0.9,0.2-1.2c0-2.3-1.6-4.4-4-5.1C192.6,210,192.2,209.9,191.8,209.9L191.8,209.9z"/>
	</g>
	<g>
		<linearGradient id="SVGID_3_" gradientUnits="userSpaceOnUse" x1="213.2026" y1="248.9048" x2="269.3613" y2="248.9048">
			<stop  offset="0" style="stop-color:#7081F6"/>
			<stop  offset="0.1845" style="stop-color:#7481F6"/>
			<stop  offset="0.3738" style="stop-color:#807FF5"/>
			<stop  offset="0.5654" style="stop-color:#957DF4"/>
			<stop  offset="0.7585" style="stop-color:#B279F3"/>
			<stop  offset="0.9511" style="stop-color:#D675F1"/>
			<stop  offset="1" style="stop-color:#E174F1"/>
		</linearGradient>
		<path class="st2" d="M252.5,207.7c-23.2,0-39.3,26.4-39.3,51.9c0,21.1,11,30.4,25.5,30.4c17.8,0,28.8-14.3,28.8-18.7
			c0-3-1.6-5.4-4.4-5.4c-2.1,0-3.5,1.4-4.4,3c-4.7,8.4-12.9,11.7-19.2,11.7c-5.1,0-15.7-2.3-15.7-21.1c0-17.3,9.8-41.9,28.1-41.9
			c4.2,0,6.6,2.1,8.2,4.4c1.2,1.6,2.8,2.6,4.4,2.6c3,0,4.9-2.3,4.9-5.1c0-0.9-0.2-2.3-0.7-3.3C266.8,211.7,262.1,207.7,252.5,207.7
			L252.5,207.7z"/>
	</g>
	<g>
		<linearGradient id="SVGID_4_" gradientUnits="userSpaceOnUse" x1="282.4639" y1="248.2026" x2="346.5781" y2="248.2026">
			<stop  offset="0" style="stop-color:#7081F6"/>
			<stop  offset="0.1845" style="stop-color:#7481F6"/>
			<stop  offset="0.3738" style="stop-color:#807FF5"/>
			<stop  offset="0.5654" style="stop-color:#957DF4"/>
			<stop  offset="0.7585" style="stop-color:#B279F3"/>
			<stop  offset="0.9511" style="stop-color:#D675F1"/>
			<stop  offset="1" style="stop-color:#E174F1"/>
		</linearGradient>
		<path class="st3" d="M325.1,206.8c-25.7,0-42.6,33.9-42.6,58.3c0,17.5,9.6,24.6,19,24.6c16.8,0,24.3-15.7,24.3-19.7
			c0-2.8-1.9-5.1-4.9-5.1c-1.9,0-3.7,1.2-4.4,3c-2.3,6.3-7,11.9-13.3,11.9c-6.1,0-10.1-6.1-10.1-14.7c0-21.3,13.3-48.4,31.1-48.4
			c6.1,0,12.2,4.2,12.2,15.4c0,8.2-1.6,17.3-3,26c-1.2,8.4-2.6,15-2.6,19.9c0,4.7,1.4,11.2,6.6,11.2c2.8,0,5.4-2.3,5.4-4.9
			c0-1.2-0.5-1.9-0.9-2.8c-0.2-0.7-0.5-1.6-0.5-3c0-4.7,1.4-12.6,2.3-18.7c1.6-8.9,3-19.2,3-28.1
			C346.6,215.4,338.4,206.8,325.1,206.8L325.1,206.8z"/>
	</g>
	<g>
		<linearGradient id="SVGID_5_" gradientUnits="userSpaceOnUse" x1="364.8306" y1="248.6709" x2="415.373" y2="248.6709">
			<stop  offset="0" style="stop-color:#7081F6"/>
			<stop  offset="0.1845" style="stop-color:#7481F6"/>
			<stop  offset="0.3738" style="stop-color:#807FF5"/>
			<stop  offset="0.5654" style="stop-color:#957DF4"/>
			<stop  offset="0.7585" style="stop-color:#B279F3"/>
			<stop  offset="0.9511" style="stop-color:#D675F1"/>
			<stop  offset="1" style="stop-color:#E174F1"/>
		</linearGradient>
		<path class="st4" d="M409.8,207.7c-11.7,0-24.3,7-29.5,22.5c0.5-11.7-6.1-19.7-10.5-19.7c-2.6,0-4.9,2.3-4.9,5.1
			c0,1.4,0.2,2.8,1.4,3.7c3,3,5.1,7,5.1,17.3c0,7.7-6.6,46.1-6.6,47.7c0,2.8,1.9,5.1,4.7,5.1c2.6,0,4.7-1.6,5.1-4.4l1.4-7.7
			c5.4-30,10.1-58.5,34.4-59.9c2.8-0.2,4.9-1.9,4.9-4.7C415.4,209.8,412.8,207.7,409.8,207.7L409.8,207.7z"/>
	</g>
	<g>
		<linearGradient id="SVGID_6_" gradientUnits="userSpaceOnUse" x1="416.5454" y1="248.2026" x2="480.6597" y2="248.2026">
			<stop  offset="0" style="stop-color:#7081F6"/>
			<stop  offset="0.1845" style="stop-color:#7481F6"/>
			<stop  offset="0.3738" style="stop-color:#807FF5"/>
			<stop  offset="0.5654" style="stop-color:#957DF4"/>
			<stop  offset="0.7585" style="stop-color:#B279F3"/>
			<stop  offset="0.9511" style="stop-color:#D675F1"/>
			<stop  offset="1" style="stop-color:#E174F1"/>
		</linearGradient>
		<path class="st5" d="M459.1,206.8c-25.7,0-42.6,33.9-42.6,58.3c0,17.5,9.6,24.6,19,24.6c16.8,0,24.3-15.7,24.3-19.7
			c0-2.8-1.9-5.1-4.9-5.1c-1.9,0-3.7,1.2-4.4,3c-2.3,6.3-7,11.9-13.3,11.9c-6.1,0-10.1-6.1-10.1-14.7c0-21.3,13.3-48.4,31.1-48.4
			c6.1,0,12.2,4.2,12.2,15.4c0,8.2-1.6,17.3-3,26c-1.2,8.4-2.6,15-2.6,19.9c0,4.7,1.4,11.2,6.6,11.2c2.8,0,5.4-2.3,5.4-4.9
			c0-1.2-0.5-1.9-0.9-2.8c-0.2-0.7-0.5-1.6-0.5-3c0-4.7,1.4-12.6,2.3-18.7c1.6-8.9,3-19.2,3-28.1
			C480.7,215.4,472.5,206.8,459.1,206.8L459.1,206.8z"/>
	</g>
	<g>
		<linearGradient id="SVGID_7_" gradientUnits="userSpaceOnUse" x1="522.7832" y1="212.8744" x2="687.2803" y2="212.8744">
			<stop  offset="0" style="stop-color:#7081F6"/>
			<stop  offset="0.1845" style="stop-color:#7481F6"/>
			<stop  offset="0.3738" style="stop-color:#807FF5"/>
			<stop  offset="0.5654" style="stop-color:#957DF4"/>
			<stop  offset="0.7585" style="stop-color:#B279F3"/>
			<stop  offset="0.9511" style="stop-color:#D675F1"/>
			<stop  offset="1" style="stop-color:#E174F1"/>
		</linearGradient>
		<path class="st6" d="M559.3,135.7c-25,0-36.5,14.3-36.5,28.5c0,7.3,3.5,14.5,9.6,19.4c5.1,4,11.2,6.1,17.5,6.1
			c4.2,0,11-0.5,11-6.1c0-2.8-2.6-4.4-5.4-4.4c-0.7,0-4.7,0.7-5.6,0.7c-9.4,0-16.6-8-16.6-15.7c0-10.3,8.9-19,26-19
			c15.9,0,30.7,6.3,49.1,16.8c-7.7,8.4-11.9,21.1-11.9,37c0,7,1.2,16.4,2.6,25.3c0.9,8.9,2.6,18,2.6,25.3c0,18.7-3.7,30.4-17.5,30.4
			c-3.5,0-8,0-8,4.9c0,4.8,3.8,5.2,6.6,5.2c0.5,0,0.9,0,1.3,0c27.8,0,27.8-29.7,27.8-40.5c0-8-1.4-17.3-2.6-26.7
			c-1.4-8.7-2.3-17.5-2.3-23.9c0-11.7,1.9-24.3,10.5-32.3c14.5,8,31.1,15.9,47.3,15.9c13.8,0,22.5-7,22.5-16.4
			c0-8.7-8.2-19.4-34.6-19.4c-15,0-26.9,2.8-35.8,8.2C597.4,144.3,580.3,135.7,559.3,135.7L559.3,135.7z M664.8,173.1
			c-11.7,0-25.7-5.1-37.7-12.2c6.6-2.8,15.7-4.2,25.5-4.2c17.5,0,24.1,5.1,24.1,9.8C676.8,170.8,670.7,173.1,664.8,173.1
			L664.8,173.1z"/>
	</g>
	<g>
		<linearGradient id="SVGID_8_" gradientUnits="userSpaceOnUse" x1="661.3125" y1="249.1387" x2="720.0449" y2="249.1387">
			<stop  offset="0" style="stop-color:#7081F6"/>
			<stop  offset="0.1845" style="stop-color:#7481F6"/>
			<stop  offset="0.3738" style="stop-color:#807FF5"/>
			<stop  offset="0.5654" style="stop-color:#957DF4"/>
			<stop  offset="0.7585" style="stop-color:#B279F3"/>
			<stop  offset="0.9511" style="stop-color:#D675F1"/>
			<stop  offset="1" style="stop-color:#E174F1"/>
		</linearGradient>
		<path class="st7" d="M700.4,208.2c-18.5,0-39.1,20.6-39.1,50.1c0,19.9,11.5,31.8,29.2,31.8c14.3,0,25.5-9.4,25.5-13.8
			c0-3-1.9-5.4-4.7-5.4c-1.6,0-2.8,0.7-3.7,1.9c-4,4.9-10.3,7.7-16.4,7.7c-16.8,0-19.4-14.3-19.4-22.2c0-25,16.6-40,28.3-40
			c6.1,0,9.4,3.3,9.4,8c0,10.5-11.7,17.3-22.7,17.5c-3,0.2-5.1,2.6-5.1,5.1c0,3,2.3,4.9,5.1,4.9c13.8,0,33.2-9.1,33.2-27.6
			C720,216.8,714.4,208.2,700.4,208.2L700.4,208.2z"/>
	</g>
	<g>
		<linearGradient id="SVGID_9_" gradientUnits="userSpaceOnUse" x1="731.7441" y1="248.9048" x2="787.9023" y2="248.9048">
			<stop  offset="0" style="stop-color:#7081F6"/>
			<stop  offset="0.1845" style="stop-color:#7481F6"/>
			<stop  offset="0.3738" style="stop-color:#807FF5"/>
			<stop  offset="0.5654" style="stop-color:#957DF4"/>
			<stop  offset="0.7585" style="stop-color:#B279F3"/>
			<stop  offset="0.9511" style="stop-color:#D675F1"/>
			<stop  offset="1" style="stop-color:#E174F1"/>
		</linearGradient>
		<path class="st8" d="M771.1,207.7c-23.2,0-39.3,26.4-39.3,51.9c0,21.1,11,30.4,25.5,30.4c17.8,0,28.8-14.3,28.8-18.7
			c0-3-1.6-5.4-4.4-5.4c-2.1,0-3.5,1.4-4.4,3c-4.7,8.4-12.9,11.7-19.2,11.7c-5.1,0-15.7-2.3-15.7-21.1c0-17.3,9.8-41.9,28.1-41.9
			c4.2,0,6.6,2.1,8.2,4.4c1.2,1.6,2.8,2.6,4.4,2.6c3,0,4.9-2.3,4.9-5.1c0-0.9-0.2-2.3-0.7-3.3C785.3,211.7,780.6,207.7,771.1,207.7
			L771.1,207.7z"/>
	</g>
	<g>
		<linearGradient id="SVGID_10_" gradientUnits="userSpaceOnUse" x1="797.2617" y1="214.2734" x2="871.2041" y2="214.2734">
			<stop  offset="0" style="stop-color:#7081F6"/>
			<stop  offset="0.1845" style="stop-color:#7481F6"/>
			<stop  offset="0.3738" style="stop-color:#807FF5"/>
			<stop  offset="0.5654" style="stop-color:#957DF4"/>
			<stop  offset="0.7585" style="stop-color:#B279F3"/>
			<stop  offset="0.9511" style="stop-color:#D675F1"/>
			<stop  offset="1" style="stop-color:#E174F1"/>
		</linearGradient>
		<path class="st9" d="M855.3,139.9c-18,0-32.5,26.4-39.8,49.6c-2.6,0.5-5.8,0.7-8.9,0.7h-4.4c-0.2,0-0.4-0.1-0.7-0.1
			c-2.3,0-4.3,2.2-4.3,4.7c0,5,4.2,5.1,8.1,5.1c0.3,0,0.7,0,1,0c2.1,0,4.7,0,6.3-0.2c-2.3,9.8-7.7,39.8-7.7,65.5
			c0,7.7,0.5,12.2,1.6,19.2c0.5,2.3,2.3,4.2,4.9,4.2c3,0,5.4-2.3,4.9-5.1c-3.3-26,16.6-65,31.8-65c5.8,0,8.9,6.1,8.9,23.9
			c0,15-3.3,30.9-5.1,38.1c0,0.5-0.2,0.9-0.2,1.4c0,2.6,2.3,5.1,5.4,5.1c2.3,0,4.2-1.6,4.9-4c0.7-2.1,5.6-21.3,5.6-40.7
			c0-10.1-0.2-34.6-18.7-34.6c-12.6,0-26.9,14.3-33.9,37.7c2.8-22.5,6.6-39.1,8.7-47.5c23.4-5.8,47.5-23.4,47.5-42.4
			C871.2,145.9,865.4,139.9,855.3,139.9L855.3,139.9z M827,186.9c7.3-22,19.7-37.4,28.1-37.4c4.2,0,5.9,2.6,5.9,6.1
			C860.9,167,845.2,180.6,827,186.9L827,186.9z"/>
	</g>
</g>
<rect x="0" y="69" class="st59 path" width="881.5" height="293"/>
</svg>
