<?xml version="1.0" encoding="utf-8"?>
<!-- Generator: Adobe Illustrator 21.1.0, SVG Export Plug-In . SVG Version: 6.00 Build 0)  -->
<svg version="1.1" id="Layer_1" xmlns="http://www.w3.org/2000/svg" xmlns:xlink="http://www.w3.org/1999/xlink" x="0px" y="0px"
	 viewBox="0 0 1200 400" style="enable-background:new 0 0 1200 400;" xml:space="preserve">
<style type="text/css">
	.st0{fill:url(#SVGID_1_);}
	.st1{fill:url(#SVGID_2_);}
	.st2{fill:url(#SVGID_3_);}
	.st3{fill:url(#SVGID_4_);}
	.st4{fill:url(#SVGID_5_);}
	.st5{fill:url(#SVGID_6_);}
	.st6{fill:url(#SVGID_7_);}
	.st7{fill:url(#SVGID_8_);}
	.st8{fill:url(#SVGID_9_);}
	.st9{fill:url(#SVGID_10_);}
	.st10{fill:url(#SVGID_11_);}
	.st11{fill:url(#SVGID_12_);}
	.st12{fill:url(#SVGID_13_);}
	.st13{fill:url(#SVGID_14_);}
	.st14{fill:url(#SVGID_15_);}
	.st15{fill:url(#SVGID_16_);}
	.st16{fill:url(#SVGID_17_);}
	.st17{fill:url(#SVGID_18_);}
	.st18{fill:url(#SVGID_19_);}
	.st19{fill:url(#SVGID_20_);}
	.st20{fill:url(#SVGID_21_);}
	.st21{fill:url(#SVGID_22_);}
	.st22{fill:url(#SVGID_23_);}
	.st23{fill:url(#SVGID_24_);}
	.st24{fill:url(#SVGID_25_);}
	.st25{fill:url(#SVGID_26_);}
	.st26{fill:url(#SVGID_27_);}
	.st27{fill:url(#SVGID_28_);}
	.st28{fill:url(#SVGID_29_);}
	.st29{fill:url(#SVGID_30_);}
	.st30{fill:url(#SVGID_31_);}
	.st31{fill:url(#SVGID_32_);}
	.st32{fill:url(#SVGID_33_);}
	.st33{fill:url(#SVGID_34_);}
	.st34{fill:url(#SVGID_35_);}
	.st35{fill:url(#SVGID_36_);}
	.st36{fill:url(#SVGID_37_);}
	.st37{fill:url(#SVGID_38_);}
	.st38{fill:url(#SVGID_39_);}
	.st39{fill:url(#SVGID_40_);}
	.st40{fill:url(#SVGID_41_);}
	.st41{fill:url(#SVGID_42_);}
	.st42{fill:url(#SVGID_43_);}
	.st43{fill:url(#SVGID_44_);}
	.st44{fill:url(#SVGID_45_);}
	.st45{fill:url(#SVGID_46_);}
	.st46{fill:url(#SVGID_47_);}
	.st47{fill:url(#SVGID_48_);}
	.st48{fill:url(#SVGID_49_);}
	.st49{fill:url(#SVGID_50_);}
	.st50{fill:url(#SVGID_51_);}
	.st51{fill:url(#SVGID_52_);}
	.st52{fill:url(#SVGID_53_);}
	.st53{fill:url(#SVGID_54_);}
	.st54{fill:url(#SVGID_55_);}
	.st55{fill:url(#SVGID_56_);}
	.st56{fill:url(#SVGID_57_);}
	.st57{fill:url(#SVGID_58_);}
	.st58{fill:url(#SVGID_59_);}
	.st59{fill:#FFFFFF;
	animation: mover 1s ease forwards .4s;
	}
	@keyframes mover{
		0%{
		transform:translateX(0px);
		}
		100%{
		transform:translateX(1200px);
		}
	}
</style>
<g>
	<g>
		<g>
			<linearGradient id="SVGID_1_" gradientUnits="userSpaceOnUse" x1="2.4946" y1="209.3945" x2="122.2993" y2="209.3945">
				<stop  offset="0" style="stop-color:#7081F6"/>
				<stop  offset="0.1845" style="stop-color:#7481F6"/>
				<stop  offset="0.3738" style="stop-color:#807FF5"/>
				<stop  offset="0.5654" style="stop-color:#957DF4"/>
				<stop  offset="0.7585" style="stop-color:#B279F3"/>
				<stop  offset="0.9511" style="stop-color:#D675F1"/>
				<stop  offset="1" style="stop-color:#E174F1"/>
			</linearGradient>
			<path class="st0" d="M114.1,114.3c-9.8,0-18.5,3.3-25,8.7c-4.4-1.2-9.6-2.1-15.2-2.1c-30.9,0-46.8,17.5-46.8,35.1
				c0,22.7,20.8,30,41.9,37.2c25.5,8.7,43.1,17.3,43.1,39.5c0,10.8-6.1,20.8-16.6,26.2c-0.7-29-23.4-50.3-53.8-50.3
				c-22,0-39.1,13.8-39.1,31.4c0,22.2,25,36.7,55,36.7c4.9,0,9.4-0.2,13.6-0.7c4.2-0.5,8.2-1.2,11.7-1.9
				c-3.7,10.3-10.8,17.8-18,20.8c-2.1,0.9-3.3,2.8-3.3,4.9c0,2.8,2.3,4.7,5.4,4.7c4.2,0,22-10.8,27.4-34.2
				c18.7-7.7,28.1-22,28.1-37.7c0-31.1-27.6-40.9-50.1-48.9c-21.5-7.7-34.6-13.6-34.6-27.8c0-12.4,11.9-25.7,36-25.7
				c2.6,0,5.8,0.5,8.4,0.9c-2.8,4.2-4.4,10.3-4.4,15.7c0,12.6,8.9,21.3,19.2,21.3c9.4,0,15.7-8.2,15.7-16.6c0-5.6-1.2-12.9-8.7-20.1
				c-1.2-1.2-2.8-2.3-4.4-3.5c4.4-2.8,9.4-4.2,14.5-4.2c3,0,5.6-1.6,5.6-4.2C119.5,116.4,117.2,114.3,114.1,114.3L114.1,114.3z
				 M96.8,158.5c-4.7,0-8.9-5.1-8.9-11.7c0-5.1,1.4-9.4,3.7-12.9c9.8,6.1,10.5,13.8,10.5,17.5C102.2,155.2,100.3,158.5,96.8,158.5
				L96.8,158.5z M57.5,267.3c-25,0-44.7-11.7-44.7-27.1c0-12.6,13.3-21.8,28.8-21.8c29,0,45.2,20.1,43.8,45.2
				C77.4,266.1,67.8,267.3,57.5,267.3L57.5,267.3z"/>
		</g>
	</g>
	<g>
		<g>
			<linearGradient id="SVGID_2_" gradientUnits="userSpaceOnUse" x1="138.2134" y1="232.677" x2="202.3276" y2="232.677">
				<stop  offset="0" style="stop-color:#7081F6"/>
				<stop  offset="0.1845" style="stop-color:#7481F6"/>
				<stop  offset="0.3738" style="stop-color:#807FF5"/>
				<stop  offset="0.5654" style="stop-color:#957DF4"/>
				<stop  offset="0.7585" style="stop-color:#B279F3"/>
				<stop  offset="0.9511" style="stop-color:#D675F1"/>
				<stop  offset="1" style="stop-color:#E174F1"/>
			</linearGradient>
			<path class="st1" d="M180.8,191.3c-25.7,0-42.6,33.9-42.6,58.3c0,17.5,9.6,24.6,19,24.6c16.8,0,24.3-15.7,24.3-19.7
				c0-2.8-1.9-5.1-4.9-5.1c-1.9,0-3.7,1.2-4.4,3c-2.3,6.3-7,11.9-13.3,11.9c-6.1,0-10.1-6.1-10.1-14.7c0-21.3,13.3-48.4,31.1-48.4
				c6.1,0,12.2,4.2,12.2,15.4c0,8.2-1.6,17.3-3,26c-1.2,8.4-2.6,15-2.6,19.9c0,4.7,1.4,11.2,6.6,11.2c2.8,0,5.4-2.3,5.4-4.9
				c0-1.2-0.5-1.9-0.9-2.8c-0.2-0.7-0.5-1.6-0.5-3c0-4.7,1.4-12.6,2.3-18.7c1.6-8.9,3-19.2,3-28.1
				C202.3,199.9,194.1,191.3,180.8,191.3L180.8,191.3z"/>
		</g>
	</g>
	<g>
		<g>
			<linearGradient id="SVGID_3_" gradientUnits="userSpaceOnUse" x1="218.9419" y1="232.6772" x2="330.0889" y2="232.6772">
				<stop  offset="0" style="stop-color:#7081F6"/>
				<stop  offset="0.1845" style="stop-color:#7481F6"/>
				<stop  offset="0.3738" style="stop-color:#807FF5"/>
				<stop  offset="0.5654" style="stop-color:#957DF4"/>
				<stop  offset="0.7585" style="stop-color:#B279F3"/>
				<stop  offset="0.9511" style="stop-color:#D675F1"/>
				<stop  offset="1" style="stop-color:#E174F1"/>
			</linearGradient>
			<path class="st2" d="M229,190.6c-3,0-5.4,2.3-5.4,5.1c0,1.4,0.5,2.6,1.2,3.7c3.5,3.5,3.5,11.7,3.5,14.3c0,12.4-3.5,28.3-6.3,40.2
				c-1.4,6.3-3,12.6-3,15c0,3,1.9,5.4,4.9,5.4c2.6,0,4.4-1.6,4.9-4.2c7.7-40.5,21.5-67.6,33.7-67.6c10.1,0,10.3,17.5,10.3,22.7
				c0,9.1-1.4,19-3,29.2c-0.9,4.9-2.1,11.9-2.1,12.9c0,2.8,2.1,5.4,5.1,5.4c4.2,0,4.4-1.9,7-17.8c4.4-27.4,16.6-52.6,29.7-52.6
				c8,0,10.3,12.2,10.3,25c0,15.2-4,32.8-6.3,40.7c-0.2,0.5-0.2,0.9-0.2,1.4c0,2.8,2.3,5.4,5.4,5.4c2.3,0,4.2-1.6,5.1-3.7
				c2.1-8.4,6.3-27.4,6.3-44.2c0-25.3-8.9-34.9-19.4-35.1c-12.6,0-22,9.4-28.1,27.4c-0.9-21.1-10.8-26.9-19-26.9
				c-9.4,0-18.7,5.9-26,23.4C239.5,200.6,233.9,190.6,229,190.6L229,190.6z"/>
		</g>
	</g>
	<g>
		<g>
			<linearGradient id="SVGID_4_" gradientUnits="userSpaceOnUse" x1="346.9375" y1="232.677" x2="411.0518" y2="232.677">
				<stop  offset="0" style="stop-color:#7081F6"/>
				<stop  offset="0.1845" style="stop-color:#7481F6"/>
				<stop  offset="0.3738" style="stop-color:#807FF5"/>
				<stop  offset="0.5654" style="stop-color:#957DF4"/>
				<stop  offset="0.7585" style="stop-color:#B279F3"/>
				<stop  offset="0.9511" style="stop-color:#D675F1"/>
				<stop  offset="1" style="stop-color:#E174F1"/>
			</linearGradient>
			<path class="st3" d="M389.5,191.3c-25.7,0-42.6,33.9-42.6,58.3c0,17.5,9.6,24.6,19,24.6c16.8,0,24.3-15.7,24.3-19.7
				c0-2.8-1.9-5.1-4.9-5.1c-1.9,0-3.7,1.2-4.4,3c-2.3,6.3-7,11.9-13.3,11.9c-6.1,0-10.1-6.1-10.1-14.7c0-21.3,13.3-48.4,31.1-48.4
				c6.1,0,12.2,4.2,12.2,15.4c0,8.2-1.6,17.3-3,26c-1.2,8.4-2.6,15-2.6,19.9c0,4.7,1.4,11.2,6.6,11.2c2.8,0,5.4-2.3,5.4-4.9
				c0-1.2-0.5-1.9-0.9-2.8c-0.2-0.7-0.5-1.6-0.5-3c0-4.7,1.4-12.6,2.3-18.7c1.6-8.9,3-19.2,3-28.1
				C411.1,199.9,402.9,191.3,389.5,191.3L389.5,191.3z"/>
		</g>
	</g>
	<g>
		<g>
			<linearGradient id="SVGID_5_" gradientUnits="userSpaceOnUse" x1="429.3042" y1="233.145" x2="479.8467" y2="233.145">
				<stop  offset="0" style="stop-color:#7081F6"/>
				<stop  offset="0.1845" style="stop-color:#7481F6"/>
				<stop  offset="0.3738" style="stop-color:#807FF5"/>
				<stop  offset="0.5654" style="stop-color:#957DF4"/>
				<stop  offset="0.7585" style="stop-color:#B279F3"/>
				<stop  offset="0.9511" style="stop-color:#D675F1"/>
				<stop  offset="1" style="stop-color:#E174F1"/>
			</linearGradient>
			<path class="st4" d="M474.2,192.2c-11.7,0-24.3,7-29.5,22.5c0.5-11.7-6.1-19.7-10.5-19.7c-2.6,0-4.9,2.3-4.9,5.1
				c0,1.4,0.2,2.8,1.4,3.7c3,3,5.1,7,5.1,17.3c0,7.7-6.6,46.1-6.6,47.7c0,2.8,1.9,5.1,4.7,5.1c2.6,0,4.7-1.6,5.1-4.4l1.4-7.7
				c5.4-30,10.1-58.5,34.4-59.9c2.8-0.2,4.9-1.9,4.9-4.7C479.8,194.3,477.3,192.2,474.2,192.2L474.2,192.2z"/>
		</g>
	</g>
	<g>
		<g>
			<linearGradient id="SVGID_6_" gradientUnits="userSpaceOnUse" x1="482.8891" y1="217.9353" x2="530.8579" y2="217.9353">
				<stop  offset="0" style="stop-color:#7081F6"/>
				<stop  offset="0.1845" style="stop-color:#7481F6"/>
				<stop  offset="0.3738" style="stop-color:#807FF5"/>
				<stop  offset="0.5654" style="stop-color:#957DF4"/>
				<stop  offset="0.7585" style="stop-color:#B279F3"/>
				<stop  offset="0.9511" style="stop-color:#D675F1"/>
				<stop  offset="1" style="stop-color:#E174F1"/>
			</linearGradient>
			<path class="st5" d="M513.1,161.3c-2.1,0.2-4,1.6-4.7,3.7c-2.6,9.4-5.4,20.1-7.3,27.8c-8.4,0.2-18.3,0.5-18.3,7
				c0,2.6,1.6,4,3.3,4c3.3,0,5.8-1.2,12.6-1.2c-4.4,17.8-5.9,30.9-5.9,42.1c0,18,5.6,27.6,17.3,29.5c0.2,0,1.4,0.2,1.6,0.2
				c2.8-0.2,5.1-2.6,5.1-5.4c0-2.6-2.1-4.9-4.7-4.9c-2.3-0.5-9.1-1.6-9.1-20.1c0-11.9,2.1-26.7,6.3-41.7c4.4,0.2,12.4,0.7,16.8,0.7
				c2.6,0,4.4-1.9,4.4-4.7c0-2.6-2.6-4.4-5.1-4.9c-6.3-0.2-11-0.5-14.3-0.5c1.2-5.1,4.2-17.5,6.6-24.6c0.2-0.5,0.5-1.6,0.5-2.6
				C518.5,163.2,516.1,161.3,513.1,161.3L513.1,161.3z"/>
		</g>
	</g>
	<g>
		<g>
			<linearGradient id="SVGID_7_" gradientUnits="userSpaceOnUse" x1="535.7686" y1="198.7478" x2="609.7104" y2="198.7478">
				<stop  offset="0" style="stop-color:#7081F6"/>
				<stop  offset="0.1845" style="stop-color:#7481F6"/>
				<stop  offset="0.3738" style="stop-color:#807FF5"/>
				<stop  offset="0.5654" style="stop-color:#957DF4"/>
				<stop  offset="0.7585" style="stop-color:#B279F3"/>
				<stop  offset="0.9511" style="stop-color:#D675F1"/>
				<stop  offset="1" style="stop-color:#E174F1"/>
			</linearGradient>
			<path class="st6" d="M593.8,124.3c-18,0-32.5,26.4-39.8,49.6c-2.6,0.5-5.8,0.7-8.9,0.7h-4.4c-0.2,0-0.4-0.1-0.7-0.1
				c-2.3,0-4.3,2.2-4.3,4.7c0,5,4.2,5.1,8.1,5.1c0.3,0,0.7,0,1,0c2.1,0,4.7,0,6.3-0.2c-2.3,9.8-7.7,39.8-7.7,65.5
				c0,7.7,0.5,12.2,1.6,19.2c0.5,2.3,2.3,4.2,4.9,4.2c3,0,5.4-2.3,4.9-5.1c-3.3-26,16.6-65,31.8-65c5.8,0,8.9,6.1,8.9,23.9
				c0,15-3.3,30.9-5.1,38.1c0,0.5-0.2,0.9-0.2,1.4c0,2.6,2.3,5.1,5.4,5.1c2.3,0,4.2-1.6,4.9-4c0.7-2.1,5.6-21.3,5.6-40.7
				c0-10.1-0.2-34.6-18.7-34.6c-12.6,0-26.9,14.3-33.9,37.7c2.8-22.5,6.6-39.1,8.7-47.5c23.4-5.8,47.5-23.4,47.5-42.4
				C609.7,130.4,603.9,124.3,593.8,124.3L593.8,124.3z M565.5,171.4c7.3-22,19.7-37.4,28.1-37.4c4.2,0,5.8,2.6,5.8,6.1
				C599.4,151.5,583.7,165.1,565.5,171.4L565.5,171.4z"/>
		</g>
	</g>
	<g>
		<g>
			<linearGradient id="SVGID_8_" gradientUnits="userSpaceOnUse" x1="655.8091" y1="176.7527" x2="814.4565" y2="176.7527">
				<stop  offset="0" style="stop-color:#7081F6"/>
				<stop  offset="0.1845" style="stop-color:#7481F6"/>
				<stop  offset="0.3738" style="stop-color:#807FF5"/>
				<stop  offset="0.5654" style="stop-color:#957DF4"/>
				<stop  offset="0.7585" style="stop-color:#B279F3"/>
				<stop  offset="0.9511" style="stop-color:#D675F1"/>
				<stop  offset="1" style="stop-color:#E174F1"/>
			</linearGradient>
			<path class="st7" d="M734.9,76.8c-3,0-5.1,2.3-5.1,5.4c0,0.9,0,1.9,0.7,2.6c3.3,5.1,4.7,10.3,4.7,15.7c0,9.4-4.7,18.5-12.2,24.6
				c-9.6-20.1-24.8-31.1-41.7-31.1c-14.5,0-25.5,9.4-25.5,21.8c0,16.1,17.8,28.1,41.7,28.1c7.5,0,16.4-2.3,19.9-4
				c2.8,8,4.7,15.4,5.8,27.1c-22.9,26.4-39.3,66.5-39.3,89.6c0,12.2,7.5,20.1,17.5,20.1c21.8,0,34.2-38.4,34.2-81.4
				c0-9.1-0.5-17.8-1.4-25.7c14.3-17.8,30.7-31.1,45.9-31.1c16.1,0,23.9,16.1,23.9,40.9c0,25.7-10.5,59.7-27.8,87.7
				c-0.5,0.9-0.7,1.9-0.7,2.8c0,3,2.3,5.4,5.1,5.4c1.6,0,3.5-1.2,4.4-2.6c18.3-29.7,29.5-64.3,29.5-93.4c0-40.5-17.5-50.5-34.2-50.5
				s-33.2,11.9-48,28.1c-1.4-7.7-3.3-15.7-5.6-22.2c11.7-8.4,19-20.8,19-34.2C745.7,92.3,741.2,76.8,734.9,76.8L734.9,76.8z
				 M697.5,134.2c-17.5,0-30.9-8.4-30.9-18.5c0-8.4,6.1-12.2,14.7-12.2c12.2,0,24.3,8.9,33.2,27.4
				C710.1,132.5,703.3,134.2,697.5,134.2L697.5,134.2z M702.1,266.8c-5.4,0-7.7-5.4-7.7-10.3c0.2-18.7,12.4-52.6,30.4-76
				c0.2,4.2,0.5,10.3,0.5,14.7C725.3,237.6,713.4,266.8,702.1,266.8L702.1,266.8z"/>
		</g>
	</g>
	<g>
		<g>
			<linearGradient id="SVGID_9_" gradientUnits="userSpaceOnUse" x1="826.3921" y1="232.677" x2="890.5063" y2="232.677">
				<stop  offset="0" style="stop-color:#7081F6"/>
				<stop  offset="0.1845" style="stop-color:#7481F6"/>
				<stop  offset="0.3738" style="stop-color:#807FF5"/>
				<stop  offset="0.5654" style="stop-color:#957DF4"/>
				<stop  offset="0.7585" style="stop-color:#B279F3"/>
				<stop  offset="0.9511" style="stop-color:#D675F1"/>
				<stop  offset="1" style="stop-color:#E174F1"/>
			</linearGradient>
			<path class="st8" d="M869,191.3c-25.7,0-42.6,33.9-42.6,58.3c0,17.5,9.6,24.6,19,24.6c16.8,0,24.3-15.7,24.3-19.7
				c0-2.8-1.9-5.1-4.9-5.1c-1.9,0-3.7,1.2-4.4,3c-2.3,6.3-7,11.9-13.3,11.9c-6.1,0-10.1-6.1-10.1-14.7c0-21.3,13.3-48.4,31.1-48.4
				c6.1,0,12.2,4.2,12.2,15.4c0,8.2-1.6,17.3-3,26c-1.2,8.4-2.6,15-2.6,19.9c0,4.7,1.4,11.2,6.6,11.2c2.8,0,5.4-2.3,5.4-4.9
				c0-1.2-0.5-1.9-0.9-2.8c-0.2-0.7-0.5-1.6-0.5-3c0-4.7,1.4-12.6,2.3-18.7c1.6-8.9,3-19.2,3-28.1
				C890.5,199.9,882.3,191.3,869,191.3L869,191.3z"/>
		</g>
	</g>
	<g>
		<g>
			<linearGradient id="SVGID_10_" gradientUnits="userSpaceOnUse" x1="879.5083" y1="269.1799" x2="972.6382" y2="269.1799">
				<stop  offset="0" style="stop-color:#7081F6"/>
				<stop  offset="0.1845" style="stop-color:#7481F6"/>
				<stop  offset="0.3738" style="stop-color:#807FF5"/>
				<stop  offset="0.5654" style="stop-color:#957DF4"/>
				<stop  offset="0.7585" style="stop-color:#B279F3"/>
				<stop  offset="0.9511" style="stop-color:#D675F1"/>
				<stop  offset="1" style="stop-color:#E174F1"/>
			</linearGradient>
			<path class="st9" d="M965.1,193.1c-2.8,0-5.4,2.1-5.4,4.9c0.2,28.3-17.3,64.8-31.6,64.8c-8,0-8.9-15-8.9-21.8
				c0-15,3.3-31.6,5.1-41.7l0.2-0.9c0-3-2.3-5.4-5.1-5.4c-4.4,0-5.1,3.7-5.6,5.4c-1.6,8.7-5.1,26.4-5.1,42.6
				c0,16.4,4.9,32.1,19.4,32.1c11.5,0,23.9-13.6,29.7-30c-1.4,14.3-4.9,33.2-8.7,44.9c-4.2-1.4-9.6-2.1-15-2.1
				c-24.6,0-54.8,15.2-54.8,39.3c0,14.3,10.3,19.9,21.8,19.9c20.8,0,43.8-16.8,54.1-43.3c2.1,0.9,7.3,4.4,7.3,11
				c0,2.8,2.1,5.1,4.9,5.1c2.8,0,5.1-2.3,5.1-5.1c0-8.9-5.8-16.6-13.6-21.1c6.1-20.1,7.7-39.3,8.4-49.1c0.7-11,2.3-33.9,2.3-44.5
				C969.8,195.5,968,193.1,965.1,193.1L965.1,193.1z M902.7,335.6c-6.3,0-12.6-3.5-12.6-11c0-16.6,24.8-29,44.2-29
				c4,0,8.9,0.5,12.2,1.4C937.3,320.4,918.8,335.6,902.7,335.6L902.7,335.6z"/>
		</g>
	</g>
	<g>
		<g>
			<linearGradient id="SVGID_11_" gradientUnits="userSpaceOnUse" x1="959.2993" y1="269.1799" x2="1052.4292" y2="269.1799">
				<stop  offset="0" style="stop-color:#7081F6"/>
				<stop  offset="0.1845" style="stop-color:#7481F6"/>
				<stop  offset="0.3738" style="stop-color:#807FF5"/>
				<stop  offset="0.5654" style="stop-color:#957DF4"/>
				<stop  offset="0.7585" style="stop-color:#B279F3"/>
				<stop  offset="0.9511" style="stop-color:#D675F1"/>
				<stop  offset="1" style="stop-color:#E174F1"/>
			</linearGradient>
			<path class="st10" d="M1044.9,193.1c-2.8,0-5.4,2.1-5.4,4.9c0.2,28.3-17.3,64.8-31.6,64.8c-8,0-8.9-15-8.9-21.8
				c0-15,3.3-31.6,5.1-41.7l0.2-0.9c0-3-2.3-5.4-5.1-5.4c-4.4,0-5.1,3.7-5.6,5.4c-1.6,8.7-5.1,26.4-5.1,42.6
				c0,16.4,4.9,32.1,19.4,32.1c11.5,0,23.9-13.6,29.7-30c-1.4,14.3-4.9,33.2-8.7,44.9c-4.2-1.4-9.6-2.1-15-2.1
				c-24.6,0-54.8,15.2-54.8,39.3c0,14.3,10.3,19.9,21.8,19.9c20.8,0,43.8-16.8,54.1-43.3c2.1,0.9,7.3,4.4,7.3,11
				c0,2.8,2.1,5.1,4.9,5.1c2.8,0,5.1-2.3,5.1-5.1c0-8.9-5.8-16.6-13.6-21.1c6.1-20.1,7.7-39.3,8.4-49.1c0.7-11,2.3-33.9,2.3-44.5
				C1049.6,195.5,1047.7,193.1,1044.9,193.1L1044.9,193.1z M982.5,335.6c-6.3,0-12.6-3.5-12.6-11c0-16.6,24.8-29,44.2-29
				c4,0,8.9,0.5,12.2,1.4C1017.1,320.4,998.6,335.6,982.5,335.6L982.5,335.6z"/>
		</g>
	</g>
	<g>
		<g>
			<linearGradient id="SVGID_12_" gradientUnits="userSpaceOnUse" x1="1064.5972" y1="232.677" x2="1128.7114" y2="232.677">
				<stop  offset="0" style="stop-color:#7081F6"/>
				<stop  offset="0.1845" style="stop-color:#7481F6"/>
				<stop  offset="0.3738" style="stop-color:#807FF5"/>
				<stop  offset="0.5654" style="stop-color:#957DF4"/>
				<stop  offset="0.7585" style="stop-color:#B279F3"/>
				<stop  offset="0.9511" style="stop-color:#D675F1"/>
				<stop  offset="1" style="stop-color:#E174F1"/>
			</linearGradient>
			<path class="st11" d="M1107.2,191.3c-25.7,0-42.6,33.9-42.6,58.3c0,17.5,9.6,24.6,19,24.6c16.8,0,24.3-15.7,24.3-19.7
				c0-2.8-1.9-5.1-4.9-5.1c-1.9,0-3.7,1.2-4.4,3c-2.3,6.3-7,11.9-13.3,11.9c-6.1,0-10.1-6.1-10.1-14.7c0-21.3,13.3-48.4,31.1-48.4
				c6.1,0,12.2,4.2,12.2,15.4c0,8.2-1.6,17.3-3,26c-1.2,8.4-2.6,15-2.6,19.9c0,4.7,1.4,11.2,6.6,11.2c2.8,0,5.4-2.3,5.4-4.9
				c0-1.2-0.5-1.9-0.9-2.8c-0.2-0.7-0.5-1.6-0.5-3c0-4.7,1.4-12.6,2.3-18.7c1.6-8.9,3-19.2,3-28.1
				C1128.7,199.9,1120.5,191.3,1107.2,191.3L1107.2,191.3z"/>
		</g>
	</g>
	<g>
		<g>
			<linearGradient id="SVGID_13_" gradientUnits="userSpaceOnUse" x1="1146.9624" y1="233.145" x2="1197.5054" y2="233.145">
				<stop  offset="0" style="stop-color:#7081F6"/>
				<stop  offset="0.1845" style="stop-color:#7481F6"/>
				<stop  offset="0.3738" style="stop-color:#807FF5"/>
				<stop  offset="0.5654" style="stop-color:#957DF4"/>
				<stop  offset="0.7585" style="stop-color:#B279F3"/>
				<stop  offset="0.9511" style="stop-color:#D675F1"/>
				<stop  offset="1" style="stop-color:#E174F1"/>
			</linearGradient>
			<path class="st12" d="M1191.9,192.2c-11.7,0-24.3,7-29.5,22.5c0.5-11.7-6.1-19.7-10.5-19.7c-2.6,0-4.9,2.3-4.9,5.1
				c0,1.4,0.2,2.8,1.4,3.7c3,3,5.1,7,5.1,17.3c0,7.7-6.6,46.1-6.6,47.7c0,2.8,1.9,5.1,4.7,5.1c2.6,0,4.7-1.6,5.1-4.4l1.4-7.7
				c5.4-30,10.1-58.5,34.4-59.9c2.8-0.2,4.9-1.9,4.9-4.7C1197.5,194.3,1194.9,192.2,1191.9,192.2L1191.9,192.2z"/>
		</g>
	</g>
</g>
<rect x="2" y="61" class="st59 path" width="1195.5" height="293"/>
</svg>
